%TF.GenerationSoftware,KiCad,Pcbnew,9.0.7*%
%TF.CreationDate,2026-01-27T19:55:09-08:00*%
%TF.ProjectId,gm_pogopin,676d5f70-6f67-46f7-9069-6e2e6b696361,rev?*%
%TF.SameCoordinates,Original*%
%TF.FileFunction,Legend,Top*%
%TF.FilePolarity,Positive*%
%FSLAX46Y46*%
G04 Gerber Fmt 4.6, Leading zero omitted, Abs format (unit mm)*
G04 Created by KiCad (PCBNEW 9.0.7) date 2026-01-27 19:55:09*
%MOMM*%
%LPD*%
G01*
G04 APERTURE LIST*
%ADD10C,0.140000*%
%ADD11C,0.175000*%
%ADD12C,0.150000*%
%ADD13C,0.120000*%
G04 APERTURE END LIST*
D10*
X149958769Y-88770339D02*
X149958769Y-88103672D01*
X149958769Y-88294148D02*
X149992103Y-88198910D01*
X149992103Y-88198910D02*
X150025436Y-88151291D01*
X150025436Y-88151291D02*
X150092103Y-88103672D01*
X150092103Y-88103672D02*
X150158769Y-88103672D01*
X150392102Y-88770339D02*
X150392102Y-88103672D01*
X150392102Y-87770339D02*
X150358769Y-87817958D01*
X150358769Y-87817958D02*
X150392102Y-87865577D01*
X150392102Y-87865577D02*
X150425436Y-87817958D01*
X150425436Y-87817958D02*
X150392102Y-87770339D01*
X150392102Y-87770339D02*
X150392102Y-87865577D01*
X151025435Y-88103672D02*
X151025435Y-88913196D01*
X151025435Y-88913196D02*
X150992102Y-89008434D01*
X150992102Y-89008434D02*
X150958769Y-89056053D01*
X150958769Y-89056053D02*
X150892102Y-89103672D01*
X150892102Y-89103672D02*
X150792102Y-89103672D01*
X150792102Y-89103672D02*
X150725435Y-89056053D01*
X151025435Y-88722720D02*
X150958769Y-88770339D01*
X150958769Y-88770339D02*
X150825435Y-88770339D01*
X150825435Y-88770339D02*
X150758769Y-88722720D01*
X150758769Y-88722720D02*
X150725435Y-88675100D01*
X150725435Y-88675100D02*
X150692102Y-88579862D01*
X150692102Y-88579862D02*
X150692102Y-88294148D01*
X150692102Y-88294148D02*
X150725435Y-88198910D01*
X150725435Y-88198910D02*
X150758769Y-88151291D01*
X150758769Y-88151291D02*
X150825435Y-88103672D01*
X150825435Y-88103672D02*
X150958769Y-88103672D01*
X150958769Y-88103672D02*
X151025435Y-88151291D01*
X151358768Y-88770339D02*
X151358768Y-87770339D01*
X151658768Y-88770339D02*
X151658768Y-88246529D01*
X151658768Y-88246529D02*
X151625435Y-88151291D01*
X151625435Y-88151291D02*
X151558768Y-88103672D01*
X151558768Y-88103672D02*
X151458768Y-88103672D01*
X151458768Y-88103672D02*
X151392102Y-88151291D01*
X151392102Y-88151291D02*
X151358768Y-88198910D01*
X151892101Y-88103672D02*
X152158768Y-88103672D01*
X151992101Y-87770339D02*
X151992101Y-88627481D01*
X151992101Y-88627481D02*
X152025435Y-88722720D01*
X152025435Y-88722720D02*
X152092101Y-88770339D01*
X152092101Y-88770339D02*
X152158768Y-88770339D01*
X152825434Y-88103672D02*
X153092101Y-88103672D01*
X152925434Y-87770339D02*
X152925434Y-88627481D01*
X152925434Y-88627481D02*
X152958768Y-88722720D01*
X152958768Y-88722720D02*
X153025434Y-88770339D01*
X153025434Y-88770339D02*
X153092101Y-88770339D01*
X153258768Y-88103672D02*
X153392101Y-88770339D01*
X153392101Y-88770339D02*
X153525434Y-88294148D01*
X153525434Y-88294148D02*
X153658768Y-88770339D01*
X153658768Y-88770339D02*
X153792101Y-88103672D01*
X154058767Y-88770339D02*
X154058767Y-88103672D01*
X154058767Y-87770339D02*
X154025434Y-87817958D01*
X154025434Y-87817958D02*
X154058767Y-87865577D01*
X154058767Y-87865577D02*
X154092101Y-87817958D01*
X154092101Y-87817958D02*
X154058767Y-87770339D01*
X154058767Y-87770339D02*
X154058767Y-87865577D01*
X154692100Y-88722720D02*
X154625434Y-88770339D01*
X154625434Y-88770339D02*
X154492100Y-88770339D01*
X154492100Y-88770339D02*
X154425434Y-88722720D01*
X154425434Y-88722720D02*
X154392100Y-88675100D01*
X154392100Y-88675100D02*
X154358767Y-88579862D01*
X154358767Y-88579862D02*
X154358767Y-88294148D01*
X154358767Y-88294148D02*
X154392100Y-88198910D01*
X154392100Y-88198910D02*
X154425434Y-88151291D01*
X154425434Y-88151291D02*
X154492100Y-88103672D01*
X154492100Y-88103672D02*
X154625434Y-88103672D01*
X154625434Y-88103672D02*
X154692100Y-88151291D01*
X155258767Y-88722720D02*
X155192100Y-88770339D01*
X155192100Y-88770339D02*
X155058767Y-88770339D01*
X155058767Y-88770339D02*
X154992100Y-88722720D01*
X154992100Y-88722720D02*
X154958767Y-88627481D01*
X154958767Y-88627481D02*
X154958767Y-88246529D01*
X154958767Y-88246529D02*
X154992100Y-88151291D01*
X154992100Y-88151291D02*
X155058767Y-88103672D01*
X155058767Y-88103672D02*
X155192100Y-88103672D01*
X155192100Y-88103672D02*
X155258767Y-88151291D01*
X155258767Y-88151291D02*
X155292100Y-88246529D01*
X155292100Y-88246529D02*
X155292100Y-88341767D01*
X155292100Y-88341767D02*
X154958767Y-88437005D01*
X156425433Y-88770339D02*
X156425433Y-88246529D01*
X156425433Y-88246529D02*
X156392100Y-88151291D01*
X156392100Y-88151291D02*
X156325433Y-88103672D01*
X156325433Y-88103672D02*
X156192100Y-88103672D01*
X156192100Y-88103672D02*
X156125433Y-88151291D01*
X156425433Y-88722720D02*
X156358767Y-88770339D01*
X156358767Y-88770339D02*
X156192100Y-88770339D01*
X156192100Y-88770339D02*
X156125433Y-88722720D01*
X156125433Y-88722720D02*
X156092100Y-88627481D01*
X156092100Y-88627481D02*
X156092100Y-88532243D01*
X156092100Y-88532243D02*
X156125433Y-88437005D01*
X156125433Y-88437005D02*
X156192100Y-88389386D01*
X156192100Y-88389386D02*
X156358767Y-88389386D01*
X156358767Y-88389386D02*
X156425433Y-88341767D01*
X157592099Y-88770339D02*
X157592099Y-87770339D01*
X157592099Y-88722720D02*
X157525433Y-88770339D01*
X157525433Y-88770339D02*
X157392099Y-88770339D01*
X157392099Y-88770339D02*
X157325433Y-88722720D01*
X157325433Y-88722720D02*
X157292099Y-88675100D01*
X157292099Y-88675100D02*
X157258766Y-88579862D01*
X157258766Y-88579862D02*
X157258766Y-88294148D01*
X157258766Y-88294148D02*
X157292099Y-88198910D01*
X157292099Y-88198910D02*
X157325433Y-88151291D01*
X157325433Y-88151291D02*
X157392099Y-88103672D01*
X157392099Y-88103672D02*
X157525433Y-88103672D01*
X157525433Y-88103672D02*
X157592099Y-88151291D01*
X158225432Y-88770339D02*
X158225432Y-88246529D01*
X158225432Y-88246529D02*
X158192099Y-88151291D01*
X158192099Y-88151291D02*
X158125432Y-88103672D01*
X158125432Y-88103672D02*
X157992099Y-88103672D01*
X157992099Y-88103672D02*
X157925432Y-88151291D01*
X158225432Y-88722720D02*
X158158766Y-88770339D01*
X158158766Y-88770339D02*
X157992099Y-88770339D01*
X157992099Y-88770339D02*
X157925432Y-88722720D01*
X157925432Y-88722720D02*
X157892099Y-88627481D01*
X157892099Y-88627481D02*
X157892099Y-88532243D01*
X157892099Y-88532243D02*
X157925432Y-88437005D01*
X157925432Y-88437005D02*
X157992099Y-88389386D01*
X157992099Y-88389386D02*
X158158766Y-88389386D01*
X158158766Y-88389386D02*
X158225432Y-88341767D01*
X158492099Y-88103672D02*
X158658765Y-88770339D01*
X158825432Y-88103672D02*
X158658765Y-88770339D01*
X158658765Y-88770339D02*
X158592099Y-89008434D01*
X158592099Y-89008434D02*
X158558765Y-89056053D01*
X158558765Y-89056053D02*
X158492099Y-89103672D01*
X153175436Y-86370339D02*
X153175436Y-86560815D01*
X153442103Y-86370339D02*
X153442103Y-86560815D01*
X154008769Y-87322720D02*
X153942102Y-87370339D01*
X153942102Y-87370339D02*
X153808769Y-87370339D01*
X153808769Y-87370339D02*
X153742102Y-87322720D01*
X153742102Y-87322720D02*
X153708769Y-87227481D01*
X153708769Y-87227481D02*
X153708769Y-86846529D01*
X153708769Y-86846529D02*
X153742102Y-86751291D01*
X153742102Y-86751291D02*
X153808769Y-86703672D01*
X153808769Y-86703672D02*
X153942102Y-86703672D01*
X153942102Y-86703672D02*
X154008769Y-86751291D01*
X154008769Y-86751291D02*
X154042102Y-86846529D01*
X154042102Y-86846529D02*
X154042102Y-86941767D01*
X154042102Y-86941767D02*
X153708769Y-87037005D01*
X154275436Y-86703672D02*
X154442102Y-87370339D01*
X154442102Y-87370339D02*
X154608769Y-86703672D01*
X154875435Y-87370339D02*
X154875435Y-86703672D01*
X154875435Y-86370339D02*
X154842102Y-86417958D01*
X154842102Y-86417958D02*
X154875435Y-86465577D01*
X154875435Y-86465577D02*
X154908769Y-86417958D01*
X154908769Y-86417958D02*
X154875435Y-86370339D01*
X154875435Y-86370339D02*
X154875435Y-86465577D01*
X155308768Y-87370339D02*
X155242102Y-87322720D01*
X155242102Y-87322720D02*
X155208768Y-87227481D01*
X155208768Y-87227481D02*
X155208768Y-86370339D01*
X156108768Y-87370339D02*
X156108768Y-86370339D01*
X156175435Y-86989386D02*
X156375435Y-87370339D01*
X156375435Y-86703672D02*
X156108768Y-87084624D01*
X156775435Y-87370339D02*
X156708769Y-87322720D01*
X156708769Y-87322720D02*
X156675435Y-87275100D01*
X156675435Y-87275100D02*
X156642102Y-87179862D01*
X156642102Y-87179862D02*
X156642102Y-86894148D01*
X156642102Y-86894148D02*
X156675435Y-86798910D01*
X156675435Y-86798910D02*
X156708769Y-86751291D01*
X156708769Y-86751291D02*
X156775435Y-86703672D01*
X156775435Y-86703672D02*
X156875435Y-86703672D01*
X156875435Y-86703672D02*
X156942102Y-86751291D01*
X156942102Y-86751291D02*
X156975435Y-86798910D01*
X156975435Y-86798910D02*
X157008769Y-86894148D01*
X157008769Y-86894148D02*
X157008769Y-87179862D01*
X157008769Y-87179862D02*
X156975435Y-87275100D01*
X156975435Y-87275100D02*
X156942102Y-87322720D01*
X156942102Y-87322720D02*
X156875435Y-87370339D01*
X156875435Y-87370339D02*
X156775435Y-87370339D01*
X157308768Y-87370339D02*
X157308768Y-86703672D01*
X157308768Y-86894148D02*
X157342102Y-86798910D01*
X157342102Y-86798910D02*
X157375435Y-86751291D01*
X157375435Y-86751291D02*
X157442102Y-86703672D01*
X157442102Y-86703672D02*
X157508768Y-86703672D01*
X158008768Y-87322720D02*
X157942101Y-87370339D01*
X157942101Y-87370339D02*
X157808768Y-87370339D01*
X157808768Y-87370339D02*
X157742101Y-87322720D01*
X157742101Y-87322720D02*
X157708768Y-87227481D01*
X157708768Y-87227481D02*
X157708768Y-86846529D01*
X157708768Y-86846529D02*
X157742101Y-86751291D01*
X157742101Y-86751291D02*
X157808768Y-86703672D01*
X157808768Y-86703672D02*
X157942101Y-86703672D01*
X157942101Y-86703672D02*
X158008768Y-86751291D01*
X158008768Y-86751291D02*
X158042101Y-86846529D01*
X158042101Y-86846529D02*
X158042101Y-86941767D01*
X158042101Y-86941767D02*
X157708768Y-87037005D01*
X158642101Y-87370339D02*
X158642101Y-86846529D01*
X158642101Y-86846529D02*
X158608768Y-86751291D01*
X158608768Y-86751291D02*
X158542101Y-86703672D01*
X158542101Y-86703672D02*
X158408768Y-86703672D01*
X158408768Y-86703672D02*
X158342101Y-86751291D01*
X158642101Y-87322720D02*
X158575435Y-87370339D01*
X158575435Y-87370339D02*
X158408768Y-87370339D01*
X158408768Y-87370339D02*
X158342101Y-87322720D01*
X158342101Y-87322720D02*
X158308768Y-87227481D01*
X158308768Y-87227481D02*
X158308768Y-87132243D01*
X158308768Y-87132243D02*
X158342101Y-87037005D01*
X158342101Y-87037005D02*
X158408768Y-86989386D01*
X158408768Y-86989386D02*
X158575435Y-86989386D01*
X158575435Y-86989386D02*
X158642101Y-86941767D01*
X158975434Y-86703672D02*
X158975434Y-87370339D01*
X158975434Y-86798910D02*
X159008768Y-86751291D01*
X159008768Y-86751291D02*
X159075434Y-86703672D01*
X159075434Y-86703672D02*
X159175434Y-86703672D01*
X159175434Y-86703672D02*
X159242101Y-86751291D01*
X159242101Y-86751291D02*
X159275434Y-86846529D01*
X159275434Y-86846529D02*
X159275434Y-87370339D01*
X159575434Y-87322720D02*
X159642101Y-87370339D01*
X159642101Y-87370339D02*
X159775434Y-87370339D01*
X159775434Y-87370339D02*
X159842101Y-87322720D01*
X159842101Y-87322720D02*
X159875434Y-87227481D01*
X159875434Y-87227481D02*
X159875434Y-87179862D01*
X159875434Y-87179862D02*
X159842101Y-87084624D01*
X159842101Y-87084624D02*
X159775434Y-87037005D01*
X159775434Y-87037005D02*
X159675434Y-87037005D01*
X159675434Y-87037005D02*
X159608767Y-86989386D01*
X159608767Y-86989386D02*
X159575434Y-86894148D01*
X159575434Y-86894148D02*
X159575434Y-86846529D01*
X159575434Y-86846529D02*
X159608767Y-86751291D01*
X159608767Y-86751291D02*
X159675434Y-86703672D01*
X159675434Y-86703672D02*
X159775434Y-86703672D01*
X159775434Y-86703672D02*
X159842101Y-86751291D01*
X160142101Y-86370339D02*
X160142101Y-86560815D01*
X160408768Y-86370339D02*
X160408768Y-86560815D01*
D11*
X145675843Y-93918519D02*
X145800843Y-92918519D01*
X145681795Y-93870900D02*
X145609176Y-93918519D01*
X145609176Y-93918519D02*
X145475843Y-93918519D01*
X145475843Y-93918519D02*
X145415129Y-93870900D01*
X145415129Y-93870900D02*
X145387748Y-93823280D01*
X145387748Y-93823280D02*
X145366319Y-93728042D01*
X145366319Y-93728042D02*
X145402033Y-93442328D01*
X145402033Y-93442328D02*
X145447271Y-93347090D01*
X145447271Y-93347090D02*
X145486557Y-93299471D01*
X145486557Y-93299471D02*
X145559176Y-93251852D01*
X145559176Y-93251852D02*
X145692509Y-93251852D01*
X145692509Y-93251852D02*
X145753224Y-93299471D01*
X146281795Y-93870900D02*
X146209176Y-93918519D01*
X146209176Y-93918519D02*
X146075842Y-93918519D01*
X146075842Y-93918519D02*
X146015128Y-93870900D01*
X146015128Y-93870900D02*
X145993700Y-93775661D01*
X145993700Y-93775661D02*
X146041319Y-93394709D01*
X146041319Y-93394709D02*
X146086557Y-93299471D01*
X146086557Y-93299471D02*
X146159176Y-93251852D01*
X146159176Y-93251852D02*
X146292509Y-93251852D01*
X146292509Y-93251852D02*
X146353223Y-93299471D01*
X146353223Y-93299471D02*
X146374652Y-93394709D01*
X146374652Y-93394709D02*
X146362747Y-93489947D01*
X146362747Y-93489947D02*
X146017509Y-93585185D01*
X146581795Y-93870900D02*
X146642509Y-93918519D01*
X146642509Y-93918519D02*
X146775842Y-93918519D01*
X146775842Y-93918519D02*
X146848462Y-93870900D01*
X146848462Y-93870900D02*
X146893700Y-93775661D01*
X146893700Y-93775661D02*
X146899652Y-93728042D01*
X146899652Y-93728042D02*
X146878223Y-93632804D01*
X146878223Y-93632804D02*
X146817509Y-93585185D01*
X146817509Y-93585185D02*
X146717509Y-93585185D01*
X146717509Y-93585185D02*
X146656795Y-93537566D01*
X146656795Y-93537566D02*
X146635366Y-93442328D01*
X146635366Y-93442328D02*
X146641319Y-93394709D01*
X146641319Y-93394709D02*
X146686557Y-93299471D01*
X146686557Y-93299471D02*
X146759176Y-93251852D01*
X146759176Y-93251852D02*
X146859176Y-93251852D01*
X146859176Y-93251852D02*
X146919890Y-93299471D01*
X147175843Y-93918519D02*
X147259176Y-93251852D01*
X147300843Y-92918519D02*
X147261557Y-92966138D01*
X147261557Y-92966138D02*
X147288938Y-93013757D01*
X147288938Y-93013757D02*
X147328224Y-92966138D01*
X147328224Y-92966138D02*
X147300843Y-92918519D01*
X147300843Y-92918519D02*
X147288938Y-93013757D01*
X147892509Y-93251852D02*
X147791319Y-94061376D01*
X147791319Y-94061376D02*
X147746081Y-94156614D01*
X147746081Y-94156614D02*
X147706795Y-94204233D01*
X147706795Y-94204233D02*
X147634176Y-94251852D01*
X147634176Y-94251852D02*
X147534176Y-94251852D01*
X147534176Y-94251852D02*
X147473462Y-94204233D01*
X147815128Y-93870900D02*
X147742509Y-93918519D01*
X147742509Y-93918519D02*
X147609176Y-93918519D01*
X147609176Y-93918519D02*
X147548462Y-93870900D01*
X147548462Y-93870900D02*
X147521081Y-93823280D01*
X147521081Y-93823280D02*
X147499652Y-93728042D01*
X147499652Y-93728042D02*
X147535366Y-93442328D01*
X147535366Y-93442328D02*
X147580604Y-93347090D01*
X147580604Y-93347090D02*
X147619890Y-93299471D01*
X147619890Y-93299471D02*
X147692509Y-93251852D01*
X147692509Y-93251852D02*
X147825842Y-93251852D01*
X147825842Y-93251852D02*
X147886557Y-93299471D01*
X148225842Y-93251852D02*
X148142509Y-93918519D01*
X148213937Y-93347090D02*
X148253223Y-93299471D01*
X148253223Y-93299471D02*
X148325842Y-93251852D01*
X148325842Y-93251852D02*
X148425842Y-93251852D01*
X148425842Y-93251852D02*
X148486556Y-93299471D01*
X148486556Y-93299471D02*
X148507985Y-93394709D01*
X148507985Y-93394709D02*
X148442509Y-93918519D01*
X149048461Y-93870900D02*
X148975842Y-93918519D01*
X148975842Y-93918519D02*
X148842508Y-93918519D01*
X148842508Y-93918519D02*
X148781794Y-93870900D01*
X148781794Y-93870900D02*
X148760366Y-93775661D01*
X148760366Y-93775661D02*
X148807985Y-93394709D01*
X148807985Y-93394709D02*
X148853223Y-93299471D01*
X148853223Y-93299471D02*
X148925842Y-93251852D01*
X148925842Y-93251852D02*
X149059175Y-93251852D01*
X149059175Y-93251852D02*
X149119889Y-93299471D01*
X149119889Y-93299471D02*
X149141318Y-93394709D01*
X149141318Y-93394709D02*
X149129413Y-93489947D01*
X149129413Y-93489947D02*
X148784175Y-93585185D01*
X149675842Y-93918519D02*
X149800842Y-92918519D01*
X149681794Y-93870900D02*
X149609175Y-93918519D01*
X149609175Y-93918519D02*
X149475842Y-93918519D01*
X149475842Y-93918519D02*
X149415128Y-93870900D01*
X149415128Y-93870900D02*
X149387747Y-93823280D01*
X149387747Y-93823280D02*
X149366318Y-93728042D01*
X149366318Y-93728042D02*
X149402032Y-93442328D01*
X149402032Y-93442328D02*
X149447270Y-93347090D01*
X149447270Y-93347090D02*
X149486556Y-93299471D01*
X149486556Y-93299471D02*
X149559175Y-93251852D01*
X149559175Y-93251852D02*
X149692508Y-93251852D01*
X149692508Y-93251852D02*
X149753223Y-93299471D01*
X150542508Y-93918519D02*
X150667508Y-92918519D01*
X150619889Y-93299471D02*
X150692508Y-93251852D01*
X150692508Y-93251852D02*
X150825841Y-93251852D01*
X150825841Y-93251852D02*
X150886555Y-93299471D01*
X150886555Y-93299471D02*
X150913936Y-93347090D01*
X150913936Y-93347090D02*
X150935365Y-93442328D01*
X150935365Y-93442328D02*
X150899651Y-93728042D01*
X150899651Y-93728042D02*
X150854413Y-93823280D01*
X150854413Y-93823280D02*
X150815127Y-93870900D01*
X150815127Y-93870900D02*
X150742508Y-93918519D01*
X150742508Y-93918519D02*
X150609174Y-93918519D01*
X150609174Y-93918519D02*
X150548460Y-93870900D01*
X151192507Y-93251852D02*
X151275841Y-93918519D01*
X151525841Y-93251852D02*
X151275841Y-93918519D01*
X151275841Y-93918519D02*
X151179412Y-94156614D01*
X151179412Y-94156614D02*
X151140127Y-94204233D01*
X151140127Y-94204233D02*
X151067507Y-94251852D01*
X152325840Y-93251852D02*
X152218697Y-94108995D01*
X152218697Y-94108995D02*
X152173459Y-94204233D01*
X152173459Y-94204233D02*
X152100840Y-94251852D01*
X152100840Y-94251852D02*
X152067507Y-94251852D01*
X152367507Y-92918519D02*
X152328221Y-92966138D01*
X152328221Y-92966138D02*
X152355602Y-93013757D01*
X152355602Y-93013757D02*
X152394888Y-92966138D01*
X152394888Y-92966138D02*
X152367507Y-92918519D01*
X152367507Y-92918519D02*
X152355602Y-93013757D01*
X152959173Y-93251852D02*
X152875840Y-93918519D01*
X152659173Y-93251852D02*
X152593697Y-93775661D01*
X152593697Y-93775661D02*
X152615126Y-93870900D01*
X152615126Y-93870900D02*
X152675840Y-93918519D01*
X152675840Y-93918519D02*
X152775840Y-93918519D01*
X152775840Y-93918519D02*
X152848459Y-93870900D01*
X152848459Y-93870900D02*
X152887745Y-93823280D01*
X153181792Y-93870900D02*
X153242506Y-93918519D01*
X153242506Y-93918519D02*
X153375839Y-93918519D01*
X153375839Y-93918519D02*
X153448459Y-93870900D01*
X153448459Y-93870900D02*
X153493697Y-93775661D01*
X153493697Y-93775661D02*
X153499649Y-93728042D01*
X153499649Y-93728042D02*
X153478220Y-93632804D01*
X153478220Y-93632804D02*
X153417506Y-93585185D01*
X153417506Y-93585185D02*
X153317506Y-93585185D01*
X153317506Y-93585185D02*
X153256792Y-93537566D01*
X153256792Y-93537566D02*
X153235363Y-93442328D01*
X153235363Y-93442328D02*
X153241316Y-93394709D01*
X153241316Y-93394709D02*
X153286554Y-93299471D01*
X153286554Y-93299471D02*
X153359173Y-93251852D01*
X153359173Y-93251852D02*
X153459173Y-93251852D01*
X153459173Y-93251852D02*
X153519887Y-93299471D01*
X153759173Y-93251852D02*
X154025840Y-93251852D01*
X153900840Y-92918519D02*
X153793697Y-93775661D01*
X153793697Y-93775661D02*
X153815126Y-93870900D01*
X153815126Y-93870900D02*
X153875840Y-93918519D01*
X153875840Y-93918519D02*
X153942506Y-93918519D01*
X154175840Y-93918519D02*
X154259173Y-93251852D01*
X154300840Y-92918519D02*
X154261554Y-92966138D01*
X154261554Y-92966138D02*
X154288935Y-93013757D01*
X154288935Y-93013757D02*
X154328221Y-92966138D01*
X154328221Y-92966138D02*
X154300840Y-92918519D01*
X154300840Y-92918519D02*
X154288935Y-93013757D01*
X154592506Y-93251852D02*
X154509173Y-93918519D01*
X154580601Y-93347090D02*
X154619887Y-93299471D01*
X154619887Y-93299471D02*
X154692506Y-93251852D01*
X154692506Y-93251852D02*
X154792506Y-93251852D01*
X154792506Y-93251852D02*
X154853220Y-93299471D01*
X154853220Y-93299471D02*
X154874649Y-93394709D01*
X154874649Y-93394709D02*
X154809173Y-93918519D01*
X155775839Y-93918519D02*
X155715125Y-93870900D01*
X155715125Y-93870900D02*
X155687744Y-93823280D01*
X155687744Y-93823280D02*
X155666315Y-93728042D01*
X155666315Y-93728042D02*
X155702029Y-93442328D01*
X155702029Y-93442328D02*
X155747267Y-93347090D01*
X155747267Y-93347090D02*
X155786553Y-93299471D01*
X155786553Y-93299471D02*
X155859172Y-93251852D01*
X155859172Y-93251852D02*
X155959172Y-93251852D01*
X155959172Y-93251852D02*
X156019886Y-93299471D01*
X156019886Y-93299471D02*
X156047267Y-93347090D01*
X156047267Y-93347090D02*
X156068696Y-93442328D01*
X156068696Y-93442328D02*
X156032982Y-93728042D01*
X156032982Y-93728042D02*
X155987744Y-93823280D01*
X155987744Y-93823280D02*
X155948458Y-93870900D01*
X155948458Y-93870900D02*
X155875839Y-93918519D01*
X155875839Y-93918519D02*
X155775839Y-93918519D01*
X156309172Y-93918519D02*
X156434172Y-92918519D01*
X156609172Y-93918519D02*
X156674648Y-93394709D01*
X156674648Y-93394709D02*
X156653219Y-93299471D01*
X156653219Y-93299471D02*
X156592505Y-93251852D01*
X156592505Y-93251852D02*
X156492505Y-93251852D01*
X156492505Y-93251852D02*
X156419886Y-93299471D01*
X156419886Y-93299471D02*
X156380600Y-93347090D01*
X157459171Y-93251852D02*
X157725838Y-93251852D01*
X157475838Y-93918519D02*
X157582981Y-93061376D01*
X157582981Y-93061376D02*
X157628219Y-92966138D01*
X157628219Y-92966138D02*
X157700838Y-92918519D01*
X157700838Y-92918519D02*
X157767504Y-92918519D01*
X157975838Y-93918519D02*
X157915124Y-93870900D01*
X157915124Y-93870900D02*
X157887743Y-93823280D01*
X157887743Y-93823280D02*
X157866314Y-93728042D01*
X157866314Y-93728042D02*
X157902028Y-93442328D01*
X157902028Y-93442328D02*
X157947266Y-93347090D01*
X157947266Y-93347090D02*
X157986552Y-93299471D01*
X157986552Y-93299471D02*
X158059171Y-93251852D01*
X158059171Y-93251852D02*
X158159171Y-93251852D01*
X158159171Y-93251852D02*
X158219885Y-93299471D01*
X158219885Y-93299471D02*
X158247266Y-93347090D01*
X158247266Y-93347090D02*
X158268695Y-93442328D01*
X158268695Y-93442328D02*
X158232981Y-93728042D01*
X158232981Y-93728042D02*
X158187743Y-93823280D01*
X158187743Y-93823280D02*
X158148457Y-93870900D01*
X158148457Y-93870900D02*
X158075838Y-93918519D01*
X158075838Y-93918519D02*
X157975838Y-93918519D01*
X158509171Y-93918519D02*
X158592504Y-93251852D01*
X158568695Y-93442328D02*
X158613933Y-93347090D01*
X158613933Y-93347090D02*
X158653218Y-93299471D01*
X158653218Y-93299471D02*
X158725837Y-93251852D01*
X158725837Y-93251852D02*
X158792504Y-93251852D01*
X159775837Y-93918519D02*
X159900837Y-92918519D01*
X159781789Y-93870900D02*
X159709170Y-93918519D01*
X159709170Y-93918519D02*
X159575837Y-93918519D01*
X159575837Y-93918519D02*
X159515123Y-93870900D01*
X159515123Y-93870900D02*
X159487742Y-93823280D01*
X159487742Y-93823280D02*
X159466313Y-93728042D01*
X159466313Y-93728042D02*
X159502027Y-93442328D01*
X159502027Y-93442328D02*
X159547265Y-93347090D01*
X159547265Y-93347090D02*
X159586551Y-93299471D01*
X159586551Y-93299471D02*
X159659170Y-93251852D01*
X159659170Y-93251852D02*
X159792503Y-93251852D01*
X159792503Y-93251852D02*
X159853218Y-93299471D01*
X160109170Y-93918519D02*
X160234170Y-92918519D01*
X160186551Y-93299471D02*
X160259170Y-93251852D01*
X160259170Y-93251852D02*
X160392503Y-93251852D01*
X160392503Y-93251852D02*
X160453217Y-93299471D01*
X160453217Y-93299471D02*
X160480598Y-93347090D01*
X160480598Y-93347090D02*
X160502027Y-93442328D01*
X160502027Y-93442328D02*
X160466313Y-93728042D01*
X160466313Y-93728042D02*
X160421075Y-93823280D01*
X160421075Y-93823280D02*
X160381789Y-93870900D01*
X160381789Y-93870900D02*
X160309170Y-93918519D01*
X160309170Y-93918519D02*
X160175836Y-93918519D01*
X160175836Y-93918519D02*
X160115122Y-93870900D01*
X160725836Y-93251852D02*
X160992503Y-93251852D01*
X160742503Y-93918519D02*
X160849646Y-93061376D01*
X160849646Y-93061376D02*
X160894884Y-92966138D01*
X160894884Y-92966138D02*
X160967503Y-92918519D01*
X160967503Y-92918519D02*
X161034169Y-92918519D01*
X162168693Y-93442328D02*
X162141312Y-93394709D01*
X162141312Y-93394709D02*
X162080598Y-93347090D01*
X162080598Y-93347090D02*
X162013931Y-93347090D01*
X162013931Y-93347090D02*
X161941312Y-93394709D01*
X161941312Y-93394709D02*
X161902026Y-93442328D01*
X161902026Y-93442328D02*
X161856788Y-93537566D01*
X161856788Y-93537566D02*
X161844883Y-93632804D01*
X161844883Y-93632804D02*
X161866312Y-93728042D01*
X161866312Y-93728042D02*
X161893693Y-93775661D01*
X161893693Y-93775661D02*
X161954407Y-93823280D01*
X161954407Y-93823280D02*
X162021074Y-93823280D01*
X162021074Y-93823280D02*
X162093693Y-93775661D01*
X162093693Y-93775661D02*
X162132979Y-93728042D01*
X162180598Y-93347090D02*
X162132979Y-93728042D01*
X162132979Y-93728042D02*
X162160360Y-93775661D01*
X162160360Y-93775661D02*
X162193693Y-93775661D01*
X162193693Y-93775661D02*
X162266312Y-93728042D01*
X162266312Y-93728042D02*
X162311550Y-93632804D01*
X162311550Y-93632804D02*
X162341312Y-93394709D01*
X162341312Y-93394709D02*
X162292502Y-93251852D01*
X162292502Y-93251852D02*
X162204407Y-93156614D01*
X162204407Y-93156614D02*
X162077026Y-93108995D01*
X162077026Y-93108995D02*
X161937741Y-93156614D01*
X161937741Y-93156614D02*
X161825836Y-93251852D01*
X161825836Y-93251852D02*
X161741312Y-93394709D01*
X161741312Y-93394709D02*
X161684169Y-93585185D01*
X161684169Y-93585185D02*
X161693693Y-93775661D01*
X161693693Y-93775661D02*
X161742502Y-93918519D01*
X161742502Y-93918519D02*
X161830598Y-94013757D01*
X161830598Y-94013757D02*
X161957979Y-94061376D01*
X161957979Y-94061376D02*
X162097264Y-94013757D01*
X162097264Y-94013757D02*
X162209169Y-93918519D01*
X163492502Y-93251852D02*
X163409169Y-93918519D01*
X163192502Y-93251852D02*
X163127026Y-93775661D01*
X163127026Y-93775661D02*
X163148455Y-93870900D01*
X163148455Y-93870900D02*
X163209169Y-93918519D01*
X163209169Y-93918519D02*
X163309169Y-93918519D01*
X163309169Y-93918519D02*
X163381788Y-93870900D01*
X163381788Y-93870900D02*
X163421074Y-93823280D01*
X164048454Y-93870900D02*
X163975835Y-93918519D01*
X163975835Y-93918519D02*
X163842502Y-93918519D01*
X163842502Y-93918519D02*
X163781788Y-93870900D01*
X163781788Y-93870900D02*
X163754407Y-93823280D01*
X163754407Y-93823280D02*
X163732978Y-93728042D01*
X163732978Y-93728042D02*
X163768692Y-93442328D01*
X163768692Y-93442328D02*
X163813930Y-93347090D01*
X163813930Y-93347090D02*
X163853216Y-93299471D01*
X163853216Y-93299471D02*
X163925835Y-93251852D01*
X163925835Y-93251852D02*
X164059168Y-93251852D01*
X164059168Y-93251852D02*
X164119883Y-93299471D01*
X164442502Y-93918519D02*
X164381788Y-93870900D01*
X164381788Y-93870900D02*
X164360359Y-93775661D01*
X164360359Y-93775661D02*
X164467502Y-92918519D01*
X165009169Y-93918519D02*
X165074645Y-93394709D01*
X165074645Y-93394709D02*
X165053216Y-93299471D01*
X165053216Y-93299471D02*
X164992502Y-93251852D01*
X164992502Y-93251852D02*
X164859169Y-93251852D01*
X164859169Y-93251852D02*
X164786550Y-93299471D01*
X165015121Y-93870900D02*
X164942502Y-93918519D01*
X164942502Y-93918519D02*
X164775835Y-93918519D01*
X164775835Y-93918519D02*
X164715121Y-93870900D01*
X164715121Y-93870900D02*
X164693693Y-93775661D01*
X164693693Y-93775661D02*
X164705597Y-93680423D01*
X164705597Y-93680423D02*
X164750835Y-93585185D01*
X164750835Y-93585185D02*
X164823455Y-93537566D01*
X164823455Y-93537566D02*
X164990121Y-93537566D01*
X164990121Y-93537566D02*
X165062740Y-93489947D01*
D10*
X149908769Y-85720339D02*
X149842103Y-85672720D01*
X149842103Y-85672720D02*
X149808769Y-85625100D01*
X149808769Y-85625100D02*
X149775436Y-85529862D01*
X149775436Y-85529862D02*
X149775436Y-85244148D01*
X149775436Y-85244148D02*
X149808769Y-85148910D01*
X149808769Y-85148910D02*
X149842103Y-85101291D01*
X149842103Y-85101291D02*
X149908769Y-85053672D01*
X149908769Y-85053672D02*
X150008769Y-85053672D01*
X150008769Y-85053672D02*
X150075436Y-85101291D01*
X150075436Y-85101291D02*
X150108769Y-85148910D01*
X150108769Y-85148910D02*
X150142103Y-85244148D01*
X150142103Y-85244148D02*
X150142103Y-85529862D01*
X150142103Y-85529862D02*
X150108769Y-85625100D01*
X150108769Y-85625100D02*
X150075436Y-85672720D01*
X150075436Y-85672720D02*
X150008769Y-85720339D01*
X150008769Y-85720339D02*
X149908769Y-85720339D01*
X150442102Y-85720339D02*
X150442102Y-84720339D01*
X150742102Y-85720339D02*
X150742102Y-85196529D01*
X150742102Y-85196529D02*
X150708769Y-85101291D01*
X150708769Y-85101291D02*
X150642102Y-85053672D01*
X150642102Y-85053672D02*
X150542102Y-85053672D01*
X150542102Y-85053672D02*
X150475436Y-85101291D01*
X150475436Y-85101291D02*
X150442102Y-85148910D01*
X151075435Y-85625100D02*
X151108769Y-85672720D01*
X151108769Y-85672720D02*
X151075435Y-85720339D01*
X151075435Y-85720339D02*
X151042102Y-85672720D01*
X151042102Y-85672720D02*
X151075435Y-85625100D01*
X151075435Y-85625100D02*
X151075435Y-85720339D01*
X151075435Y-85339386D02*
X151042102Y-84767958D01*
X151042102Y-84767958D02*
X151075435Y-84720339D01*
X151075435Y-84720339D02*
X151108769Y-84767958D01*
X151108769Y-84767958D02*
X151075435Y-85339386D01*
X151075435Y-85339386D02*
X151075435Y-84720339D01*
X151942101Y-85720339D02*
X151942101Y-84720339D01*
X152242101Y-85720339D02*
X152242101Y-85196529D01*
X152242101Y-85196529D02*
X152208768Y-85101291D01*
X152208768Y-85101291D02*
X152142101Y-85053672D01*
X152142101Y-85053672D02*
X152042101Y-85053672D01*
X152042101Y-85053672D02*
X151975435Y-85101291D01*
X151975435Y-85101291D02*
X151942101Y-85148910D01*
X152842101Y-85672720D02*
X152775434Y-85720339D01*
X152775434Y-85720339D02*
X152642101Y-85720339D01*
X152642101Y-85720339D02*
X152575434Y-85672720D01*
X152575434Y-85672720D02*
X152542101Y-85577481D01*
X152542101Y-85577481D02*
X152542101Y-85196529D01*
X152542101Y-85196529D02*
X152575434Y-85101291D01*
X152575434Y-85101291D02*
X152642101Y-85053672D01*
X152642101Y-85053672D02*
X152775434Y-85053672D01*
X152775434Y-85053672D02*
X152842101Y-85101291D01*
X152842101Y-85101291D02*
X152875434Y-85196529D01*
X152875434Y-85196529D02*
X152875434Y-85291767D01*
X152875434Y-85291767D02*
X152542101Y-85387005D01*
X153108768Y-85053672D02*
X153275434Y-85720339D01*
X153442101Y-85053672D02*
X153275434Y-85720339D01*
X153275434Y-85720339D02*
X153208768Y-85958434D01*
X153208768Y-85958434D02*
X153175434Y-86006053D01*
X153175434Y-86006053D02*
X153108768Y-86053672D01*
X154175434Y-85053672D02*
X154308767Y-85720339D01*
X154308767Y-85720339D02*
X154442100Y-85244148D01*
X154442100Y-85244148D02*
X154575434Y-85720339D01*
X154575434Y-85720339D02*
X154708767Y-85053672D01*
X155275433Y-85720339D02*
X155275433Y-85196529D01*
X155275433Y-85196529D02*
X155242100Y-85101291D01*
X155242100Y-85101291D02*
X155175433Y-85053672D01*
X155175433Y-85053672D02*
X155042100Y-85053672D01*
X155042100Y-85053672D02*
X154975433Y-85101291D01*
X155275433Y-85672720D02*
X155208767Y-85720339D01*
X155208767Y-85720339D02*
X155042100Y-85720339D01*
X155042100Y-85720339D02*
X154975433Y-85672720D01*
X154975433Y-85672720D02*
X154942100Y-85577481D01*
X154942100Y-85577481D02*
X154942100Y-85482243D01*
X154942100Y-85482243D02*
X154975433Y-85387005D01*
X154975433Y-85387005D02*
X155042100Y-85339386D01*
X155042100Y-85339386D02*
X155208767Y-85339386D01*
X155208767Y-85339386D02*
X155275433Y-85291767D01*
X155608766Y-85053672D02*
X155608766Y-85720339D01*
X155608766Y-85148910D02*
X155642100Y-85101291D01*
X155642100Y-85101291D02*
X155708766Y-85053672D01*
X155708766Y-85053672D02*
X155808766Y-85053672D01*
X155808766Y-85053672D02*
X155875433Y-85101291D01*
X155875433Y-85101291D02*
X155908766Y-85196529D01*
X155908766Y-85196529D02*
X155908766Y-85720339D01*
X156242099Y-85720339D02*
X156242099Y-85053672D01*
X156242099Y-84720339D02*
X156208766Y-84767958D01*
X156208766Y-84767958D02*
X156242099Y-84815577D01*
X156242099Y-84815577D02*
X156275433Y-84767958D01*
X156275433Y-84767958D02*
X156242099Y-84720339D01*
X156242099Y-84720339D02*
X156242099Y-84815577D01*
X156842099Y-85672720D02*
X156775432Y-85720339D01*
X156775432Y-85720339D02*
X156642099Y-85720339D01*
X156642099Y-85720339D02*
X156575432Y-85672720D01*
X156575432Y-85672720D02*
X156542099Y-85577481D01*
X156542099Y-85577481D02*
X156542099Y-85196529D01*
X156542099Y-85196529D02*
X156575432Y-85101291D01*
X156575432Y-85101291D02*
X156642099Y-85053672D01*
X156642099Y-85053672D02*
X156775432Y-85053672D01*
X156775432Y-85053672D02*
X156842099Y-85101291D01*
X156842099Y-85101291D02*
X156875432Y-85196529D01*
X156875432Y-85196529D02*
X156875432Y-85291767D01*
X156875432Y-85291767D02*
X156542099Y-85387005D01*
X157275432Y-85720339D02*
X157208766Y-85672720D01*
X157208766Y-85672720D02*
X157175432Y-85577481D01*
X157175432Y-85577481D02*
X157175432Y-84720339D01*
X148758769Y-89853672D02*
X148758769Y-90520339D01*
X148458769Y-89853672D02*
X148458769Y-90377481D01*
X148458769Y-90377481D02*
X148492103Y-90472720D01*
X148492103Y-90472720D02*
X148558769Y-90520339D01*
X148558769Y-90520339D02*
X148658769Y-90520339D01*
X148658769Y-90520339D02*
X148725436Y-90472720D01*
X148725436Y-90472720D02*
X148758769Y-90425100D01*
X149092102Y-89853672D02*
X149092102Y-90520339D01*
X149092102Y-89948910D02*
X149125436Y-89901291D01*
X149125436Y-89901291D02*
X149192102Y-89853672D01*
X149192102Y-89853672D02*
X149292102Y-89853672D01*
X149292102Y-89853672D02*
X149358769Y-89901291D01*
X149358769Y-89901291D02*
X149392102Y-89996529D01*
X149392102Y-89996529D02*
X149392102Y-90520339D01*
X149625435Y-89853672D02*
X149892102Y-89853672D01*
X149725435Y-89520339D02*
X149725435Y-90377481D01*
X149725435Y-90377481D02*
X149758769Y-90472720D01*
X149758769Y-90472720D02*
X149825435Y-90520339D01*
X149825435Y-90520339D02*
X149892102Y-90520339D01*
X150125435Y-90520339D02*
X150125435Y-89853672D01*
X150125435Y-89520339D02*
X150092102Y-89567958D01*
X150092102Y-89567958D02*
X150125435Y-89615577D01*
X150125435Y-89615577D02*
X150158769Y-89567958D01*
X150158769Y-89567958D02*
X150125435Y-89520339D01*
X150125435Y-89520339D02*
X150125435Y-89615577D01*
X150358768Y-89853672D02*
X150625435Y-89853672D01*
X150458768Y-89520339D02*
X150458768Y-90377481D01*
X150458768Y-90377481D02*
X150492102Y-90472720D01*
X150492102Y-90472720D02*
X150558768Y-90520339D01*
X150558768Y-90520339D02*
X150625435Y-90520339D01*
X150958768Y-90520339D02*
X150892102Y-90472720D01*
X150892102Y-90472720D02*
X150858768Y-90377481D01*
X150858768Y-90377481D02*
X150858768Y-89520339D01*
X151492102Y-90472720D02*
X151425435Y-90520339D01*
X151425435Y-90520339D02*
X151292102Y-90520339D01*
X151292102Y-90520339D02*
X151225435Y-90472720D01*
X151225435Y-90472720D02*
X151192102Y-90377481D01*
X151192102Y-90377481D02*
X151192102Y-89996529D01*
X151192102Y-89996529D02*
X151225435Y-89901291D01*
X151225435Y-89901291D02*
X151292102Y-89853672D01*
X151292102Y-89853672D02*
X151425435Y-89853672D01*
X151425435Y-89853672D02*
X151492102Y-89901291D01*
X151492102Y-89901291D02*
X151525435Y-89996529D01*
X151525435Y-89996529D02*
X151525435Y-90091767D01*
X151525435Y-90091767D02*
X151192102Y-90187005D01*
X152125435Y-90520339D02*
X152125435Y-89520339D01*
X152125435Y-90472720D02*
X152058769Y-90520339D01*
X152058769Y-90520339D02*
X151925435Y-90520339D01*
X151925435Y-90520339D02*
X151858769Y-90472720D01*
X151858769Y-90472720D02*
X151825435Y-90425100D01*
X151825435Y-90425100D02*
X151792102Y-90329862D01*
X151792102Y-90329862D02*
X151792102Y-90044148D01*
X151792102Y-90044148D02*
X151825435Y-89948910D01*
X151825435Y-89948910D02*
X151858769Y-89901291D01*
X151858769Y-89901291D02*
X151925435Y-89853672D01*
X151925435Y-89853672D02*
X152058769Y-89853672D01*
X152058769Y-89853672D02*
X152125435Y-89901291D01*
X153292101Y-90472720D02*
X153225435Y-90520339D01*
X153225435Y-90520339D02*
X153092101Y-90520339D01*
X153092101Y-90520339D02*
X153025435Y-90472720D01*
X153025435Y-90472720D02*
X152992101Y-90425100D01*
X152992101Y-90425100D02*
X152958768Y-90329862D01*
X152958768Y-90329862D02*
X152958768Y-90044148D01*
X152958768Y-90044148D02*
X152992101Y-89948910D01*
X152992101Y-89948910D02*
X153025435Y-89901291D01*
X153025435Y-89901291D02*
X153092101Y-89853672D01*
X153092101Y-89853672D02*
X153225435Y-89853672D01*
X153225435Y-89853672D02*
X153292101Y-89901291D01*
X153558768Y-90472720D02*
X153625435Y-90520339D01*
X153625435Y-90520339D02*
X153758768Y-90520339D01*
X153758768Y-90520339D02*
X153825435Y-90472720D01*
X153825435Y-90472720D02*
X153858768Y-90377481D01*
X153858768Y-90377481D02*
X153858768Y-90329862D01*
X153858768Y-90329862D02*
X153825435Y-90234624D01*
X153825435Y-90234624D02*
X153758768Y-90187005D01*
X153758768Y-90187005D02*
X153658768Y-90187005D01*
X153658768Y-90187005D02*
X153592101Y-90139386D01*
X153592101Y-90139386D02*
X153558768Y-90044148D01*
X153558768Y-90044148D02*
X153558768Y-89996529D01*
X153558768Y-89996529D02*
X153592101Y-89901291D01*
X153592101Y-89901291D02*
X153658768Y-89853672D01*
X153658768Y-89853672D02*
X153758768Y-89853672D01*
X153758768Y-89853672D02*
X153825435Y-89901291D01*
X154092102Y-89853672D02*
X154258768Y-90520339D01*
X154258768Y-90520339D02*
X154425435Y-89853672D01*
X152158769Y-84270339D02*
X152158769Y-83603672D01*
X152158769Y-83270339D02*
X152125436Y-83317958D01*
X152125436Y-83317958D02*
X152158769Y-83365577D01*
X152158769Y-83365577D02*
X152192103Y-83317958D01*
X152192103Y-83317958D02*
X152158769Y-83270339D01*
X152158769Y-83270339D02*
X152158769Y-83365577D01*
X152492102Y-84270339D02*
X152492102Y-83603672D01*
X152492102Y-83794148D02*
X152525436Y-83698910D01*
X152525436Y-83698910D02*
X152558769Y-83651291D01*
X152558769Y-83651291D02*
X152625436Y-83603672D01*
X152625436Y-83603672D02*
X152692102Y-83603672D01*
X153025435Y-84270339D02*
X152958769Y-84222720D01*
X152958769Y-84222720D02*
X152925435Y-84175100D01*
X152925435Y-84175100D02*
X152892102Y-84079862D01*
X152892102Y-84079862D02*
X152892102Y-83794148D01*
X152892102Y-83794148D02*
X152925435Y-83698910D01*
X152925435Y-83698910D02*
X152958769Y-83651291D01*
X152958769Y-83651291D02*
X153025435Y-83603672D01*
X153025435Y-83603672D02*
X153125435Y-83603672D01*
X153125435Y-83603672D02*
X153192102Y-83651291D01*
X153192102Y-83651291D02*
X153225435Y-83698910D01*
X153225435Y-83698910D02*
X153258769Y-83794148D01*
X153258769Y-83794148D02*
X153258769Y-84079862D01*
X153258769Y-84079862D02*
X153225435Y-84175100D01*
X153225435Y-84175100D02*
X153192102Y-84222720D01*
X153192102Y-84222720D02*
X153125435Y-84270339D01*
X153125435Y-84270339D02*
X153025435Y-84270339D01*
X153558768Y-83603672D02*
X153558768Y-84270339D01*
X153558768Y-83698910D02*
X153592102Y-83651291D01*
X153592102Y-83651291D02*
X153658768Y-83603672D01*
X153658768Y-83603672D02*
X153758768Y-83603672D01*
X153758768Y-83603672D02*
X153825435Y-83651291D01*
X153825435Y-83651291D02*
X153858768Y-83746529D01*
X153858768Y-83746529D02*
X153858768Y-84270339D01*
X154658768Y-83270339D02*
X155092101Y-83270339D01*
X155092101Y-83270339D02*
X154858768Y-83651291D01*
X154858768Y-83651291D02*
X154958768Y-83651291D01*
X154958768Y-83651291D02*
X155025434Y-83698910D01*
X155025434Y-83698910D02*
X155058768Y-83746529D01*
X155058768Y-83746529D02*
X155092101Y-83841767D01*
X155092101Y-83841767D02*
X155092101Y-84079862D01*
X155092101Y-84079862D02*
X155058768Y-84175100D01*
X155058768Y-84175100D02*
X155025434Y-84222720D01*
X155025434Y-84222720D02*
X154958768Y-84270339D01*
X154958768Y-84270339D02*
X154758768Y-84270339D01*
X154758768Y-84270339D02*
X154692101Y-84222720D01*
X154692101Y-84222720D02*
X154658768Y-84175100D01*
X156225434Y-84270339D02*
X156225434Y-83270339D01*
X156225434Y-84222720D02*
X156158768Y-84270339D01*
X156158768Y-84270339D02*
X156025434Y-84270339D01*
X156025434Y-84270339D02*
X155958768Y-84222720D01*
X155958768Y-84222720D02*
X155925434Y-84175100D01*
X155925434Y-84175100D02*
X155892101Y-84079862D01*
X155892101Y-84079862D02*
X155892101Y-83794148D01*
X155892101Y-83794148D02*
X155925434Y-83698910D01*
X155925434Y-83698910D02*
X155958768Y-83651291D01*
X155958768Y-83651291D02*
X156025434Y-83603672D01*
X156025434Y-83603672D02*
X156158768Y-83603672D01*
X156158768Y-83603672D02*
X156225434Y-83651291D01*
X156558767Y-84270339D02*
X156558767Y-83270339D01*
X156558767Y-83651291D02*
X156625434Y-83603672D01*
X156625434Y-83603672D02*
X156758767Y-83603672D01*
X156758767Y-83603672D02*
X156825434Y-83651291D01*
X156825434Y-83651291D02*
X156858767Y-83698910D01*
X156858767Y-83698910D02*
X156892101Y-83794148D01*
X156892101Y-83794148D02*
X156892101Y-84079862D01*
X156892101Y-84079862D02*
X156858767Y-84175100D01*
X156858767Y-84175100D02*
X156825434Y-84222720D01*
X156825434Y-84222720D02*
X156758767Y-84270339D01*
X156758767Y-84270339D02*
X156625434Y-84270339D01*
X156625434Y-84270339D02*
X156558767Y-84222720D01*
X157092100Y-83603672D02*
X157358767Y-83603672D01*
X157192100Y-84270339D02*
X157192100Y-83413196D01*
X157192100Y-83413196D02*
X157225434Y-83317958D01*
X157225434Y-83317958D02*
X157292100Y-83270339D01*
X157292100Y-83270339D02*
X157358767Y-83270339D01*
X158025433Y-83603672D02*
X158292100Y-83603672D01*
X158125433Y-83270339D02*
X158125433Y-84127481D01*
X158125433Y-84127481D02*
X158158767Y-84222720D01*
X158158767Y-84222720D02*
X158225433Y-84270339D01*
X158225433Y-84270339D02*
X158292100Y-84270339D01*
X158792100Y-84222720D02*
X158725433Y-84270339D01*
X158725433Y-84270339D02*
X158592100Y-84270339D01*
X158592100Y-84270339D02*
X158525433Y-84222720D01*
X158525433Y-84222720D02*
X158492100Y-84127481D01*
X158492100Y-84127481D02*
X158492100Y-83746529D01*
X158492100Y-83746529D02*
X158525433Y-83651291D01*
X158525433Y-83651291D02*
X158592100Y-83603672D01*
X158592100Y-83603672D02*
X158725433Y-83603672D01*
X158725433Y-83603672D02*
X158792100Y-83651291D01*
X158792100Y-83651291D02*
X158825433Y-83746529D01*
X158825433Y-83746529D02*
X158825433Y-83841767D01*
X158825433Y-83841767D02*
X158492100Y-83937005D01*
X159425433Y-84270339D02*
X159425433Y-83746529D01*
X159425433Y-83746529D02*
X159392100Y-83651291D01*
X159392100Y-83651291D02*
X159325433Y-83603672D01*
X159325433Y-83603672D02*
X159192100Y-83603672D01*
X159192100Y-83603672D02*
X159125433Y-83651291D01*
X159425433Y-84222720D02*
X159358767Y-84270339D01*
X159358767Y-84270339D02*
X159192100Y-84270339D01*
X159192100Y-84270339D02*
X159125433Y-84222720D01*
X159125433Y-84222720D02*
X159092100Y-84127481D01*
X159092100Y-84127481D02*
X159092100Y-84032243D01*
X159092100Y-84032243D02*
X159125433Y-83937005D01*
X159125433Y-83937005D02*
X159192100Y-83889386D01*
X159192100Y-83889386D02*
X159358767Y-83889386D01*
X159358767Y-83889386D02*
X159425433Y-83841767D01*
X159758766Y-84270339D02*
X159758766Y-83603672D01*
X159758766Y-83698910D02*
X159792100Y-83651291D01*
X159792100Y-83651291D02*
X159858766Y-83603672D01*
X159858766Y-83603672D02*
X159958766Y-83603672D01*
X159958766Y-83603672D02*
X160025433Y-83651291D01*
X160025433Y-83651291D02*
X160058766Y-83746529D01*
X160058766Y-83746529D02*
X160058766Y-84270339D01*
X160058766Y-83746529D02*
X160092100Y-83651291D01*
X160092100Y-83651291D02*
X160158766Y-83603672D01*
X160158766Y-83603672D02*
X160258766Y-83603672D01*
X160258766Y-83603672D02*
X160325433Y-83651291D01*
X160325433Y-83651291D02*
X160358766Y-83746529D01*
X160358766Y-83746529D02*
X160358766Y-84270339D01*
X154158769Y-90872720D02*
X153558769Y-92158434D01*
X154358769Y-91872720D02*
X154425436Y-91920339D01*
X154425436Y-91920339D02*
X154558769Y-91920339D01*
X154558769Y-91920339D02*
X154625436Y-91872720D01*
X154625436Y-91872720D02*
X154658769Y-91777481D01*
X154658769Y-91777481D02*
X154658769Y-91729862D01*
X154658769Y-91729862D02*
X154625436Y-91634624D01*
X154625436Y-91634624D02*
X154558769Y-91587005D01*
X154558769Y-91587005D02*
X154458769Y-91587005D01*
X154458769Y-91587005D02*
X154392102Y-91539386D01*
X154392102Y-91539386D02*
X154358769Y-91444148D01*
X154358769Y-91444148D02*
X154358769Y-91396529D01*
X154358769Y-91396529D02*
X154392102Y-91301291D01*
X154392102Y-91301291D02*
X154458769Y-91253672D01*
X154458769Y-91253672D02*
X154558769Y-91253672D01*
X154558769Y-91253672D02*
X154625436Y-91301291D01*
X155225436Y-91872720D02*
X155158769Y-91920339D01*
X155158769Y-91920339D02*
X155025436Y-91920339D01*
X155025436Y-91920339D02*
X154958769Y-91872720D01*
X154958769Y-91872720D02*
X154925436Y-91777481D01*
X154925436Y-91777481D02*
X154925436Y-91396529D01*
X154925436Y-91396529D02*
X154958769Y-91301291D01*
X154958769Y-91301291D02*
X155025436Y-91253672D01*
X155025436Y-91253672D02*
X155158769Y-91253672D01*
X155158769Y-91253672D02*
X155225436Y-91301291D01*
X155225436Y-91301291D02*
X155258769Y-91396529D01*
X155258769Y-91396529D02*
X155258769Y-91491767D01*
X155258769Y-91491767D02*
X154925436Y-91587005D01*
X155558769Y-91920339D02*
X155558769Y-91253672D01*
X155558769Y-91444148D02*
X155592103Y-91348910D01*
X155592103Y-91348910D02*
X155625436Y-91301291D01*
X155625436Y-91301291D02*
X155692103Y-91253672D01*
X155692103Y-91253672D02*
X155758769Y-91253672D01*
X155992102Y-91920339D02*
X155992102Y-91253672D01*
X155992102Y-90920339D02*
X155958769Y-90967958D01*
X155958769Y-90967958D02*
X155992102Y-91015577D01*
X155992102Y-91015577D02*
X156025436Y-90967958D01*
X156025436Y-90967958D02*
X155992102Y-90920339D01*
X155992102Y-90920339D02*
X155992102Y-91015577D01*
X156425435Y-91920339D02*
X156358769Y-91872720D01*
X156358769Y-91872720D02*
X156325435Y-91825100D01*
X156325435Y-91825100D02*
X156292102Y-91729862D01*
X156292102Y-91729862D02*
X156292102Y-91444148D01*
X156292102Y-91444148D02*
X156325435Y-91348910D01*
X156325435Y-91348910D02*
X156358769Y-91301291D01*
X156358769Y-91301291D02*
X156425435Y-91253672D01*
X156425435Y-91253672D02*
X156525435Y-91253672D01*
X156525435Y-91253672D02*
X156592102Y-91301291D01*
X156592102Y-91301291D02*
X156625435Y-91348910D01*
X156625435Y-91348910D02*
X156658769Y-91444148D01*
X156658769Y-91444148D02*
X156658769Y-91729862D01*
X156658769Y-91729862D02*
X156625435Y-91825100D01*
X156625435Y-91825100D02*
X156592102Y-91872720D01*
X156592102Y-91872720D02*
X156525435Y-91920339D01*
X156525435Y-91920339D02*
X156425435Y-91920339D01*
X157258768Y-91253672D02*
X157258768Y-91920339D01*
X156958768Y-91253672D02*
X156958768Y-91777481D01*
X156958768Y-91777481D02*
X156992102Y-91872720D01*
X156992102Y-91872720D02*
X157058768Y-91920339D01*
X157058768Y-91920339D02*
X157158768Y-91920339D01*
X157158768Y-91920339D02*
X157225435Y-91872720D01*
X157225435Y-91872720D02*
X157258768Y-91825100D01*
X157558768Y-91872720D02*
X157625435Y-91920339D01*
X157625435Y-91920339D02*
X157758768Y-91920339D01*
X157758768Y-91920339D02*
X157825435Y-91872720D01*
X157825435Y-91872720D02*
X157858768Y-91777481D01*
X157858768Y-91777481D02*
X157858768Y-91729862D01*
X157858768Y-91729862D02*
X157825435Y-91634624D01*
X157825435Y-91634624D02*
X157758768Y-91587005D01*
X157758768Y-91587005D02*
X157658768Y-91587005D01*
X157658768Y-91587005D02*
X157592101Y-91539386D01*
X157592101Y-91539386D02*
X157558768Y-91444148D01*
X157558768Y-91444148D02*
X157558768Y-91396529D01*
X157558768Y-91396529D02*
X157592101Y-91301291D01*
X157592101Y-91301291D02*
X157658768Y-91253672D01*
X157658768Y-91253672D02*
X157758768Y-91253672D01*
X157758768Y-91253672D02*
X157825435Y-91301291D01*
X158992101Y-91253672D02*
X158992101Y-92063196D01*
X158992101Y-92063196D02*
X158958768Y-92158434D01*
X158958768Y-92158434D02*
X158925435Y-92206053D01*
X158925435Y-92206053D02*
X158858768Y-92253672D01*
X158858768Y-92253672D02*
X158758768Y-92253672D01*
X158758768Y-92253672D02*
X158692101Y-92206053D01*
X158992101Y-91872720D02*
X158925435Y-91920339D01*
X158925435Y-91920339D02*
X158792101Y-91920339D01*
X158792101Y-91920339D02*
X158725435Y-91872720D01*
X158725435Y-91872720D02*
X158692101Y-91825100D01*
X158692101Y-91825100D02*
X158658768Y-91729862D01*
X158658768Y-91729862D02*
X158658768Y-91444148D01*
X158658768Y-91444148D02*
X158692101Y-91348910D01*
X158692101Y-91348910D02*
X158725435Y-91301291D01*
X158725435Y-91301291D02*
X158792101Y-91253672D01*
X158792101Y-91253672D02*
X158925435Y-91253672D01*
X158925435Y-91253672D02*
X158992101Y-91301291D01*
X159625434Y-91253672D02*
X159625434Y-91920339D01*
X159325434Y-91253672D02*
X159325434Y-91777481D01*
X159325434Y-91777481D02*
X159358768Y-91872720D01*
X159358768Y-91872720D02*
X159425434Y-91920339D01*
X159425434Y-91920339D02*
X159525434Y-91920339D01*
X159525434Y-91920339D02*
X159592101Y-91872720D01*
X159592101Y-91872720D02*
X159625434Y-91825100D01*
X159892101Y-91253672D02*
X160058767Y-91920339D01*
X160225434Y-91253672D02*
X160058767Y-91920339D01*
X160058767Y-91920339D02*
X159992101Y-92158434D01*
X159992101Y-92158434D02*
X159958767Y-92206053D01*
X159958767Y-92206053D02*
X159892101Y-92253672D01*
X160458767Y-91872720D02*
X160525434Y-91920339D01*
X160525434Y-91920339D02*
X160658767Y-91920339D01*
X160658767Y-91920339D02*
X160725434Y-91872720D01*
X160725434Y-91872720D02*
X160758767Y-91777481D01*
X160758767Y-91777481D02*
X160758767Y-91729862D01*
X160758767Y-91729862D02*
X160725434Y-91634624D01*
X160725434Y-91634624D02*
X160658767Y-91587005D01*
X160658767Y-91587005D02*
X160558767Y-91587005D01*
X160558767Y-91587005D02*
X160492100Y-91539386D01*
X160492100Y-91539386D02*
X160458767Y-91444148D01*
X160458767Y-91444148D02*
X160458767Y-91396529D01*
X160458767Y-91396529D02*
X160492100Y-91301291D01*
X160492100Y-91301291D02*
X160558767Y-91253672D01*
X160558767Y-91253672D02*
X160658767Y-91253672D01*
X160658767Y-91253672D02*
X160725434Y-91301291D01*
X149558769Y-82670339D02*
X149492103Y-82622720D01*
X149492103Y-82622720D02*
X149458769Y-82527481D01*
X149458769Y-82527481D02*
X149458769Y-81670339D01*
X149925436Y-82670339D02*
X149858770Y-82622720D01*
X149858770Y-82622720D02*
X149825436Y-82575100D01*
X149825436Y-82575100D02*
X149792103Y-82479862D01*
X149792103Y-82479862D02*
X149792103Y-82194148D01*
X149792103Y-82194148D02*
X149825436Y-82098910D01*
X149825436Y-82098910D02*
X149858770Y-82051291D01*
X149858770Y-82051291D02*
X149925436Y-82003672D01*
X149925436Y-82003672D02*
X150025436Y-82003672D01*
X150025436Y-82003672D02*
X150092103Y-82051291D01*
X150092103Y-82051291D02*
X150125436Y-82098910D01*
X150125436Y-82098910D02*
X150158770Y-82194148D01*
X150158770Y-82194148D02*
X150158770Y-82479862D01*
X150158770Y-82479862D02*
X150125436Y-82575100D01*
X150125436Y-82575100D02*
X150092103Y-82622720D01*
X150092103Y-82622720D02*
X150025436Y-82670339D01*
X150025436Y-82670339D02*
X149925436Y-82670339D01*
X150392103Y-82003672D02*
X150525436Y-82670339D01*
X150525436Y-82670339D02*
X150658769Y-82194148D01*
X150658769Y-82194148D02*
X150792103Y-82670339D01*
X150792103Y-82670339D02*
X150925436Y-82003672D01*
X151192102Y-82003672D02*
X151192102Y-83003672D01*
X151192102Y-82051291D02*
X151258769Y-82003672D01*
X151258769Y-82003672D02*
X151392102Y-82003672D01*
X151392102Y-82003672D02*
X151458769Y-82051291D01*
X151458769Y-82051291D02*
X151492102Y-82098910D01*
X151492102Y-82098910D02*
X151525436Y-82194148D01*
X151525436Y-82194148D02*
X151525436Y-82479862D01*
X151525436Y-82479862D02*
X151492102Y-82575100D01*
X151492102Y-82575100D02*
X151458769Y-82622720D01*
X151458769Y-82622720D02*
X151392102Y-82670339D01*
X151392102Y-82670339D02*
X151258769Y-82670339D01*
X151258769Y-82670339D02*
X151192102Y-82622720D01*
X152125435Y-82670339D02*
X152125435Y-82146529D01*
X152125435Y-82146529D02*
X152092102Y-82051291D01*
X152092102Y-82051291D02*
X152025435Y-82003672D01*
X152025435Y-82003672D02*
X151892102Y-82003672D01*
X151892102Y-82003672D02*
X151825435Y-82051291D01*
X152125435Y-82622720D02*
X152058769Y-82670339D01*
X152058769Y-82670339D02*
X151892102Y-82670339D01*
X151892102Y-82670339D02*
X151825435Y-82622720D01*
X151825435Y-82622720D02*
X151792102Y-82527481D01*
X151792102Y-82527481D02*
X151792102Y-82432243D01*
X151792102Y-82432243D02*
X151825435Y-82337005D01*
X151825435Y-82337005D02*
X151892102Y-82289386D01*
X151892102Y-82289386D02*
X152058769Y-82289386D01*
X152058769Y-82289386D02*
X152125435Y-82241767D01*
X152425435Y-82622720D02*
X152492102Y-82670339D01*
X152492102Y-82670339D02*
X152625435Y-82670339D01*
X152625435Y-82670339D02*
X152692102Y-82622720D01*
X152692102Y-82622720D02*
X152725435Y-82527481D01*
X152725435Y-82527481D02*
X152725435Y-82479862D01*
X152725435Y-82479862D02*
X152692102Y-82384624D01*
X152692102Y-82384624D02*
X152625435Y-82337005D01*
X152625435Y-82337005D02*
X152525435Y-82337005D01*
X152525435Y-82337005D02*
X152458768Y-82289386D01*
X152458768Y-82289386D02*
X152425435Y-82194148D01*
X152425435Y-82194148D02*
X152425435Y-82146529D01*
X152425435Y-82146529D02*
X152458768Y-82051291D01*
X152458768Y-82051291D02*
X152525435Y-82003672D01*
X152525435Y-82003672D02*
X152625435Y-82003672D01*
X152625435Y-82003672D02*
X152692102Y-82051291D01*
X152992102Y-82622720D02*
X153058769Y-82670339D01*
X153058769Y-82670339D02*
X153192102Y-82670339D01*
X153192102Y-82670339D02*
X153258769Y-82622720D01*
X153258769Y-82622720D02*
X153292102Y-82527481D01*
X153292102Y-82527481D02*
X153292102Y-82479862D01*
X153292102Y-82479862D02*
X153258769Y-82384624D01*
X153258769Y-82384624D02*
X153192102Y-82337005D01*
X153192102Y-82337005D02*
X153092102Y-82337005D01*
X153092102Y-82337005D02*
X153025435Y-82289386D01*
X153025435Y-82289386D02*
X152992102Y-82194148D01*
X152992102Y-82194148D02*
X152992102Y-82146529D01*
X152992102Y-82146529D02*
X153025435Y-82051291D01*
X153025435Y-82051291D02*
X153092102Y-82003672D01*
X153092102Y-82003672D02*
X153192102Y-82003672D01*
X153192102Y-82003672D02*
X153258769Y-82051291D01*
X154025435Y-82003672D02*
X154292102Y-82003672D01*
X154125435Y-82670339D02*
X154125435Y-81813196D01*
X154125435Y-81813196D02*
X154158769Y-81717958D01*
X154158769Y-81717958D02*
X154225435Y-81670339D01*
X154225435Y-81670339D02*
X154292102Y-81670339D01*
X154525435Y-82670339D02*
X154525435Y-82003672D01*
X154525435Y-81670339D02*
X154492102Y-81717958D01*
X154492102Y-81717958D02*
X154525435Y-81765577D01*
X154525435Y-81765577D02*
X154558769Y-81717958D01*
X154558769Y-81717958D02*
X154525435Y-81670339D01*
X154525435Y-81670339D02*
X154525435Y-81765577D01*
X154958768Y-82670339D02*
X154892102Y-82622720D01*
X154892102Y-82622720D02*
X154858768Y-82527481D01*
X154858768Y-82527481D02*
X154858768Y-81670339D01*
X155125435Y-82003672D02*
X155392102Y-82003672D01*
X155225435Y-81670339D02*
X155225435Y-82527481D01*
X155225435Y-82527481D02*
X155258769Y-82622720D01*
X155258769Y-82622720D02*
X155325435Y-82670339D01*
X155325435Y-82670339D02*
X155392102Y-82670339D01*
X155892102Y-82622720D02*
X155825435Y-82670339D01*
X155825435Y-82670339D02*
X155692102Y-82670339D01*
X155692102Y-82670339D02*
X155625435Y-82622720D01*
X155625435Y-82622720D02*
X155592102Y-82527481D01*
X155592102Y-82527481D02*
X155592102Y-82146529D01*
X155592102Y-82146529D02*
X155625435Y-82051291D01*
X155625435Y-82051291D02*
X155692102Y-82003672D01*
X155692102Y-82003672D02*
X155825435Y-82003672D01*
X155825435Y-82003672D02*
X155892102Y-82051291D01*
X155892102Y-82051291D02*
X155925435Y-82146529D01*
X155925435Y-82146529D02*
X155925435Y-82241767D01*
X155925435Y-82241767D02*
X155592102Y-82337005D01*
X156225435Y-82670339D02*
X156225435Y-82003672D01*
X156225435Y-82194148D02*
X156258769Y-82098910D01*
X156258769Y-82098910D02*
X156292102Y-82051291D01*
X156292102Y-82051291D02*
X156358769Y-82003672D01*
X156358769Y-82003672D02*
X156425435Y-82003672D01*
X148358769Y-81170339D02*
X148358769Y-80170339D01*
X148592102Y-80170339D02*
X148992102Y-80170339D01*
X148792102Y-81170339D02*
X148792102Y-80170339D01*
X149192102Y-81122720D02*
X149292102Y-81170339D01*
X149292102Y-81170339D02*
X149458769Y-81170339D01*
X149458769Y-81170339D02*
X149525435Y-81122720D01*
X149525435Y-81122720D02*
X149558769Y-81075100D01*
X149558769Y-81075100D02*
X149592102Y-80979862D01*
X149592102Y-80979862D02*
X149592102Y-80884624D01*
X149592102Y-80884624D02*
X149558769Y-80789386D01*
X149558769Y-80789386D02*
X149525435Y-80741767D01*
X149525435Y-80741767D02*
X149458769Y-80694148D01*
X149458769Y-80694148D02*
X149325435Y-80646529D01*
X149325435Y-80646529D02*
X149258769Y-80598910D01*
X149258769Y-80598910D02*
X149225435Y-80551291D01*
X149225435Y-80551291D02*
X149192102Y-80456053D01*
X149192102Y-80456053D02*
X149192102Y-80360815D01*
X149192102Y-80360815D02*
X149225435Y-80265577D01*
X149225435Y-80265577D02*
X149258769Y-80217958D01*
X149258769Y-80217958D02*
X149325435Y-80170339D01*
X149325435Y-80170339D02*
X149492102Y-80170339D01*
X149492102Y-80170339D02*
X149592102Y-80217958D01*
X150392102Y-81122720D02*
X150492102Y-81170339D01*
X150492102Y-81170339D02*
X150658769Y-81170339D01*
X150658769Y-81170339D02*
X150725435Y-81122720D01*
X150725435Y-81122720D02*
X150758769Y-81075100D01*
X150758769Y-81075100D02*
X150792102Y-80979862D01*
X150792102Y-80979862D02*
X150792102Y-80884624D01*
X150792102Y-80884624D02*
X150758769Y-80789386D01*
X150758769Y-80789386D02*
X150725435Y-80741767D01*
X150725435Y-80741767D02*
X150658769Y-80694148D01*
X150658769Y-80694148D02*
X150525435Y-80646529D01*
X150525435Y-80646529D02*
X150458769Y-80598910D01*
X150458769Y-80598910D02*
X150425435Y-80551291D01*
X150425435Y-80551291D02*
X150392102Y-80456053D01*
X150392102Y-80456053D02*
X150392102Y-80360815D01*
X150392102Y-80360815D02*
X150425435Y-80265577D01*
X150425435Y-80265577D02*
X150458769Y-80217958D01*
X150458769Y-80217958D02*
X150525435Y-80170339D01*
X150525435Y-80170339D02*
X150692102Y-80170339D01*
X150692102Y-80170339D02*
X150792102Y-80217958D01*
X151092102Y-81170339D02*
X151092102Y-80170339D01*
X151092102Y-80170339D02*
X151325436Y-80884624D01*
X151325436Y-80884624D02*
X151558769Y-80170339D01*
X151558769Y-80170339D02*
X151558769Y-81170339D01*
X152025436Y-80170339D02*
X152158769Y-80170339D01*
X152158769Y-80170339D02*
X152225436Y-80217958D01*
X152225436Y-80217958D02*
X152292102Y-80313196D01*
X152292102Y-80313196D02*
X152325436Y-80503672D01*
X152325436Y-80503672D02*
X152325436Y-80837005D01*
X152325436Y-80837005D02*
X152292102Y-81027481D01*
X152292102Y-81027481D02*
X152225436Y-81122720D01*
X152225436Y-81122720D02*
X152158769Y-81170339D01*
X152158769Y-81170339D02*
X152025436Y-81170339D01*
X152025436Y-81170339D02*
X151958769Y-81122720D01*
X151958769Y-81122720D02*
X151892102Y-81027481D01*
X151892102Y-81027481D02*
X151858769Y-80837005D01*
X151858769Y-80837005D02*
X151858769Y-80503672D01*
X151858769Y-80503672D02*
X151892102Y-80313196D01*
X151892102Y-80313196D02*
X151958769Y-80217958D01*
X151958769Y-80217958D02*
X152025436Y-80170339D01*
X152625435Y-81170339D02*
X152625435Y-80170339D01*
X153025435Y-81170339D02*
X152725435Y-80598910D01*
X153025435Y-80170339D02*
X152625435Y-80741767D01*
X153325435Y-81170339D02*
X153325435Y-80170339D01*
X153658768Y-81170339D02*
X153658768Y-80170339D01*
X153658768Y-80170339D02*
X154058768Y-81170339D01*
X154058768Y-81170339D02*
X154058768Y-80170339D01*
X154758768Y-80217958D02*
X154692101Y-80170339D01*
X154692101Y-80170339D02*
X154592101Y-80170339D01*
X154592101Y-80170339D02*
X154492101Y-80217958D01*
X154492101Y-80217958D02*
X154425435Y-80313196D01*
X154425435Y-80313196D02*
X154392101Y-80408434D01*
X154392101Y-80408434D02*
X154358768Y-80598910D01*
X154358768Y-80598910D02*
X154358768Y-80741767D01*
X154358768Y-80741767D02*
X154392101Y-80932243D01*
X154392101Y-80932243D02*
X154425435Y-81027481D01*
X154425435Y-81027481D02*
X154492101Y-81122720D01*
X154492101Y-81122720D02*
X154592101Y-81170339D01*
X154592101Y-81170339D02*
X154658768Y-81170339D01*
X154658768Y-81170339D02*
X154758768Y-81122720D01*
X154758768Y-81122720D02*
X154792101Y-81075100D01*
X154792101Y-81075100D02*
X154792101Y-80741767D01*
X154792101Y-80741767D02*
X154658768Y-80741767D01*
X155625434Y-81170339D02*
X155625434Y-80170339D01*
X155858767Y-80170339D02*
X156258767Y-80170339D01*
X156058767Y-81170339D02*
X156058767Y-80170339D01*
X156458767Y-81122720D02*
X156558767Y-81170339D01*
X156558767Y-81170339D02*
X156725434Y-81170339D01*
X156725434Y-81170339D02*
X156792100Y-81122720D01*
X156792100Y-81122720D02*
X156825434Y-81075100D01*
X156825434Y-81075100D02*
X156858767Y-80979862D01*
X156858767Y-80979862D02*
X156858767Y-80884624D01*
X156858767Y-80884624D02*
X156825434Y-80789386D01*
X156825434Y-80789386D02*
X156792100Y-80741767D01*
X156792100Y-80741767D02*
X156725434Y-80694148D01*
X156725434Y-80694148D02*
X156592100Y-80646529D01*
X156592100Y-80646529D02*
X156525434Y-80598910D01*
X156525434Y-80598910D02*
X156492100Y-80551291D01*
X156492100Y-80551291D02*
X156458767Y-80456053D01*
X156458767Y-80456053D02*
X156458767Y-80360815D01*
X156458767Y-80360815D02*
X156492100Y-80265577D01*
X156492100Y-80265577D02*
X156525434Y-80217958D01*
X156525434Y-80217958D02*
X156592100Y-80170339D01*
X156592100Y-80170339D02*
X156758767Y-80170339D01*
X156758767Y-80170339D02*
X156858767Y-80217958D01*
X157658767Y-81122720D02*
X157758767Y-81170339D01*
X157758767Y-81170339D02*
X157925434Y-81170339D01*
X157925434Y-81170339D02*
X157992100Y-81122720D01*
X157992100Y-81122720D02*
X158025434Y-81075100D01*
X158025434Y-81075100D02*
X158058767Y-80979862D01*
X158058767Y-80979862D02*
X158058767Y-80884624D01*
X158058767Y-80884624D02*
X158025434Y-80789386D01*
X158025434Y-80789386D02*
X157992100Y-80741767D01*
X157992100Y-80741767D02*
X157925434Y-80694148D01*
X157925434Y-80694148D02*
X157792100Y-80646529D01*
X157792100Y-80646529D02*
X157725434Y-80598910D01*
X157725434Y-80598910D02*
X157692100Y-80551291D01*
X157692100Y-80551291D02*
X157658767Y-80456053D01*
X157658767Y-80456053D02*
X157658767Y-80360815D01*
X157658767Y-80360815D02*
X157692100Y-80265577D01*
X157692100Y-80265577D02*
X157725434Y-80217958D01*
X157725434Y-80217958D02*
X157792100Y-80170339D01*
X157792100Y-80170339D02*
X157958767Y-80170339D01*
X157958767Y-80170339D02*
X158058767Y-80217958D01*
X158358767Y-81170339D02*
X158358767Y-80170339D01*
X158358767Y-80170339D02*
X158592101Y-80884624D01*
X158592101Y-80884624D02*
X158825434Y-80170339D01*
X158825434Y-80170339D02*
X158825434Y-81170339D01*
X159292101Y-80170339D02*
X159425434Y-80170339D01*
X159425434Y-80170339D02*
X159492101Y-80217958D01*
X159492101Y-80217958D02*
X159558767Y-80313196D01*
X159558767Y-80313196D02*
X159592101Y-80503672D01*
X159592101Y-80503672D02*
X159592101Y-80837005D01*
X159592101Y-80837005D02*
X159558767Y-81027481D01*
X159558767Y-81027481D02*
X159492101Y-81122720D01*
X159492101Y-81122720D02*
X159425434Y-81170339D01*
X159425434Y-81170339D02*
X159292101Y-81170339D01*
X159292101Y-81170339D02*
X159225434Y-81122720D01*
X159225434Y-81122720D02*
X159158767Y-81027481D01*
X159158767Y-81027481D02*
X159125434Y-80837005D01*
X159125434Y-80837005D02*
X159125434Y-80503672D01*
X159125434Y-80503672D02*
X159158767Y-80313196D01*
X159158767Y-80313196D02*
X159225434Y-80217958D01*
X159225434Y-80217958D02*
X159292101Y-80170339D01*
X159892100Y-81170339D02*
X159892100Y-80170339D01*
X160292100Y-81170339D02*
X159992100Y-80598910D01*
X160292100Y-80170339D02*
X159892100Y-80741767D01*
X160592100Y-81170339D02*
X160592100Y-80170339D01*
X160925433Y-81170339D02*
X160925433Y-80170339D01*
X160925433Y-80170339D02*
X161325433Y-81170339D01*
X161325433Y-81170339D02*
X161325433Y-80170339D01*
X162025433Y-80217958D02*
X161958766Y-80170339D01*
X161958766Y-80170339D02*
X161858766Y-80170339D01*
X161858766Y-80170339D02*
X161758766Y-80217958D01*
X161758766Y-80217958D02*
X161692100Y-80313196D01*
X161692100Y-80313196D02*
X161658766Y-80408434D01*
X161658766Y-80408434D02*
X161625433Y-80598910D01*
X161625433Y-80598910D02*
X161625433Y-80741767D01*
X161625433Y-80741767D02*
X161658766Y-80932243D01*
X161658766Y-80932243D02*
X161692100Y-81027481D01*
X161692100Y-81027481D02*
X161758766Y-81122720D01*
X161758766Y-81122720D02*
X161858766Y-81170339D01*
X161858766Y-81170339D02*
X161925433Y-81170339D01*
X161925433Y-81170339D02*
X162025433Y-81122720D01*
X162025433Y-81122720D02*
X162058766Y-81075100D01*
X162058766Y-81075100D02*
X162058766Y-80741767D01*
X162058766Y-80741767D02*
X161925433Y-80741767D01*
D12*
X155503809Y-73756819D02*
X155503809Y-72756819D01*
X155503809Y-72756819D02*
X155741904Y-72756819D01*
X155741904Y-72756819D02*
X155884761Y-72804438D01*
X155884761Y-72804438D02*
X155979999Y-72899676D01*
X155979999Y-72899676D02*
X156027618Y-72994914D01*
X156027618Y-72994914D02*
X156075237Y-73185390D01*
X156075237Y-73185390D02*
X156075237Y-73328247D01*
X156075237Y-73328247D02*
X156027618Y-73518723D01*
X156027618Y-73518723D02*
X155979999Y-73613961D01*
X155979999Y-73613961D02*
X155884761Y-73709200D01*
X155884761Y-73709200D02*
X155741904Y-73756819D01*
X155741904Y-73756819D02*
X155503809Y-73756819D01*
X156456190Y-73471104D02*
X156932380Y-73471104D01*
X156360952Y-73756819D02*
X156694285Y-72756819D01*
X156694285Y-72756819D02*
X157027618Y-73756819D01*
X157218095Y-72756819D02*
X157789523Y-72756819D01*
X157503809Y-73756819D02*
X157503809Y-72756819D01*
X158075238Y-73471104D02*
X158551428Y-73471104D01*
X157980000Y-73756819D02*
X158313333Y-72756819D01*
X158313333Y-72756819D02*
X158646666Y-73756819D01*
X158932381Y-72852057D02*
X158980000Y-72804438D01*
X158980000Y-72804438D02*
X159075238Y-72756819D01*
X159075238Y-72756819D02*
X159313333Y-72756819D01*
X159313333Y-72756819D02*
X159408571Y-72804438D01*
X159408571Y-72804438D02*
X159456190Y-72852057D01*
X159456190Y-72852057D02*
X159503809Y-72947295D01*
X159503809Y-72947295D02*
X159503809Y-73042533D01*
X159503809Y-73042533D02*
X159456190Y-73185390D01*
X159456190Y-73185390D02*
X158884762Y-73756819D01*
X158884762Y-73756819D02*
X159503809Y-73756819D01*
X151209524Y-72756819D02*
X151542857Y-73756819D01*
X151542857Y-73756819D02*
X151876190Y-72756819D01*
X152161905Y-73471104D02*
X152638095Y-73471104D01*
X152066667Y-73756819D02*
X152400000Y-72756819D01*
X152400000Y-72756819D02*
X152733333Y-73756819D01*
X152923810Y-72756819D02*
X153257143Y-73756819D01*
X153257143Y-73756819D02*
X153590476Y-72756819D01*
X151638095Y-100646438D02*
X151542857Y-100598819D01*
X151542857Y-100598819D02*
X151400000Y-100598819D01*
X151400000Y-100598819D02*
X151257143Y-100646438D01*
X151257143Y-100646438D02*
X151161905Y-100741676D01*
X151161905Y-100741676D02*
X151114286Y-100836914D01*
X151114286Y-100836914D02*
X151066667Y-101027390D01*
X151066667Y-101027390D02*
X151066667Y-101170247D01*
X151066667Y-101170247D02*
X151114286Y-101360723D01*
X151114286Y-101360723D02*
X151161905Y-101455961D01*
X151161905Y-101455961D02*
X151257143Y-101551200D01*
X151257143Y-101551200D02*
X151400000Y-101598819D01*
X151400000Y-101598819D02*
X151495238Y-101598819D01*
X151495238Y-101598819D02*
X151638095Y-101551200D01*
X151638095Y-101551200D02*
X151685714Y-101503580D01*
X151685714Y-101503580D02*
X151685714Y-101170247D01*
X151685714Y-101170247D02*
X151495238Y-101170247D01*
X152114286Y-101598819D02*
X152114286Y-100598819D01*
X152114286Y-100598819D02*
X152685714Y-101598819D01*
X152685714Y-101598819D02*
X152685714Y-100598819D01*
X153161905Y-101598819D02*
X153161905Y-100598819D01*
X153161905Y-100598819D02*
X153400000Y-100598819D01*
X153400000Y-100598819D02*
X153542857Y-100646438D01*
X153542857Y-100646438D02*
X153638095Y-100741676D01*
X153638095Y-100741676D02*
X153685714Y-100836914D01*
X153685714Y-100836914D02*
X153733333Y-101027390D01*
X153733333Y-101027390D02*
X153733333Y-101170247D01*
X153733333Y-101170247D02*
X153685714Y-101360723D01*
X153685714Y-101360723D02*
X153638095Y-101455961D01*
X153638095Y-101455961D02*
X153542857Y-101551200D01*
X153542857Y-101551200D02*
X153400000Y-101598819D01*
X153400000Y-101598819D02*
X153161905Y-101598819D01*
X155503809Y-101598819D02*
X155503809Y-100598819D01*
X155503809Y-100598819D02*
X155741904Y-100598819D01*
X155741904Y-100598819D02*
X155884761Y-100646438D01*
X155884761Y-100646438D02*
X155979999Y-100741676D01*
X155979999Y-100741676D02*
X156027618Y-100836914D01*
X156027618Y-100836914D02*
X156075237Y-101027390D01*
X156075237Y-101027390D02*
X156075237Y-101170247D01*
X156075237Y-101170247D02*
X156027618Y-101360723D01*
X156027618Y-101360723D02*
X155979999Y-101455961D01*
X155979999Y-101455961D02*
X155884761Y-101551200D01*
X155884761Y-101551200D02*
X155741904Y-101598819D01*
X155741904Y-101598819D02*
X155503809Y-101598819D01*
X156456190Y-101313104D02*
X156932380Y-101313104D01*
X156360952Y-101598819D02*
X156694285Y-100598819D01*
X156694285Y-100598819D02*
X157027618Y-101598819D01*
X157218095Y-100598819D02*
X157789523Y-100598819D01*
X157503809Y-101598819D02*
X157503809Y-100598819D01*
X158075238Y-101313104D02*
X158551428Y-101313104D01*
X157980000Y-101598819D02*
X158313333Y-100598819D01*
X158313333Y-100598819D02*
X158646666Y-101598819D01*
X159503809Y-101598819D02*
X158932381Y-101598819D01*
X159218095Y-101598819D02*
X159218095Y-100598819D01*
X159218095Y-100598819D02*
X159122857Y-100741676D01*
X159122857Y-100741676D02*
X159027619Y-100836914D01*
X159027619Y-100836914D02*
X158932381Y-100884533D01*
D13*
%TO.C,J2*%
X162500000Y-90992000D02*
X162500000Y-89662000D01*
X163830000Y-90992000D02*
X162500000Y-90992000D01*
X162500000Y-88392000D02*
X162500000Y-83252000D01*
X165160000Y-88392000D02*
X162500000Y-88392000D01*
X165160000Y-88392000D02*
X165160000Y-83252000D01*
X165160000Y-83252000D02*
X162500000Y-83252000D01*
%TO.C,DATA2*%
X159680000Y-78400000D02*
X155280000Y-78400000D01*
X159680000Y-74000000D02*
X159680000Y-78400000D01*
X155280000Y-78400000D02*
X155280000Y-74000000D01*
X155280000Y-74000000D02*
X159680000Y-74000000D01*
%TO.C,VAV*%
X154600000Y-78400000D02*
X150200000Y-78400000D01*
X154600000Y-74000000D02*
X154600000Y-78400000D01*
X150200000Y-78400000D02*
X150200000Y-74000000D01*
X150200000Y-74000000D02*
X154600000Y-74000000D01*
%TO.C,GND*%
X150200000Y-95844000D02*
X154600000Y-95844000D01*
X150200000Y-100244000D02*
X150200000Y-95844000D01*
X154600000Y-95844000D02*
X154600000Y-100244000D01*
X154600000Y-100244000D02*
X150200000Y-100244000D01*
%TO.C,DATA1*%
X155280000Y-95844000D02*
X159680000Y-95844000D01*
X155280000Y-100244000D02*
X155280000Y-95844000D01*
X159680000Y-95844000D02*
X159680000Y-100244000D01*
X159680000Y-100244000D02*
X155280000Y-100244000D01*
%TO.C,J1*%
X147380000Y-83252000D02*
X147380000Y-84582000D01*
X146050000Y-83252000D02*
X147380000Y-83252000D01*
X147380000Y-85852000D02*
X147380000Y-90992000D01*
X144720000Y-85852000D02*
X147380000Y-85852000D01*
X144720000Y-85852000D02*
X144720000Y-90992000D01*
X144720000Y-90992000D02*
X147380000Y-90992000D01*
%TD*%
M02*
