%TF.GenerationSoftware,KiCad,Pcbnew,9.0.7*%
%TF.CreationDate,2026-01-27T19:55:09-08:00*%
%TF.ProjectId,gm_pogopin,676d5f70-6f67-46f7-9069-6e2e6b696361,rev?*%
%TF.SameCoordinates,Original*%
%TF.FileFunction,Copper,L2,Bot*%
%TF.FilePolarity,Positive*%
%FSLAX46Y46*%
G04 Gerber Fmt 4.6, Leading zero omitted, Abs format (unit mm)*
G04 Created by KiCad (PCBNEW 9.0.7) date 2026-01-27 19:55:09*
%MOMM*%
%LPD*%
G01*
G04 APERTURE LIST*
%TA.AperFunction,ComponentPad*%
%ADD10R,1.700000X1.700000*%
%TD*%
%TA.AperFunction,ComponentPad*%
%ADD11C,1.700000*%
%TD*%
%TA.AperFunction,ViaPad*%
%ADD12C,1.000000*%
%TD*%
G04 APERTURE END LIST*
D10*
%TO.P,J2,1,Pin_1*%
%TO.N,GND*%
X163830000Y-89662000D03*
D11*
%TO.P,J2,2,Pin_2*%
%TO.N,VCC*%
X163830000Y-87122000D03*
%TO.P,J2,3,Pin_3*%
%TO.N,/DATA2*%
X163830000Y-84582000D03*
%TD*%
D10*
%TO.P,J1,1,Pin_1*%
%TO.N,GND*%
X146050000Y-84582000D03*
D11*
%TO.P,J1,2,Pin_2*%
%TO.N,VCC*%
X146050000Y-87122000D03*
%TO.P,J1,3,Pin_3*%
%TO.N,/DATA1*%
X146050000Y-89662000D03*
%TD*%
D12*
%TO.N,GND*%
X157850000Y-83300000D03*
X146000000Y-80500000D03*
X163780000Y-80500000D03*
X163805000Y-93500000D03*
X146000000Y-93500000D03*
%TD*%
%TA.AperFunction,Conductor*%
%TO.N,GND*%
G36*
X163832702Y-71700617D02*
G01*
X164216771Y-71717386D01*
X164227506Y-71718326D01*
X164605971Y-71768152D01*
X164616597Y-71770025D01*
X164989284Y-71852648D01*
X164999710Y-71855442D01*
X165363765Y-71970227D01*
X165373911Y-71973920D01*
X165726578Y-72120000D01*
X165736369Y-72124566D01*
X166074942Y-72300816D01*
X166084310Y-72306224D01*
X166406244Y-72511318D01*
X166415105Y-72517523D01*
X166717930Y-72749889D01*
X166726217Y-72756843D01*
X167007635Y-73014715D01*
X167015284Y-73022364D01*
X167273156Y-73303782D01*
X167280110Y-73312069D01*
X167512476Y-73614894D01*
X167518681Y-73623755D01*
X167723775Y-73945689D01*
X167729183Y-73955057D01*
X167905430Y-74293623D01*
X167910002Y-74303427D01*
X168056075Y-74656078D01*
X168059775Y-74666244D01*
X168174554Y-75030278D01*
X168177354Y-75040727D01*
X168259971Y-75413389D01*
X168261849Y-75424042D01*
X168311671Y-75802473D01*
X168312614Y-75813249D01*
X168329382Y-76197297D01*
X168329500Y-76202706D01*
X168329500Y-98041293D01*
X168329382Y-98046702D01*
X168312614Y-98430750D01*
X168311671Y-98441526D01*
X168261849Y-98819957D01*
X168259971Y-98830610D01*
X168177354Y-99203272D01*
X168174554Y-99213721D01*
X168059775Y-99577755D01*
X168056075Y-99587921D01*
X167910002Y-99940572D01*
X167905430Y-99950376D01*
X167729183Y-100288942D01*
X167723775Y-100298310D01*
X167518681Y-100620244D01*
X167512476Y-100629105D01*
X167280110Y-100931930D01*
X167273156Y-100940217D01*
X167015284Y-101221635D01*
X167007635Y-101229284D01*
X166726217Y-101487156D01*
X166717930Y-101494110D01*
X166415105Y-101726476D01*
X166406244Y-101732681D01*
X166084310Y-101937775D01*
X166074942Y-101943183D01*
X165736376Y-102119430D01*
X165726572Y-102124002D01*
X165373921Y-102270075D01*
X165363755Y-102273775D01*
X164999721Y-102388554D01*
X164989272Y-102391354D01*
X164616610Y-102473971D01*
X164605957Y-102475849D01*
X164227526Y-102525671D01*
X164216750Y-102526614D01*
X163832703Y-102543382D01*
X163827294Y-102543500D01*
X146052706Y-102543500D01*
X146047297Y-102543382D01*
X145663249Y-102526614D01*
X145652473Y-102525671D01*
X145274042Y-102475849D01*
X145263389Y-102473971D01*
X144890727Y-102391354D01*
X144880278Y-102388554D01*
X144516244Y-102273775D01*
X144506078Y-102270075D01*
X144153427Y-102124002D01*
X144143623Y-102119430D01*
X143805057Y-101943183D01*
X143795689Y-101937775D01*
X143473755Y-101732681D01*
X143464894Y-101726476D01*
X143162069Y-101494110D01*
X143153782Y-101487156D01*
X142872364Y-101229284D01*
X142864715Y-101221635D01*
X142606843Y-100940217D01*
X142599889Y-100931930D01*
X142367523Y-100629105D01*
X142361318Y-100620244D01*
X142156224Y-100298310D01*
X142150816Y-100288942D01*
X141974569Y-99950376D01*
X141969997Y-99940572D01*
X141823920Y-99587911D01*
X141820224Y-99577755D01*
X141705442Y-99213710D01*
X141702648Y-99203284D01*
X141620025Y-98830597D01*
X141618152Y-98819971D01*
X141568326Y-98441506D01*
X141567386Y-98430771D01*
X141550618Y-98046702D01*
X141550500Y-98041293D01*
X141550500Y-97922711D01*
X144199500Y-97922711D01*
X144199500Y-98165288D01*
X144231161Y-98405785D01*
X144293947Y-98640104D01*
X144386773Y-98864205D01*
X144386776Y-98864212D01*
X144508064Y-99074289D01*
X144508066Y-99074292D01*
X144508067Y-99074293D01*
X144655733Y-99266736D01*
X144655739Y-99266743D01*
X144827256Y-99438260D01*
X144827262Y-99438265D01*
X145019711Y-99585936D01*
X145229788Y-99707224D01*
X145453900Y-99800054D01*
X145688211Y-99862838D01*
X145868586Y-99886584D01*
X145928711Y-99894500D01*
X145928712Y-99894500D01*
X146171289Y-99894500D01*
X146219388Y-99888167D01*
X146411789Y-99862838D01*
X146646100Y-99800054D01*
X146870212Y-99707224D01*
X147080289Y-99585936D01*
X147272738Y-99438265D01*
X147444265Y-99266738D01*
X147591936Y-99074289D01*
X147713224Y-98864212D01*
X147806054Y-98640100D01*
X147868838Y-98405789D01*
X147900500Y-98165288D01*
X147900500Y-97922712D01*
X147900500Y-97922711D01*
X161979500Y-97922711D01*
X161979500Y-98165288D01*
X162011161Y-98405785D01*
X162073947Y-98640104D01*
X162166773Y-98864205D01*
X162166776Y-98864212D01*
X162288064Y-99074289D01*
X162288066Y-99074292D01*
X162288067Y-99074293D01*
X162435733Y-99266736D01*
X162435739Y-99266743D01*
X162607256Y-99438260D01*
X162607262Y-99438265D01*
X162799711Y-99585936D01*
X163009788Y-99707224D01*
X163233900Y-99800054D01*
X163468211Y-99862838D01*
X163648586Y-99886584D01*
X163708711Y-99894500D01*
X163708712Y-99894500D01*
X163951289Y-99894500D01*
X163999388Y-99888167D01*
X164191789Y-99862838D01*
X164426100Y-99800054D01*
X164650212Y-99707224D01*
X164860289Y-99585936D01*
X165052738Y-99438265D01*
X165224265Y-99266738D01*
X165371936Y-99074289D01*
X165493224Y-98864212D01*
X165586054Y-98640100D01*
X165648838Y-98405789D01*
X165680500Y-98165288D01*
X165680500Y-97922712D01*
X165648838Y-97682211D01*
X165586054Y-97447900D01*
X165493224Y-97223788D01*
X165371936Y-97013711D01*
X165224265Y-96821262D01*
X165224260Y-96821256D01*
X165052743Y-96649739D01*
X165052736Y-96649733D01*
X164860293Y-96502067D01*
X164860292Y-96502066D01*
X164860289Y-96502064D01*
X164650212Y-96380776D01*
X164650205Y-96380773D01*
X164426104Y-96287947D01*
X164191785Y-96225161D01*
X163951289Y-96193500D01*
X163951288Y-96193500D01*
X163708712Y-96193500D01*
X163708711Y-96193500D01*
X163468214Y-96225161D01*
X163233895Y-96287947D01*
X163009794Y-96380773D01*
X163009785Y-96380777D01*
X162799706Y-96502067D01*
X162607263Y-96649733D01*
X162607256Y-96649739D01*
X162435739Y-96821256D01*
X162435733Y-96821263D01*
X162288067Y-97013706D01*
X162166777Y-97223785D01*
X162166773Y-97223794D01*
X162073947Y-97447895D01*
X162011161Y-97682214D01*
X161979500Y-97922711D01*
X147900500Y-97922711D01*
X147868838Y-97682211D01*
X147806054Y-97447900D01*
X147713224Y-97223788D01*
X147591936Y-97013711D01*
X147444265Y-96821262D01*
X147444260Y-96821256D01*
X147272743Y-96649739D01*
X147272736Y-96649733D01*
X147080293Y-96502067D01*
X147080292Y-96502066D01*
X147080289Y-96502064D01*
X146870212Y-96380776D01*
X146870205Y-96380773D01*
X146646104Y-96287947D01*
X146411785Y-96225161D01*
X146171289Y-96193500D01*
X146171288Y-96193500D01*
X145928712Y-96193500D01*
X145928711Y-96193500D01*
X145688214Y-96225161D01*
X145453895Y-96287947D01*
X145229794Y-96380773D01*
X145229785Y-96380777D01*
X145019706Y-96502067D01*
X144827263Y-96649733D01*
X144827256Y-96649739D01*
X144655739Y-96821256D01*
X144655733Y-96821263D01*
X144508067Y-97013706D01*
X144386777Y-97223785D01*
X144386773Y-97223794D01*
X144293947Y-97447895D01*
X144231161Y-97682214D01*
X144199500Y-97922711D01*
X141550500Y-97922711D01*
X141550500Y-87015713D01*
X144699500Y-87015713D01*
X144699500Y-87228286D01*
X144732753Y-87438239D01*
X144798444Y-87640414D01*
X144894951Y-87829820D01*
X145019890Y-88001786D01*
X145170213Y-88152109D01*
X145342182Y-88277050D01*
X145350946Y-88281516D01*
X145401742Y-88329491D01*
X145418536Y-88397312D01*
X145395998Y-88463447D01*
X145350946Y-88502484D01*
X145342182Y-88506949D01*
X145170213Y-88631890D01*
X145019890Y-88782213D01*
X144894951Y-88954179D01*
X144798444Y-89143585D01*
X144732753Y-89345760D01*
X144699500Y-89555713D01*
X144699500Y-89768286D01*
X144732753Y-89978239D01*
X144798444Y-90180414D01*
X144894951Y-90369820D01*
X145019890Y-90541786D01*
X145170213Y-90692109D01*
X145342179Y-90817048D01*
X145342181Y-90817049D01*
X145342184Y-90817051D01*
X145531588Y-90913557D01*
X145733757Y-90979246D01*
X145943713Y-91012500D01*
X145943714Y-91012500D01*
X146156286Y-91012500D01*
X146156287Y-91012500D01*
X146366243Y-90979246D01*
X146568412Y-90913557D01*
X146757816Y-90817051D01*
X146844471Y-90754093D01*
X146929786Y-90692109D01*
X146929788Y-90692106D01*
X146929792Y-90692104D01*
X147080104Y-90541792D01*
X147080106Y-90541788D01*
X147080109Y-90541786D01*
X147205048Y-90369820D01*
X147205047Y-90369820D01*
X147205051Y-90369816D01*
X147301557Y-90180412D01*
X147367246Y-89978243D01*
X147400500Y-89768287D01*
X147400500Y-89555713D01*
X147367246Y-89345757D01*
X147301557Y-89143588D01*
X147205051Y-88954184D01*
X147205049Y-88954181D01*
X147205048Y-88954179D01*
X147080109Y-88782213D01*
X146929786Y-88631890D01*
X146757820Y-88506951D01*
X146757115Y-88506591D01*
X146749054Y-88502485D01*
X146698259Y-88454512D01*
X146681463Y-88386692D01*
X146703999Y-88320556D01*
X146749054Y-88281515D01*
X146757816Y-88277051D01*
X146847020Y-88212241D01*
X146929786Y-88152109D01*
X146929788Y-88152106D01*
X146929792Y-88152104D01*
X147080104Y-88001792D01*
X147080106Y-88001788D01*
X147080109Y-88001786D01*
X147205048Y-87829820D01*
X147205047Y-87829820D01*
X147205051Y-87829816D01*
X147301557Y-87640412D01*
X147367246Y-87438243D01*
X147400500Y-87228287D01*
X147400500Y-87015713D01*
X147367246Y-86805757D01*
X147301557Y-86603588D01*
X147205051Y-86414184D01*
X147205049Y-86414181D01*
X147205048Y-86414179D01*
X147080109Y-86242213D01*
X146966181Y-86128285D01*
X146932696Y-86066962D01*
X146937680Y-85997270D01*
X146979552Y-85941337D01*
X147010529Y-85924422D01*
X147142086Y-85875354D01*
X147142093Y-85875350D01*
X147257187Y-85789190D01*
X147257190Y-85789187D01*
X147343350Y-85674093D01*
X147343354Y-85674086D01*
X147393596Y-85539379D01*
X147393598Y-85539372D01*
X147399999Y-85479844D01*
X147400000Y-85479827D01*
X147400000Y-84832000D01*
X146483012Y-84832000D01*
X146515925Y-84774993D01*
X146550000Y-84647826D01*
X146550000Y-84516174D01*
X146539158Y-84475713D01*
X162479500Y-84475713D01*
X162479500Y-84688286D01*
X162512753Y-84898239D01*
X162578444Y-85100414D01*
X162674951Y-85289820D01*
X162799890Y-85461786D01*
X162950213Y-85612109D01*
X163122182Y-85737050D01*
X163130946Y-85741516D01*
X163181742Y-85789491D01*
X163198536Y-85857312D01*
X163175998Y-85923447D01*
X163130946Y-85962484D01*
X163122182Y-85966949D01*
X162950213Y-86091890D01*
X162799890Y-86242213D01*
X162674951Y-86414179D01*
X162578444Y-86603585D01*
X162512753Y-86805760D01*
X162479500Y-87015713D01*
X162479500Y-87228286D01*
X162512753Y-87438239D01*
X162578444Y-87640414D01*
X162674951Y-87829820D01*
X162799890Y-88001786D01*
X162913818Y-88115714D01*
X162947303Y-88177037D01*
X162942319Y-88246729D01*
X162900447Y-88302662D01*
X162869471Y-88319577D01*
X162737912Y-88368646D01*
X162737906Y-88368649D01*
X162622812Y-88454809D01*
X162622809Y-88454812D01*
X162536649Y-88569906D01*
X162536645Y-88569913D01*
X162486403Y-88704620D01*
X162486401Y-88704627D01*
X162480000Y-88764155D01*
X162480000Y-89412000D01*
X163396988Y-89412000D01*
X163364075Y-89469007D01*
X163330000Y-89596174D01*
X163330000Y-89727826D01*
X163364075Y-89854993D01*
X163396988Y-89912000D01*
X162480000Y-89912000D01*
X162480000Y-90559844D01*
X162486401Y-90619372D01*
X162486403Y-90619379D01*
X162536645Y-90754086D01*
X162536649Y-90754093D01*
X162622809Y-90869187D01*
X162622812Y-90869190D01*
X162737906Y-90955350D01*
X162737913Y-90955354D01*
X162872620Y-91005596D01*
X162872627Y-91005598D01*
X162932155Y-91011999D01*
X162932172Y-91012000D01*
X163580000Y-91012000D01*
X163580000Y-90095012D01*
X163637007Y-90127925D01*
X163764174Y-90162000D01*
X163895826Y-90162000D01*
X164022993Y-90127925D01*
X164080000Y-90095012D01*
X164080000Y-91012000D01*
X164727828Y-91012000D01*
X164727844Y-91011999D01*
X164787372Y-91005598D01*
X164787379Y-91005596D01*
X164922086Y-90955354D01*
X164922093Y-90955350D01*
X165037187Y-90869190D01*
X165037190Y-90869187D01*
X165123350Y-90754093D01*
X165123354Y-90754086D01*
X165173596Y-90619379D01*
X165173598Y-90619372D01*
X165179999Y-90559844D01*
X165180000Y-90559827D01*
X165180000Y-89912000D01*
X164263012Y-89912000D01*
X164295925Y-89854993D01*
X164330000Y-89727826D01*
X164330000Y-89596174D01*
X164295925Y-89469007D01*
X164263012Y-89412000D01*
X165180000Y-89412000D01*
X165180000Y-88764172D01*
X165179999Y-88764155D01*
X165173598Y-88704627D01*
X165173596Y-88704620D01*
X165123354Y-88569913D01*
X165123350Y-88569906D01*
X165037190Y-88454812D01*
X165037187Y-88454809D01*
X164922093Y-88368649D01*
X164922088Y-88368646D01*
X164790528Y-88319577D01*
X164734595Y-88277705D01*
X164710178Y-88212241D01*
X164725030Y-88143968D01*
X164746175Y-88115720D01*
X164860104Y-88001792D01*
X164985051Y-87829816D01*
X165081557Y-87640412D01*
X165147246Y-87438243D01*
X165180500Y-87228287D01*
X165180500Y-87015713D01*
X165147246Y-86805757D01*
X165081557Y-86603588D01*
X164985051Y-86414184D01*
X164985049Y-86414181D01*
X164985048Y-86414179D01*
X164860109Y-86242213D01*
X164709786Y-86091890D01*
X164537820Y-85966951D01*
X164537115Y-85966591D01*
X164529054Y-85962485D01*
X164478259Y-85914512D01*
X164461463Y-85846692D01*
X164483999Y-85780556D01*
X164529054Y-85741515D01*
X164537816Y-85737051D01*
X164624471Y-85674093D01*
X164709786Y-85612109D01*
X164709788Y-85612106D01*
X164709792Y-85612104D01*
X164860104Y-85461792D01*
X164860106Y-85461788D01*
X164860109Y-85461786D01*
X164985048Y-85289820D01*
X164985047Y-85289820D01*
X164985051Y-85289816D01*
X165081557Y-85100412D01*
X165147246Y-84898243D01*
X165180500Y-84688287D01*
X165180500Y-84475713D01*
X165147246Y-84265757D01*
X165081557Y-84063588D01*
X164985051Y-83874184D01*
X164985049Y-83874181D01*
X164985048Y-83874179D01*
X164860109Y-83702213D01*
X164709786Y-83551890D01*
X164537820Y-83426951D01*
X164348414Y-83330444D01*
X164348413Y-83330443D01*
X164348412Y-83330443D01*
X164146243Y-83264754D01*
X164146241Y-83264753D01*
X164146240Y-83264753D01*
X163984957Y-83239208D01*
X163936287Y-83231500D01*
X163723713Y-83231500D01*
X163675042Y-83239208D01*
X163513760Y-83264753D01*
X163311585Y-83330444D01*
X163122179Y-83426951D01*
X162950213Y-83551890D01*
X162799890Y-83702213D01*
X162674951Y-83874179D01*
X162578444Y-84063585D01*
X162512753Y-84265760D01*
X162479500Y-84475713D01*
X146539158Y-84475713D01*
X146515925Y-84389007D01*
X146483012Y-84332000D01*
X147400000Y-84332000D01*
X147400000Y-83684172D01*
X147399999Y-83684155D01*
X147393598Y-83624627D01*
X147393596Y-83624620D01*
X147343354Y-83489913D01*
X147343350Y-83489906D01*
X147257190Y-83374812D01*
X147257187Y-83374809D01*
X147142093Y-83288649D01*
X147142086Y-83288645D01*
X147007379Y-83238403D01*
X147007372Y-83238401D01*
X146947844Y-83232000D01*
X146300000Y-83232000D01*
X146300000Y-84148988D01*
X146242993Y-84116075D01*
X146115826Y-84082000D01*
X145984174Y-84082000D01*
X145857007Y-84116075D01*
X145800000Y-84148988D01*
X145800000Y-83232000D01*
X145152155Y-83232000D01*
X145092627Y-83238401D01*
X145092620Y-83238403D01*
X144957913Y-83288645D01*
X144957906Y-83288649D01*
X144842812Y-83374809D01*
X144842809Y-83374812D01*
X144756649Y-83489906D01*
X144756645Y-83489913D01*
X144706403Y-83624620D01*
X144706401Y-83624627D01*
X144700000Y-83684155D01*
X144700000Y-84332000D01*
X145616988Y-84332000D01*
X145584075Y-84389007D01*
X145550000Y-84516174D01*
X145550000Y-84647826D01*
X145584075Y-84774993D01*
X145616988Y-84832000D01*
X144700000Y-84832000D01*
X144700000Y-85479844D01*
X144706401Y-85539372D01*
X144706403Y-85539379D01*
X144756645Y-85674086D01*
X144756649Y-85674093D01*
X144842809Y-85789187D01*
X144842812Y-85789190D01*
X144957906Y-85875350D01*
X144957913Y-85875354D01*
X145089470Y-85924422D01*
X145145404Y-85966293D01*
X145169821Y-86031758D01*
X145154969Y-86100031D01*
X145133819Y-86128285D01*
X145019889Y-86242215D01*
X144894951Y-86414179D01*
X144798444Y-86603585D01*
X144732753Y-86805760D01*
X144699500Y-87015713D01*
X141550500Y-87015713D01*
X141550500Y-76202706D01*
X141550618Y-76197297D01*
X141555796Y-76078711D01*
X144199500Y-76078711D01*
X144199500Y-76321288D01*
X144231161Y-76561785D01*
X144293947Y-76796104D01*
X144386773Y-77020205D01*
X144386776Y-77020212D01*
X144508064Y-77230289D01*
X144508066Y-77230292D01*
X144508067Y-77230293D01*
X144655733Y-77422736D01*
X144655739Y-77422743D01*
X144827256Y-77594260D01*
X144827262Y-77594265D01*
X145019711Y-77741936D01*
X145229788Y-77863224D01*
X145453900Y-77956054D01*
X145688211Y-78018838D01*
X145868586Y-78042584D01*
X145928711Y-78050500D01*
X145928712Y-78050500D01*
X146171289Y-78050500D01*
X146219388Y-78044167D01*
X146411789Y-78018838D01*
X146646100Y-77956054D01*
X146870212Y-77863224D01*
X147080289Y-77741936D01*
X147272738Y-77594265D01*
X147444265Y-77422738D01*
X147591936Y-77230289D01*
X147713224Y-77020212D01*
X147806054Y-76796100D01*
X147868838Y-76561789D01*
X147900500Y-76321288D01*
X147900500Y-76078712D01*
X147900500Y-76078711D01*
X161979500Y-76078711D01*
X161979500Y-76321288D01*
X162011161Y-76561785D01*
X162073947Y-76796104D01*
X162166773Y-77020205D01*
X162166776Y-77020212D01*
X162288064Y-77230289D01*
X162288066Y-77230292D01*
X162288067Y-77230293D01*
X162435733Y-77422736D01*
X162435739Y-77422743D01*
X162607256Y-77594260D01*
X162607262Y-77594265D01*
X162799711Y-77741936D01*
X163009788Y-77863224D01*
X163233900Y-77956054D01*
X163468211Y-78018838D01*
X163648586Y-78042584D01*
X163708711Y-78050500D01*
X163708712Y-78050500D01*
X163951289Y-78050500D01*
X163999388Y-78044167D01*
X164191789Y-78018838D01*
X164426100Y-77956054D01*
X164650212Y-77863224D01*
X164860289Y-77741936D01*
X165052738Y-77594265D01*
X165224265Y-77422738D01*
X165371936Y-77230289D01*
X165493224Y-77020212D01*
X165586054Y-76796100D01*
X165648838Y-76561789D01*
X165680500Y-76321288D01*
X165680500Y-76078712D01*
X165679253Y-76069243D01*
X165648838Y-75838214D01*
X165648838Y-75838211D01*
X165586054Y-75603900D01*
X165493224Y-75379788D01*
X165371936Y-75169711D01*
X165224265Y-74977262D01*
X165224260Y-74977256D01*
X165052743Y-74805739D01*
X165052736Y-74805733D01*
X164860293Y-74658067D01*
X164860292Y-74658066D01*
X164860289Y-74658064D01*
X164650212Y-74536776D01*
X164650205Y-74536773D01*
X164426104Y-74443947D01*
X164191785Y-74381161D01*
X163951289Y-74349500D01*
X163951288Y-74349500D01*
X163708712Y-74349500D01*
X163708711Y-74349500D01*
X163468214Y-74381161D01*
X163233895Y-74443947D01*
X163009794Y-74536773D01*
X163009785Y-74536777D01*
X162799706Y-74658067D01*
X162607263Y-74805733D01*
X162607256Y-74805739D01*
X162435739Y-74977256D01*
X162435733Y-74977263D01*
X162288067Y-75169706D01*
X162166777Y-75379785D01*
X162166773Y-75379794D01*
X162073947Y-75603895D01*
X162011161Y-75838214D01*
X161979500Y-76078711D01*
X147900500Y-76078711D01*
X147899253Y-76069243D01*
X147868838Y-75838214D01*
X147868838Y-75838211D01*
X147806054Y-75603900D01*
X147713224Y-75379788D01*
X147591936Y-75169711D01*
X147444265Y-74977262D01*
X147444260Y-74977256D01*
X147272743Y-74805739D01*
X147272736Y-74805733D01*
X147080293Y-74658067D01*
X147080292Y-74658066D01*
X147080289Y-74658064D01*
X146870212Y-74536776D01*
X146870205Y-74536773D01*
X146646104Y-74443947D01*
X146411785Y-74381161D01*
X146171289Y-74349500D01*
X146171288Y-74349500D01*
X145928712Y-74349500D01*
X145928711Y-74349500D01*
X145688214Y-74381161D01*
X145453895Y-74443947D01*
X145229794Y-74536773D01*
X145229785Y-74536777D01*
X145019706Y-74658067D01*
X144827263Y-74805733D01*
X144827256Y-74805739D01*
X144655739Y-74977256D01*
X144655733Y-74977263D01*
X144508067Y-75169706D01*
X144386777Y-75379785D01*
X144386773Y-75379794D01*
X144293947Y-75603895D01*
X144231161Y-75838214D01*
X144199500Y-76078711D01*
X141555796Y-76078711D01*
X141556209Y-76069244D01*
X141556209Y-76069243D01*
X141560433Y-75972498D01*
X141567386Y-75813228D01*
X141568326Y-75802495D01*
X141618152Y-75424025D01*
X141620025Y-75413405D01*
X141702649Y-75040709D01*
X141705440Y-75030295D01*
X141820230Y-74666227D01*
X141823917Y-74656095D01*
X141970003Y-74303412D01*
X141974561Y-74293638D01*
X142150822Y-73955045D01*
X142156217Y-73945700D01*
X142361325Y-73623744D01*
X142367515Y-73614905D01*
X142599896Y-73312060D01*
X142606834Y-73303791D01*
X142864726Y-73022352D01*
X142872352Y-73014726D01*
X143153791Y-72756834D01*
X143162060Y-72749896D01*
X143464905Y-72517515D01*
X143473744Y-72511325D01*
X143795700Y-72306217D01*
X143805045Y-72300822D01*
X144143638Y-72124561D01*
X144153412Y-72120003D01*
X144506095Y-71973917D01*
X144516227Y-71970230D01*
X144880295Y-71855440D01*
X144890709Y-71852649D01*
X145263405Y-71770025D01*
X145274025Y-71768152D01*
X145652495Y-71718326D01*
X145663226Y-71717386D01*
X146047297Y-71700617D01*
X146052706Y-71700500D01*
X146115892Y-71700500D01*
X163764108Y-71700500D01*
X163827294Y-71700500D01*
X163832702Y-71700617D01*
G37*
%TD.AperFunction*%
%TD*%
M02*
