%TF.GenerationSoftware,KiCad,Pcbnew,9.0.7*%
%TF.CreationDate,2026-01-27T19:55:09-08:00*%
%TF.ProjectId,gm_pogopin,676d5f70-6f67-46f7-9069-6e2e6b696361,rev?*%
%TF.SameCoordinates,Original*%
%TF.FileFunction,Legend,Bot*%
%TF.FilePolarity,Positive*%
%FSLAX46Y46*%
G04 Gerber Fmt 4.6, Leading zero omitted, Abs format (unit mm)*
G04 Created by KiCad (PCBNEW 9.0.7) date 2026-01-27 19:55:09*
%MOMM*%
%LPD*%
G01*
G04 APERTURE LIST*
%ADD10C,0.140000*%
%ADD11C,0.175000*%
G04 APERTURE END LIST*
D10*
X160992884Y-82670339D02*
X161059551Y-82622720D01*
X161059551Y-82622720D02*
X161092884Y-82527481D01*
X161092884Y-82527481D02*
X161092884Y-81670339D01*
X160626217Y-82670339D02*
X160692884Y-82622720D01*
X160692884Y-82622720D02*
X160726217Y-82575100D01*
X160726217Y-82575100D02*
X160759550Y-82479862D01*
X160759550Y-82479862D02*
X160759550Y-82194148D01*
X160759550Y-82194148D02*
X160726217Y-82098910D01*
X160726217Y-82098910D02*
X160692884Y-82051291D01*
X160692884Y-82051291D02*
X160626217Y-82003672D01*
X160626217Y-82003672D02*
X160526217Y-82003672D01*
X160526217Y-82003672D02*
X160459550Y-82051291D01*
X160459550Y-82051291D02*
X160426217Y-82098910D01*
X160426217Y-82098910D02*
X160392884Y-82194148D01*
X160392884Y-82194148D02*
X160392884Y-82479862D01*
X160392884Y-82479862D02*
X160426217Y-82575100D01*
X160426217Y-82575100D02*
X160459550Y-82622720D01*
X160459550Y-82622720D02*
X160526217Y-82670339D01*
X160526217Y-82670339D02*
X160626217Y-82670339D01*
X160159551Y-82003672D02*
X160026217Y-82670339D01*
X160026217Y-82670339D02*
X159892884Y-82194148D01*
X159892884Y-82194148D02*
X159759551Y-82670339D01*
X159759551Y-82670339D02*
X159626217Y-82003672D01*
X159359551Y-82003672D02*
X159359551Y-83003672D01*
X159359551Y-82051291D02*
X159292884Y-82003672D01*
X159292884Y-82003672D02*
X159159551Y-82003672D01*
X159159551Y-82003672D02*
X159092884Y-82051291D01*
X159092884Y-82051291D02*
X159059551Y-82098910D01*
X159059551Y-82098910D02*
X159026218Y-82194148D01*
X159026218Y-82194148D02*
X159026218Y-82479862D01*
X159026218Y-82479862D02*
X159059551Y-82575100D01*
X159059551Y-82575100D02*
X159092884Y-82622720D01*
X159092884Y-82622720D02*
X159159551Y-82670339D01*
X159159551Y-82670339D02*
X159292884Y-82670339D01*
X159292884Y-82670339D02*
X159359551Y-82622720D01*
X158426218Y-82670339D02*
X158426218Y-82146529D01*
X158426218Y-82146529D02*
X158459551Y-82051291D01*
X158459551Y-82051291D02*
X158526218Y-82003672D01*
X158526218Y-82003672D02*
X158659551Y-82003672D01*
X158659551Y-82003672D02*
X158726218Y-82051291D01*
X158426218Y-82622720D02*
X158492885Y-82670339D01*
X158492885Y-82670339D02*
X158659551Y-82670339D01*
X158659551Y-82670339D02*
X158726218Y-82622720D01*
X158726218Y-82622720D02*
X158759551Y-82527481D01*
X158759551Y-82527481D02*
X158759551Y-82432243D01*
X158759551Y-82432243D02*
X158726218Y-82337005D01*
X158726218Y-82337005D02*
X158659551Y-82289386D01*
X158659551Y-82289386D02*
X158492885Y-82289386D01*
X158492885Y-82289386D02*
X158426218Y-82241767D01*
X158126218Y-82622720D02*
X158059552Y-82670339D01*
X158059552Y-82670339D02*
X157926218Y-82670339D01*
X157926218Y-82670339D02*
X157859552Y-82622720D01*
X157859552Y-82622720D02*
X157826218Y-82527481D01*
X157826218Y-82527481D02*
X157826218Y-82479862D01*
X157826218Y-82479862D02*
X157859552Y-82384624D01*
X157859552Y-82384624D02*
X157926218Y-82337005D01*
X157926218Y-82337005D02*
X158026218Y-82337005D01*
X158026218Y-82337005D02*
X158092885Y-82289386D01*
X158092885Y-82289386D02*
X158126218Y-82194148D01*
X158126218Y-82194148D02*
X158126218Y-82146529D01*
X158126218Y-82146529D02*
X158092885Y-82051291D01*
X158092885Y-82051291D02*
X158026218Y-82003672D01*
X158026218Y-82003672D02*
X157926218Y-82003672D01*
X157926218Y-82003672D02*
X157859552Y-82051291D01*
X157559551Y-82622720D02*
X157492885Y-82670339D01*
X157492885Y-82670339D02*
X157359551Y-82670339D01*
X157359551Y-82670339D02*
X157292885Y-82622720D01*
X157292885Y-82622720D02*
X157259551Y-82527481D01*
X157259551Y-82527481D02*
X157259551Y-82479862D01*
X157259551Y-82479862D02*
X157292885Y-82384624D01*
X157292885Y-82384624D02*
X157359551Y-82337005D01*
X157359551Y-82337005D02*
X157459551Y-82337005D01*
X157459551Y-82337005D02*
X157526218Y-82289386D01*
X157526218Y-82289386D02*
X157559551Y-82194148D01*
X157559551Y-82194148D02*
X157559551Y-82146529D01*
X157559551Y-82146529D02*
X157526218Y-82051291D01*
X157526218Y-82051291D02*
X157459551Y-82003672D01*
X157459551Y-82003672D02*
X157359551Y-82003672D01*
X157359551Y-82003672D02*
X157292885Y-82051291D01*
X156526218Y-82003672D02*
X156259551Y-82003672D01*
X156426218Y-82670339D02*
X156426218Y-81813196D01*
X156426218Y-81813196D02*
X156392885Y-81717958D01*
X156392885Y-81717958D02*
X156326218Y-81670339D01*
X156326218Y-81670339D02*
X156259551Y-81670339D01*
X156026218Y-82670339D02*
X156026218Y-82003672D01*
X156026218Y-81670339D02*
X156059551Y-81717958D01*
X156059551Y-81717958D02*
X156026218Y-81765577D01*
X156026218Y-81765577D02*
X155992885Y-81717958D01*
X155992885Y-81717958D02*
X156026218Y-81670339D01*
X156026218Y-81670339D02*
X156026218Y-81765577D01*
X155592885Y-82670339D02*
X155659552Y-82622720D01*
X155659552Y-82622720D02*
X155692885Y-82527481D01*
X155692885Y-82527481D02*
X155692885Y-81670339D01*
X155426218Y-82003672D02*
X155159551Y-82003672D01*
X155326218Y-81670339D02*
X155326218Y-82527481D01*
X155326218Y-82527481D02*
X155292885Y-82622720D01*
X155292885Y-82622720D02*
X155226218Y-82670339D01*
X155226218Y-82670339D02*
X155159551Y-82670339D01*
X154659551Y-82622720D02*
X154726218Y-82670339D01*
X154726218Y-82670339D02*
X154859551Y-82670339D01*
X154859551Y-82670339D02*
X154926218Y-82622720D01*
X154926218Y-82622720D02*
X154959551Y-82527481D01*
X154959551Y-82527481D02*
X154959551Y-82146529D01*
X154959551Y-82146529D02*
X154926218Y-82051291D01*
X154926218Y-82051291D02*
X154859551Y-82003672D01*
X154859551Y-82003672D02*
X154726218Y-82003672D01*
X154726218Y-82003672D02*
X154659551Y-82051291D01*
X154659551Y-82051291D02*
X154626218Y-82146529D01*
X154626218Y-82146529D02*
X154626218Y-82241767D01*
X154626218Y-82241767D02*
X154959551Y-82337005D01*
X154326218Y-82670339D02*
X154326218Y-82003672D01*
X154326218Y-82194148D02*
X154292885Y-82098910D01*
X154292885Y-82098910D02*
X154259551Y-82051291D01*
X154259551Y-82051291D02*
X154192885Y-82003672D01*
X154192885Y-82003672D02*
X154126218Y-82003672D01*
X158392884Y-84270339D02*
X158392884Y-83603672D01*
X158392884Y-83270339D02*
X158426217Y-83317958D01*
X158426217Y-83317958D02*
X158392884Y-83365577D01*
X158392884Y-83365577D02*
X158359551Y-83317958D01*
X158359551Y-83317958D02*
X158392884Y-83270339D01*
X158392884Y-83270339D02*
X158392884Y-83365577D01*
X158059551Y-84270339D02*
X158059551Y-83603672D01*
X158059551Y-83794148D02*
X158026218Y-83698910D01*
X158026218Y-83698910D02*
X157992884Y-83651291D01*
X157992884Y-83651291D02*
X157926218Y-83603672D01*
X157926218Y-83603672D02*
X157859551Y-83603672D01*
X157526218Y-84270339D02*
X157592885Y-84222720D01*
X157592885Y-84222720D02*
X157626218Y-84175100D01*
X157626218Y-84175100D02*
X157659551Y-84079862D01*
X157659551Y-84079862D02*
X157659551Y-83794148D01*
X157659551Y-83794148D02*
X157626218Y-83698910D01*
X157626218Y-83698910D02*
X157592885Y-83651291D01*
X157592885Y-83651291D02*
X157526218Y-83603672D01*
X157526218Y-83603672D02*
X157426218Y-83603672D01*
X157426218Y-83603672D02*
X157359551Y-83651291D01*
X157359551Y-83651291D02*
X157326218Y-83698910D01*
X157326218Y-83698910D02*
X157292885Y-83794148D01*
X157292885Y-83794148D02*
X157292885Y-84079862D01*
X157292885Y-84079862D02*
X157326218Y-84175100D01*
X157326218Y-84175100D02*
X157359551Y-84222720D01*
X157359551Y-84222720D02*
X157426218Y-84270339D01*
X157426218Y-84270339D02*
X157526218Y-84270339D01*
X156992885Y-83603672D02*
X156992885Y-84270339D01*
X156992885Y-83698910D02*
X156959552Y-83651291D01*
X156959552Y-83651291D02*
X156892885Y-83603672D01*
X156892885Y-83603672D02*
X156792885Y-83603672D01*
X156792885Y-83603672D02*
X156726218Y-83651291D01*
X156726218Y-83651291D02*
X156692885Y-83746529D01*
X156692885Y-83746529D02*
X156692885Y-84270339D01*
X155892886Y-83270339D02*
X155459552Y-83270339D01*
X155459552Y-83270339D02*
X155692886Y-83651291D01*
X155692886Y-83651291D02*
X155592886Y-83651291D01*
X155592886Y-83651291D02*
X155526219Y-83698910D01*
X155526219Y-83698910D02*
X155492886Y-83746529D01*
X155492886Y-83746529D02*
X155459552Y-83841767D01*
X155459552Y-83841767D02*
X155459552Y-84079862D01*
X155459552Y-84079862D02*
X155492886Y-84175100D01*
X155492886Y-84175100D02*
X155526219Y-84222720D01*
X155526219Y-84222720D02*
X155592886Y-84270339D01*
X155592886Y-84270339D02*
X155792886Y-84270339D01*
X155792886Y-84270339D02*
X155859552Y-84222720D01*
X155859552Y-84222720D02*
X155892886Y-84175100D01*
X154326219Y-84270339D02*
X154326219Y-83270339D01*
X154326219Y-84222720D02*
X154392886Y-84270339D01*
X154392886Y-84270339D02*
X154526219Y-84270339D01*
X154526219Y-84270339D02*
X154592886Y-84222720D01*
X154592886Y-84222720D02*
X154626219Y-84175100D01*
X154626219Y-84175100D02*
X154659552Y-84079862D01*
X154659552Y-84079862D02*
X154659552Y-83794148D01*
X154659552Y-83794148D02*
X154626219Y-83698910D01*
X154626219Y-83698910D02*
X154592886Y-83651291D01*
X154592886Y-83651291D02*
X154526219Y-83603672D01*
X154526219Y-83603672D02*
X154392886Y-83603672D01*
X154392886Y-83603672D02*
X154326219Y-83651291D01*
X153992886Y-84270339D02*
X153992886Y-83270339D01*
X153992886Y-83651291D02*
X153926219Y-83603672D01*
X153926219Y-83603672D02*
X153792886Y-83603672D01*
X153792886Y-83603672D02*
X153726219Y-83651291D01*
X153726219Y-83651291D02*
X153692886Y-83698910D01*
X153692886Y-83698910D02*
X153659553Y-83794148D01*
X153659553Y-83794148D02*
X153659553Y-84079862D01*
X153659553Y-84079862D02*
X153692886Y-84175100D01*
X153692886Y-84175100D02*
X153726219Y-84222720D01*
X153726219Y-84222720D02*
X153792886Y-84270339D01*
X153792886Y-84270339D02*
X153926219Y-84270339D01*
X153926219Y-84270339D02*
X153992886Y-84222720D01*
X153459553Y-83603672D02*
X153192886Y-83603672D01*
X153359553Y-84270339D02*
X153359553Y-83413196D01*
X153359553Y-83413196D02*
X153326220Y-83317958D01*
X153326220Y-83317958D02*
X153259553Y-83270339D01*
X153259553Y-83270339D02*
X153192886Y-83270339D01*
X152526220Y-83603672D02*
X152259553Y-83603672D01*
X152426220Y-83270339D02*
X152426220Y-84127481D01*
X152426220Y-84127481D02*
X152392887Y-84222720D01*
X152392887Y-84222720D02*
X152326220Y-84270339D01*
X152326220Y-84270339D02*
X152259553Y-84270339D01*
X151759553Y-84222720D02*
X151826220Y-84270339D01*
X151826220Y-84270339D02*
X151959553Y-84270339D01*
X151959553Y-84270339D02*
X152026220Y-84222720D01*
X152026220Y-84222720D02*
X152059553Y-84127481D01*
X152059553Y-84127481D02*
X152059553Y-83746529D01*
X152059553Y-83746529D02*
X152026220Y-83651291D01*
X152026220Y-83651291D02*
X151959553Y-83603672D01*
X151959553Y-83603672D02*
X151826220Y-83603672D01*
X151826220Y-83603672D02*
X151759553Y-83651291D01*
X151759553Y-83651291D02*
X151726220Y-83746529D01*
X151726220Y-83746529D02*
X151726220Y-83841767D01*
X151726220Y-83841767D02*
X152059553Y-83937005D01*
X151126220Y-84270339D02*
X151126220Y-83746529D01*
X151126220Y-83746529D02*
X151159553Y-83651291D01*
X151159553Y-83651291D02*
X151226220Y-83603672D01*
X151226220Y-83603672D02*
X151359553Y-83603672D01*
X151359553Y-83603672D02*
X151426220Y-83651291D01*
X151126220Y-84222720D02*
X151192887Y-84270339D01*
X151192887Y-84270339D02*
X151359553Y-84270339D01*
X151359553Y-84270339D02*
X151426220Y-84222720D01*
X151426220Y-84222720D02*
X151459553Y-84127481D01*
X151459553Y-84127481D02*
X151459553Y-84032243D01*
X151459553Y-84032243D02*
X151426220Y-83937005D01*
X151426220Y-83937005D02*
X151359553Y-83889386D01*
X151359553Y-83889386D02*
X151192887Y-83889386D01*
X151192887Y-83889386D02*
X151126220Y-83841767D01*
X150792887Y-84270339D02*
X150792887Y-83603672D01*
X150792887Y-83698910D02*
X150759554Y-83651291D01*
X150759554Y-83651291D02*
X150692887Y-83603672D01*
X150692887Y-83603672D02*
X150592887Y-83603672D01*
X150592887Y-83603672D02*
X150526220Y-83651291D01*
X150526220Y-83651291D02*
X150492887Y-83746529D01*
X150492887Y-83746529D02*
X150492887Y-84270339D01*
X150492887Y-83746529D02*
X150459554Y-83651291D01*
X150459554Y-83651291D02*
X150392887Y-83603672D01*
X150392887Y-83603672D02*
X150292887Y-83603672D01*
X150292887Y-83603672D02*
X150226220Y-83651291D01*
X150226220Y-83651291D02*
X150192887Y-83746529D01*
X150192887Y-83746529D02*
X150192887Y-84270339D01*
X156392884Y-90872720D02*
X156992884Y-92158434D01*
X156192884Y-91872720D02*
X156126218Y-91920339D01*
X156126218Y-91920339D02*
X155992884Y-91920339D01*
X155992884Y-91920339D02*
X155926218Y-91872720D01*
X155926218Y-91872720D02*
X155892884Y-91777481D01*
X155892884Y-91777481D02*
X155892884Y-91729862D01*
X155892884Y-91729862D02*
X155926218Y-91634624D01*
X155926218Y-91634624D02*
X155992884Y-91587005D01*
X155992884Y-91587005D02*
X156092884Y-91587005D01*
X156092884Y-91587005D02*
X156159551Y-91539386D01*
X156159551Y-91539386D02*
X156192884Y-91444148D01*
X156192884Y-91444148D02*
X156192884Y-91396529D01*
X156192884Y-91396529D02*
X156159551Y-91301291D01*
X156159551Y-91301291D02*
X156092884Y-91253672D01*
X156092884Y-91253672D02*
X155992884Y-91253672D01*
X155992884Y-91253672D02*
X155926218Y-91301291D01*
X155326217Y-91872720D02*
X155392884Y-91920339D01*
X155392884Y-91920339D02*
X155526217Y-91920339D01*
X155526217Y-91920339D02*
X155592884Y-91872720D01*
X155592884Y-91872720D02*
X155626217Y-91777481D01*
X155626217Y-91777481D02*
X155626217Y-91396529D01*
X155626217Y-91396529D02*
X155592884Y-91301291D01*
X155592884Y-91301291D02*
X155526217Y-91253672D01*
X155526217Y-91253672D02*
X155392884Y-91253672D01*
X155392884Y-91253672D02*
X155326217Y-91301291D01*
X155326217Y-91301291D02*
X155292884Y-91396529D01*
X155292884Y-91396529D02*
X155292884Y-91491767D01*
X155292884Y-91491767D02*
X155626217Y-91587005D01*
X154992884Y-91920339D02*
X154992884Y-91253672D01*
X154992884Y-91444148D02*
X154959551Y-91348910D01*
X154959551Y-91348910D02*
X154926217Y-91301291D01*
X154926217Y-91301291D02*
X154859551Y-91253672D01*
X154859551Y-91253672D02*
X154792884Y-91253672D01*
X154559551Y-91920339D02*
X154559551Y-91253672D01*
X154559551Y-90920339D02*
X154592884Y-90967958D01*
X154592884Y-90967958D02*
X154559551Y-91015577D01*
X154559551Y-91015577D02*
X154526218Y-90967958D01*
X154526218Y-90967958D02*
X154559551Y-90920339D01*
X154559551Y-90920339D02*
X154559551Y-91015577D01*
X154126218Y-91920339D02*
X154192885Y-91872720D01*
X154192885Y-91872720D02*
X154226218Y-91825100D01*
X154226218Y-91825100D02*
X154259551Y-91729862D01*
X154259551Y-91729862D02*
X154259551Y-91444148D01*
X154259551Y-91444148D02*
X154226218Y-91348910D01*
X154226218Y-91348910D02*
X154192885Y-91301291D01*
X154192885Y-91301291D02*
X154126218Y-91253672D01*
X154126218Y-91253672D02*
X154026218Y-91253672D01*
X154026218Y-91253672D02*
X153959551Y-91301291D01*
X153959551Y-91301291D02*
X153926218Y-91348910D01*
X153926218Y-91348910D02*
X153892885Y-91444148D01*
X153892885Y-91444148D02*
X153892885Y-91729862D01*
X153892885Y-91729862D02*
X153926218Y-91825100D01*
X153926218Y-91825100D02*
X153959551Y-91872720D01*
X153959551Y-91872720D02*
X154026218Y-91920339D01*
X154026218Y-91920339D02*
X154126218Y-91920339D01*
X153292885Y-91253672D02*
X153292885Y-91920339D01*
X153592885Y-91253672D02*
X153592885Y-91777481D01*
X153592885Y-91777481D02*
X153559552Y-91872720D01*
X153559552Y-91872720D02*
X153492885Y-91920339D01*
X153492885Y-91920339D02*
X153392885Y-91920339D01*
X153392885Y-91920339D02*
X153326218Y-91872720D01*
X153326218Y-91872720D02*
X153292885Y-91825100D01*
X152992885Y-91872720D02*
X152926219Y-91920339D01*
X152926219Y-91920339D02*
X152792885Y-91920339D01*
X152792885Y-91920339D02*
X152726219Y-91872720D01*
X152726219Y-91872720D02*
X152692885Y-91777481D01*
X152692885Y-91777481D02*
X152692885Y-91729862D01*
X152692885Y-91729862D02*
X152726219Y-91634624D01*
X152726219Y-91634624D02*
X152792885Y-91587005D01*
X152792885Y-91587005D02*
X152892885Y-91587005D01*
X152892885Y-91587005D02*
X152959552Y-91539386D01*
X152959552Y-91539386D02*
X152992885Y-91444148D01*
X152992885Y-91444148D02*
X152992885Y-91396529D01*
X152992885Y-91396529D02*
X152959552Y-91301291D01*
X152959552Y-91301291D02*
X152892885Y-91253672D01*
X152892885Y-91253672D02*
X152792885Y-91253672D01*
X152792885Y-91253672D02*
X152726219Y-91301291D01*
X151559552Y-91253672D02*
X151559552Y-92063196D01*
X151559552Y-92063196D02*
X151592885Y-92158434D01*
X151592885Y-92158434D02*
X151626219Y-92206053D01*
X151626219Y-92206053D02*
X151692885Y-92253672D01*
X151692885Y-92253672D02*
X151792885Y-92253672D01*
X151792885Y-92253672D02*
X151859552Y-92206053D01*
X151559552Y-91872720D02*
X151626219Y-91920339D01*
X151626219Y-91920339D02*
X151759552Y-91920339D01*
X151759552Y-91920339D02*
X151826219Y-91872720D01*
X151826219Y-91872720D02*
X151859552Y-91825100D01*
X151859552Y-91825100D02*
X151892885Y-91729862D01*
X151892885Y-91729862D02*
X151892885Y-91444148D01*
X151892885Y-91444148D02*
X151859552Y-91348910D01*
X151859552Y-91348910D02*
X151826219Y-91301291D01*
X151826219Y-91301291D02*
X151759552Y-91253672D01*
X151759552Y-91253672D02*
X151626219Y-91253672D01*
X151626219Y-91253672D02*
X151559552Y-91301291D01*
X150926219Y-91253672D02*
X150926219Y-91920339D01*
X151226219Y-91253672D02*
X151226219Y-91777481D01*
X151226219Y-91777481D02*
X151192886Y-91872720D01*
X151192886Y-91872720D02*
X151126219Y-91920339D01*
X151126219Y-91920339D02*
X151026219Y-91920339D01*
X151026219Y-91920339D02*
X150959552Y-91872720D01*
X150959552Y-91872720D02*
X150926219Y-91825100D01*
X150659553Y-91253672D02*
X150492886Y-91920339D01*
X150326219Y-91253672D02*
X150492886Y-91920339D01*
X150492886Y-91920339D02*
X150559553Y-92158434D01*
X150559553Y-92158434D02*
X150592886Y-92206053D01*
X150592886Y-92206053D02*
X150659553Y-92253672D01*
X150092886Y-91872720D02*
X150026220Y-91920339D01*
X150026220Y-91920339D02*
X149892886Y-91920339D01*
X149892886Y-91920339D02*
X149826220Y-91872720D01*
X149826220Y-91872720D02*
X149792886Y-91777481D01*
X149792886Y-91777481D02*
X149792886Y-91729862D01*
X149792886Y-91729862D02*
X149826220Y-91634624D01*
X149826220Y-91634624D02*
X149892886Y-91587005D01*
X149892886Y-91587005D02*
X149992886Y-91587005D01*
X149992886Y-91587005D02*
X150059553Y-91539386D01*
X150059553Y-91539386D02*
X150092886Y-91444148D01*
X150092886Y-91444148D02*
X150092886Y-91396529D01*
X150092886Y-91396529D02*
X150059553Y-91301291D01*
X150059553Y-91301291D02*
X149992886Y-91253672D01*
X149992886Y-91253672D02*
X149892886Y-91253672D01*
X149892886Y-91253672D02*
X149826220Y-91301291D01*
X162192884Y-81170339D02*
X162192884Y-80170339D01*
X161959551Y-80170339D02*
X161559551Y-80170339D01*
X161759551Y-81170339D02*
X161759551Y-80170339D01*
X161359551Y-81122720D02*
X161259551Y-81170339D01*
X161259551Y-81170339D02*
X161092885Y-81170339D01*
X161092885Y-81170339D02*
X161026218Y-81122720D01*
X161026218Y-81122720D02*
X160992885Y-81075100D01*
X160992885Y-81075100D02*
X160959551Y-80979862D01*
X160959551Y-80979862D02*
X160959551Y-80884624D01*
X160959551Y-80884624D02*
X160992885Y-80789386D01*
X160992885Y-80789386D02*
X161026218Y-80741767D01*
X161026218Y-80741767D02*
X161092885Y-80694148D01*
X161092885Y-80694148D02*
X161226218Y-80646529D01*
X161226218Y-80646529D02*
X161292885Y-80598910D01*
X161292885Y-80598910D02*
X161326218Y-80551291D01*
X161326218Y-80551291D02*
X161359551Y-80456053D01*
X161359551Y-80456053D02*
X161359551Y-80360815D01*
X161359551Y-80360815D02*
X161326218Y-80265577D01*
X161326218Y-80265577D02*
X161292885Y-80217958D01*
X161292885Y-80217958D02*
X161226218Y-80170339D01*
X161226218Y-80170339D02*
X161059551Y-80170339D01*
X161059551Y-80170339D02*
X160959551Y-80217958D01*
X160159551Y-81122720D02*
X160059551Y-81170339D01*
X160059551Y-81170339D02*
X159892885Y-81170339D01*
X159892885Y-81170339D02*
X159826218Y-81122720D01*
X159826218Y-81122720D02*
X159792885Y-81075100D01*
X159792885Y-81075100D02*
X159759551Y-80979862D01*
X159759551Y-80979862D02*
X159759551Y-80884624D01*
X159759551Y-80884624D02*
X159792885Y-80789386D01*
X159792885Y-80789386D02*
X159826218Y-80741767D01*
X159826218Y-80741767D02*
X159892885Y-80694148D01*
X159892885Y-80694148D02*
X160026218Y-80646529D01*
X160026218Y-80646529D02*
X160092885Y-80598910D01*
X160092885Y-80598910D02*
X160126218Y-80551291D01*
X160126218Y-80551291D02*
X160159551Y-80456053D01*
X160159551Y-80456053D02*
X160159551Y-80360815D01*
X160159551Y-80360815D02*
X160126218Y-80265577D01*
X160126218Y-80265577D02*
X160092885Y-80217958D01*
X160092885Y-80217958D02*
X160026218Y-80170339D01*
X160026218Y-80170339D02*
X159859551Y-80170339D01*
X159859551Y-80170339D02*
X159759551Y-80217958D01*
X159459551Y-81170339D02*
X159459551Y-80170339D01*
X159459551Y-80170339D02*
X159226218Y-80884624D01*
X159226218Y-80884624D02*
X158992884Y-80170339D01*
X158992884Y-80170339D02*
X158992884Y-81170339D01*
X158526218Y-80170339D02*
X158392884Y-80170339D01*
X158392884Y-80170339D02*
X158326218Y-80217958D01*
X158326218Y-80217958D02*
X158259551Y-80313196D01*
X158259551Y-80313196D02*
X158226218Y-80503672D01*
X158226218Y-80503672D02*
X158226218Y-80837005D01*
X158226218Y-80837005D02*
X158259551Y-81027481D01*
X158259551Y-81027481D02*
X158326218Y-81122720D01*
X158326218Y-81122720D02*
X158392884Y-81170339D01*
X158392884Y-81170339D02*
X158526218Y-81170339D01*
X158526218Y-81170339D02*
X158592884Y-81122720D01*
X158592884Y-81122720D02*
X158659551Y-81027481D01*
X158659551Y-81027481D02*
X158692884Y-80837005D01*
X158692884Y-80837005D02*
X158692884Y-80503672D01*
X158692884Y-80503672D02*
X158659551Y-80313196D01*
X158659551Y-80313196D02*
X158592884Y-80217958D01*
X158592884Y-80217958D02*
X158526218Y-80170339D01*
X157926218Y-81170339D02*
X157926218Y-80170339D01*
X157526218Y-81170339D02*
X157826218Y-80598910D01*
X157526218Y-80170339D02*
X157926218Y-80741767D01*
X157226218Y-81170339D02*
X157226218Y-80170339D01*
X156892885Y-81170339D02*
X156892885Y-80170339D01*
X156892885Y-80170339D02*
X156492885Y-81170339D01*
X156492885Y-81170339D02*
X156492885Y-80170339D01*
X155792885Y-80217958D02*
X155859552Y-80170339D01*
X155859552Y-80170339D02*
X155959552Y-80170339D01*
X155959552Y-80170339D02*
X156059552Y-80217958D01*
X156059552Y-80217958D02*
X156126219Y-80313196D01*
X156126219Y-80313196D02*
X156159552Y-80408434D01*
X156159552Y-80408434D02*
X156192885Y-80598910D01*
X156192885Y-80598910D02*
X156192885Y-80741767D01*
X156192885Y-80741767D02*
X156159552Y-80932243D01*
X156159552Y-80932243D02*
X156126219Y-81027481D01*
X156126219Y-81027481D02*
X156059552Y-81122720D01*
X156059552Y-81122720D02*
X155959552Y-81170339D01*
X155959552Y-81170339D02*
X155892885Y-81170339D01*
X155892885Y-81170339D02*
X155792885Y-81122720D01*
X155792885Y-81122720D02*
X155759552Y-81075100D01*
X155759552Y-81075100D02*
X155759552Y-80741767D01*
X155759552Y-80741767D02*
X155892885Y-80741767D01*
X154926219Y-81170339D02*
X154926219Y-80170339D01*
X154692886Y-80170339D02*
X154292886Y-80170339D01*
X154492886Y-81170339D02*
X154492886Y-80170339D01*
X154092886Y-81122720D02*
X153992886Y-81170339D01*
X153992886Y-81170339D02*
X153826220Y-81170339D01*
X153826220Y-81170339D02*
X153759553Y-81122720D01*
X153759553Y-81122720D02*
X153726220Y-81075100D01*
X153726220Y-81075100D02*
X153692886Y-80979862D01*
X153692886Y-80979862D02*
X153692886Y-80884624D01*
X153692886Y-80884624D02*
X153726220Y-80789386D01*
X153726220Y-80789386D02*
X153759553Y-80741767D01*
X153759553Y-80741767D02*
X153826220Y-80694148D01*
X153826220Y-80694148D02*
X153959553Y-80646529D01*
X153959553Y-80646529D02*
X154026220Y-80598910D01*
X154026220Y-80598910D02*
X154059553Y-80551291D01*
X154059553Y-80551291D02*
X154092886Y-80456053D01*
X154092886Y-80456053D02*
X154092886Y-80360815D01*
X154092886Y-80360815D02*
X154059553Y-80265577D01*
X154059553Y-80265577D02*
X154026220Y-80217958D01*
X154026220Y-80217958D02*
X153959553Y-80170339D01*
X153959553Y-80170339D02*
X153792886Y-80170339D01*
X153792886Y-80170339D02*
X153692886Y-80217958D01*
X152892886Y-81122720D02*
X152792886Y-81170339D01*
X152792886Y-81170339D02*
X152626220Y-81170339D01*
X152626220Y-81170339D02*
X152559553Y-81122720D01*
X152559553Y-81122720D02*
X152526220Y-81075100D01*
X152526220Y-81075100D02*
X152492886Y-80979862D01*
X152492886Y-80979862D02*
X152492886Y-80884624D01*
X152492886Y-80884624D02*
X152526220Y-80789386D01*
X152526220Y-80789386D02*
X152559553Y-80741767D01*
X152559553Y-80741767D02*
X152626220Y-80694148D01*
X152626220Y-80694148D02*
X152759553Y-80646529D01*
X152759553Y-80646529D02*
X152826220Y-80598910D01*
X152826220Y-80598910D02*
X152859553Y-80551291D01*
X152859553Y-80551291D02*
X152892886Y-80456053D01*
X152892886Y-80456053D02*
X152892886Y-80360815D01*
X152892886Y-80360815D02*
X152859553Y-80265577D01*
X152859553Y-80265577D02*
X152826220Y-80217958D01*
X152826220Y-80217958D02*
X152759553Y-80170339D01*
X152759553Y-80170339D02*
X152592886Y-80170339D01*
X152592886Y-80170339D02*
X152492886Y-80217958D01*
X152192886Y-81170339D02*
X152192886Y-80170339D01*
X152192886Y-80170339D02*
X151959553Y-80884624D01*
X151959553Y-80884624D02*
X151726219Y-80170339D01*
X151726219Y-80170339D02*
X151726219Y-81170339D01*
X151259553Y-80170339D02*
X151126219Y-80170339D01*
X151126219Y-80170339D02*
X151059553Y-80217958D01*
X151059553Y-80217958D02*
X150992886Y-80313196D01*
X150992886Y-80313196D02*
X150959553Y-80503672D01*
X150959553Y-80503672D02*
X150959553Y-80837005D01*
X150959553Y-80837005D02*
X150992886Y-81027481D01*
X150992886Y-81027481D02*
X151059553Y-81122720D01*
X151059553Y-81122720D02*
X151126219Y-81170339D01*
X151126219Y-81170339D02*
X151259553Y-81170339D01*
X151259553Y-81170339D02*
X151326219Y-81122720D01*
X151326219Y-81122720D02*
X151392886Y-81027481D01*
X151392886Y-81027481D02*
X151426219Y-80837005D01*
X151426219Y-80837005D02*
X151426219Y-80503672D01*
X151426219Y-80503672D02*
X151392886Y-80313196D01*
X151392886Y-80313196D02*
X151326219Y-80217958D01*
X151326219Y-80217958D02*
X151259553Y-80170339D01*
X150659553Y-81170339D02*
X150659553Y-80170339D01*
X150259553Y-81170339D02*
X150559553Y-80598910D01*
X150259553Y-80170339D02*
X150659553Y-80741767D01*
X149959553Y-81170339D02*
X149959553Y-80170339D01*
X149626220Y-81170339D02*
X149626220Y-80170339D01*
X149626220Y-80170339D02*
X149226220Y-81170339D01*
X149226220Y-81170339D02*
X149226220Y-80170339D01*
X148526220Y-80217958D02*
X148592887Y-80170339D01*
X148592887Y-80170339D02*
X148692887Y-80170339D01*
X148692887Y-80170339D02*
X148792887Y-80217958D01*
X148792887Y-80217958D02*
X148859554Y-80313196D01*
X148859554Y-80313196D02*
X148892887Y-80408434D01*
X148892887Y-80408434D02*
X148926220Y-80598910D01*
X148926220Y-80598910D02*
X148926220Y-80741767D01*
X148926220Y-80741767D02*
X148892887Y-80932243D01*
X148892887Y-80932243D02*
X148859554Y-81027481D01*
X148859554Y-81027481D02*
X148792887Y-81122720D01*
X148792887Y-81122720D02*
X148692887Y-81170339D01*
X148692887Y-81170339D02*
X148626220Y-81170339D01*
X148626220Y-81170339D02*
X148526220Y-81122720D01*
X148526220Y-81122720D02*
X148492887Y-81075100D01*
X148492887Y-81075100D02*
X148492887Y-80741767D01*
X148492887Y-80741767D02*
X148626220Y-80741767D01*
X161792884Y-89853672D02*
X161792884Y-90520339D01*
X162092884Y-89853672D02*
X162092884Y-90377481D01*
X162092884Y-90377481D02*
X162059551Y-90472720D01*
X162059551Y-90472720D02*
X161992884Y-90520339D01*
X161992884Y-90520339D02*
X161892884Y-90520339D01*
X161892884Y-90520339D02*
X161826217Y-90472720D01*
X161826217Y-90472720D02*
X161792884Y-90425100D01*
X161459551Y-89853672D02*
X161459551Y-90520339D01*
X161459551Y-89948910D02*
X161426218Y-89901291D01*
X161426218Y-89901291D02*
X161359551Y-89853672D01*
X161359551Y-89853672D02*
X161259551Y-89853672D01*
X161259551Y-89853672D02*
X161192884Y-89901291D01*
X161192884Y-89901291D02*
X161159551Y-89996529D01*
X161159551Y-89996529D02*
X161159551Y-90520339D01*
X160926218Y-89853672D02*
X160659551Y-89853672D01*
X160826218Y-89520339D02*
X160826218Y-90377481D01*
X160826218Y-90377481D02*
X160792885Y-90472720D01*
X160792885Y-90472720D02*
X160726218Y-90520339D01*
X160726218Y-90520339D02*
X160659551Y-90520339D01*
X160426218Y-90520339D02*
X160426218Y-89853672D01*
X160426218Y-89520339D02*
X160459551Y-89567958D01*
X160459551Y-89567958D02*
X160426218Y-89615577D01*
X160426218Y-89615577D02*
X160392885Y-89567958D01*
X160392885Y-89567958D02*
X160426218Y-89520339D01*
X160426218Y-89520339D02*
X160426218Y-89615577D01*
X160192885Y-89853672D02*
X159926218Y-89853672D01*
X160092885Y-89520339D02*
X160092885Y-90377481D01*
X160092885Y-90377481D02*
X160059552Y-90472720D01*
X160059552Y-90472720D02*
X159992885Y-90520339D01*
X159992885Y-90520339D02*
X159926218Y-90520339D01*
X159592885Y-90520339D02*
X159659552Y-90472720D01*
X159659552Y-90472720D02*
X159692885Y-90377481D01*
X159692885Y-90377481D02*
X159692885Y-89520339D01*
X159059551Y-90472720D02*
X159126218Y-90520339D01*
X159126218Y-90520339D02*
X159259551Y-90520339D01*
X159259551Y-90520339D02*
X159326218Y-90472720D01*
X159326218Y-90472720D02*
X159359551Y-90377481D01*
X159359551Y-90377481D02*
X159359551Y-89996529D01*
X159359551Y-89996529D02*
X159326218Y-89901291D01*
X159326218Y-89901291D02*
X159259551Y-89853672D01*
X159259551Y-89853672D02*
X159126218Y-89853672D01*
X159126218Y-89853672D02*
X159059551Y-89901291D01*
X159059551Y-89901291D02*
X159026218Y-89996529D01*
X159026218Y-89996529D02*
X159026218Y-90091767D01*
X159026218Y-90091767D02*
X159359551Y-90187005D01*
X158426218Y-90520339D02*
X158426218Y-89520339D01*
X158426218Y-90472720D02*
X158492885Y-90520339D01*
X158492885Y-90520339D02*
X158626218Y-90520339D01*
X158626218Y-90520339D02*
X158692885Y-90472720D01*
X158692885Y-90472720D02*
X158726218Y-90425100D01*
X158726218Y-90425100D02*
X158759551Y-90329862D01*
X158759551Y-90329862D02*
X158759551Y-90044148D01*
X158759551Y-90044148D02*
X158726218Y-89948910D01*
X158726218Y-89948910D02*
X158692885Y-89901291D01*
X158692885Y-89901291D02*
X158626218Y-89853672D01*
X158626218Y-89853672D02*
X158492885Y-89853672D01*
X158492885Y-89853672D02*
X158426218Y-89901291D01*
X157259552Y-90472720D02*
X157326219Y-90520339D01*
X157326219Y-90520339D02*
X157459552Y-90520339D01*
X157459552Y-90520339D02*
X157526219Y-90472720D01*
X157526219Y-90472720D02*
X157559552Y-90425100D01*
X157559552Y-90425100D02*
X157592885Y-90329862D01*
X157592885Y-90329862D02*
X157592885Y-90044148D01*
X157592885Y-90044148D02*
X157559552Y-89948910D01*
X157559552Y-89948910D02*
X157526219Y-89901291D01*
X157526219Y-89901291D02*
X157459552Y-89853672D01*
X157459552Y-89853672D02*
X157326219Y-89853672D01*
X157326219Y-89853672D02*
X157259552Y-89901291D01*
X156992885Y-90472720D02*
X156926219Y-90520339D01*
X156926219Y-90520339D02*
X156792885Y-90520339D01*
X156792885Y-90520339D02*
X156726219Y-90472720D01*
X156726219Y-90472720D02*
X156692885Y-90377481D01*
X156692885Y-90377481D02*
X156692885Y-90329862D01*
X156692885Y-90329862D02*
X156726219Y-90234624D01*
X156726219Y-90234624D02*
X156792885Y-90187005D01*
X156792885Y-90187005D02*
X156892885Y-90187005D01*
X156892885Y-90187005D02*
X156959552Y-90139386D01*
X156959552Y-90139386D02*
X156992885Y-90044148D01*
X156992885Y-90044148D02*
X156992885Y-89996529D01*
X156992885Y-89996529D02*
X156959552Y-89901291D01*
X156959552Y-89901291D02*
X156892885Y-89853672D01*
X156892885Y-89853672D02*
X156792885Y-89853672D01*
X156792885Y-89853672D02*
X156726219Y-89901291D01*
X156459552Y-89853672D02*
X156292885Y-90520339D01*
X156292885Y-90520339D02*
X156126218Y-89853672D01*
X157376217Y-86370339D02*
X157376217Y-86560815D01*
X157109551Y-86370339D02*
X157109551Y-86560815D01*
X156542884Y-87322720D02*
X156609551Y-87370339D01*
X156609551Y-87370339D02*
X156742884Y-87370339D01*
X156742884Y-87370339D02*
X156809551Y-87322720D01*
X156809551Y-87322720D02*
X156842884Y-87227481D01*
X156842884Y-87227481D02*
X156842884Y-86846529D01*
X156842884Y-86846529D02*
X156809551Y-86751291D01*
X156809551Y-86751291D02*
X156742884Y-86703672D01*
X156742884Y-86703672D02*
X156609551Y-86703672D01*
X156609551Y-86703672D02*
X156542884Y-86751291D01*
X156542884Y-86751291D02*
X156509551Y-86846529D01*
X156509551Y-86846529D02*
X156509551Y-86941767D01*
X156509551Y-86941767D02*
X156842884Y-87037005D01*
X156276218Y-86703672D02*
X156109551Y-87370339D01*
X156109551Y-87370339D02*
X155942884Y-86703672D01*
X155676218Y-87370339D02*
X155676218Y-86703672D01*
X155676218Y-86370339D02*
X155709551Y-86417958D01*
X155709551Y-86417958D02*
X155676218Y-86465577D01*
X155676218Y-86465577D02*
X155642885Y-86417958D01*
X155642885Y-86417958D02*
X155676218Y-86370339D01*
X155676218Y-86370339D02*
X155676218Y-86465577D01*
X155242885Y-87370339D02*
X155309552Y-87322720D01*
X155309552Y-87322720D02*
X155342885Y-87227481D01*
X155342885Y-87227481D02*
X155342885Y-86370339D01*
X154442885Y-87370339D02*
X154442885Y-86370339D01*
X154376218Y-86989386D02*
X154176218Y-87370339D01*
X154176218Y-86703672D02*
X154442885Y-87084624D01*
X153776218Y-87370339D02*
X153842885Y-87322720D01*
X153842885Y-87322720D02*
X153876218Y-87275100D01*
X153876218Y-87275100D02*
X153909551Y-87179862D01*
X153909551Y-87179862D02*
X153909551Y-86894148D01*
X153909551Y-86894148D02*
X153876218Y-86798910D01*
X153876218Y-86798910D02*
X153842885Y-86751291D01*
X153842885Y-86751291D02*
X153776218Y-86703672D01*
X153776218Y-86703672D02*
X153676218Y-86703672D01*
X153676218Y-86703672D02*
X153609551Y-86751291D01*
X153609551Y-86751291D02*
X153576218Y-86798910D01*
X153576218Y-86798910D02*
X153542885Y-86894148D01*
X153542885Y-86894148D02*
X153542885Y-87179862D01*
X153542885Y-87179862D02*
X153576218Y-87275100D01*
X153576218Y-87275100D02*
X153609551Y-87322720D01*
X153609551Y-87322720D02*
X153676218Y-87370339D01*
X153676218Y-87370339D02*
X153776218Y-87370339D01*
X153242885Y-87370339D02*
X153242885Y-86703672D01*
X153242885Y-86894148D02*
X153209552Y-86798910D01*
X153209552Y-86798910D02*
X153176218Y-86751291D01*
X153176218Y-86751291D02*
X153109552Y-86703672D01*
X153109552Y-86703672D02*
X153042885Y-86703672D01*
X152542885Y-87322720D02*
X152609552Y-87370339D01*
X152609552Y-87370339D02*
X152742885Y-87370339D01*
X152742885Y-87370339D02*
X152809552Y-87322720D01*
X152809552Y-87322720D02*
X152842885Y-87227481D01*
X152842885Y-87227481D02*
X152842885Y-86846529D01*
X152842885Y-86846529D02*
X152809552Y-86751291D01*
X152809552Y-86751291D02*
X152742885Y-86703672D01*
X152742885Y-86703672D02*
X152609552Y-86703672D01*
X152609552Y-86703672D02*
X152542885Y-86751291D01*
X152542885Y-86751291D02*
X152509552Y-86846529D01*
X152509552Y-86846529D02*
X152509552Y-86941767D01*
X152509552Y-86941767D02*
X152842885Y-87037005D01*
X151909552Y-87370339D02*
X151909552Y-86846529D01*
X151909552Y-86846529D02*
X151942885Y-86751291D01*
X151942885Y-86751291D02*
X152009552Y-86703672D01*
X152009552Y-86703672D02*
X152142885Y-86703672D01*
X152142885Y-86703672D02*
X152209552Y-86751291D01*
X151909552Y-87322720D02*
X151976219Y-87370339D01*
X151976219Y-87370339D02*
X152142885Y-87370339D01*
X152142885Y-87370339D02*
X152209552Y-87322720D01*
X152209552Y-87322720D02*
X152242885Y-87227481D01*
X152242885Y-87227481D02*
X152242885Y-87132243D01*
X152242885Y-87132243D02*
X152209552Y-87037005D01*
X152209552Y-87037005D02*
X152142885Y-86989386D01*
X152142885Y-86989386D02*
X151976219Y-86989386D01*
X151976219Y-86989386D02*
X151909552Y-86941767D01*
X151576219Y-86703672D02*
X151576219Y-87370339D01*
X151576219Y-86798910D02*
X151542886Y-86751291D01*
X151542886Y-86751291D02*
X151476219Y-86703672D01*
X151476219Y-86703672D02*
X151376219Y-86703672D01*
X151376219Y-86703672D02*
X151309552Y-86751291D01*
X151309552Y-86751291D02*
X151276219Y-86846529D01*
X151276219Y-86846529D02*
X151276219Y-87370339D01*
X150976219Y-87322720D02*
X150909553Y-87370339D01*
X150909553Y-87370339D02*
X150776219Y-87370339D01*
X150776219Y-87370339D02*
X150709553Y-87322720D01*
X150709553Y-87322720D02*
X150676219Y-87227481D01*
X150676219Y-87227481D02*
X150676219Y-87179862D01*
X150676219Y-87179862D02*
X150709553Y-87084624D01*
X150709553Y-87084624D02*
X150776219Y-87037005D01*
X150776219Y-87037005D02*
X150876219Y-87037005D01*
X150876219Y-87037005D02*
X150942886Y-86989386D01*
X150942886Y-86989386D02*
X150976219Y-86894148D01*
X150976219Y-86894148D02*
X150976219Y-86846529D01*
X150976219Y-86846529D02*
X150942886Y-86751291D01*
X150942886Y-86751291D02*
X150876219Y-86703672D01*
X150876219Y-86703672D02*
X150776219Y-86703672D01*
X150776219Y-86703672D02*
X150709553Y-86751291D01*
X150409552Y-86370339D02*
X150409552Y-86560815D01*
X150142886Y-86370339D02*
X150142886Y-86560815D01*
D11*
X164875810Y-93918519D02*
X164750810Y-92918519D01*
X164869858Y-93870900D02*
X164942477Y-93918519D01*
X164942477Y-93918519D02*
X165075810Y-93918519D01*
X165075810Y-93918519D02*
X165136525Y-93870900D01*
X165136525Y-93870900D02*
X165163905Y-93823280D01*
X165163905Y-93823280D02*
X165185334Y-93728042D01*
X165185334Y-93728042D02*
X165149620Y-93442328D01*
X165149620Y-93442328D02*
X165104382Y-93347090D01*
X165104382Y-93347090D02*
X165065096Y-93299471D01*
X165065096Y-93299471D02*
X164992477Y-93251852D01*
X164992477Y-93251852D02*
X164859144Y-93251852D01*
X164859144Y-93251852D02*
X164798429Y-93299471D01*
X164269858Y-93870900D02*
X164342477Y-93918519D01*
X164342477Y-93918519D02*
X164475811Y-93918519D01*
X164475811Y-93918519D02*
X164536525Y-93870900D01*
X164536525Y-93870900D02*
X164557953Y-93775661D01*
X164557953Y-93775661D02*
X164510334Y-93394709D01*
X164510334Y-93394709D02*
X164465096Y-93299471D01*
X164465096Y-93299471D02*
X164392477Y-93251852D01*
X164392477Y-93251852D02*
X164259144Y-93251852D01*
X164259144Y-93251852D02*
X164198430Y-93299471D01*
X164198430Y-93299471D02*
X164177001Y-93394709D01*
X164177001Y-93394709D02*
X164188906Y-93489947D01*
X164188906Y-93489947D02*
X164534144Y-93585185D01*
X163969858Y-93870900D02*
X163909144Y-93918519D01*
X163909144Y-93918519D02*
X163775811Y-93918519D01*
X163775811Y-93918519D02*
X163703192Y-93870900D01*
X163703192Y-93870900D02*
X163657953Y-93775661D01*
X163657953Y-93775661D02*
X163652001Y-93728042D01*
X163652001Y-93728042D02*
X163673430Y-93632804D01*
X163673430Y-93632804D02*
X163734144Y-93585185D01*
X163734144Y-93585185D02*
X163834144Y-93585185D01*
X163834144Y-93585185D02*
X163894858Y-93537566D01*
X163894858Y-93537566D02*
X163916287Y-93442328D01*
X163916287Y-93442328D02*
X163910334Y-93394709D01*
X163910334Y-93394709D02*
X163865096Y-93299471D01*
X163865096Y-93299471D02*
X163792477Y-93251852D01*
X163792477Y-93251852D02*
X163692477Y-93251852D01*
X163692477Y-93251852D02*
X163631763Y-93299471D01*
X163375810Y-93918519D02*
X163292477Y-93251852D01*
X163250810Y-92918519D02*
X163290096Y-92966138D01*
X163290096Y-92966138D02*
X163262715Y-93013757D01*
X163262715Y-93013757D02*
X163223429Y-92966138D01*
X163223429Y-92966138D02*
X163250810Y-92918519D01*
X163250810Y-92918519D02*
X163262715Y-93013757D01*
X162659144Y-93251852D02*
X162760334Y-94061376D01*
X162760334Y-94061376D02*
X162805572Y-94156614D01*
X162805572Y-94156614D02*
X162844858Y-94204233D01*
X162844858Y-94204233D02*
X162917477Y-94251852D01*
X162917477Y-94251852D02*
X163017477Y-94251852D01*
X163017477Y-94251852D02*
X163078192Y-94204233D01*
X162736525Y-93870900D02*
X162809144Y-93918519D01*
X162809144Y-93918519D02*
X162942477Y-93918519D01*
X162942477Y-93918519D02*
X163003192Y-93870900D01*
X163003192Y-93870900D02*
X163030572Y-93823280D01*
X163030572Y-93823280D02*
X163052001Y-93728042D01*
X163052001Y-93728042D02*
X163016287Y-93442328D01*
X163016287Y-93442328D02*
X162971049Y-93347090D01*
X162971049Y-93347090D02*
X162931763Y-93299471D01*
X162931763Y-93299471D02*
X162859144Y-93251852D01*
X162859144Y-93251852D02*
X162725811Y-93251852D01*
X162725811Y-93251852D02*
X162665096Y-93299471D01*
X162325811Y-93251852D02*
X162409144Y-93918519D01*
X162337716Y-93347090D02*
X162298430Y-93299471D01*
X162298430Y-93299471D02*
X162225811Y-93251852D01*
X162225811Y-93251852D02*
X162125811Y-93251852D01*
X162125811Y-93251852D02*
X162065097Y-93299471D01*
X162065097Y-93299471D02*
X162043668Y-93394709D01*
X162043668Y-93394709D02*
X162109144Y-93918519D01*
X161503192Y-93870900D02*
X161575811Y-93918519D01*
X161575811Y-93918519D02*
X161709145Y-93918519D01*
X161709145Y-93918519D02*
X161769859Y-93870900D01*
X161769859Y-93870900D02*
X161791287Y-93775661D01*
X161791287Y-93775661D02*
X161743668Y-93394709D01*
X161743668Y-93394709D02*
X161698430Y-93299471D01*
X161698430Y-93299471D02*
X161625811Y-93251852D01*
X161625811Y-93251852D02*
X161492478Y-93251852D01*
X161492478Y-93251852D02*
X161431764Y-93299471D01*
X161431764Y-93299471D02*
X161410335Y-93394709D01*
X161410335Y-93394709D02*
X161422240Y-93489947D01*
X161422240Y-93489947D02*
X161767478Y-93585185D01*
X160875811Y-93918519D02*
X160750811Y-92918519D01*
X160869859Y-93870900D02*
X160942478Y-93918519D01*
X160942478Y-93918519D02*
X161075811Y-93918519D01*
X161075811Y-93918519D02*
X161136526Y-93870900D01*
X161136526Y-93870900D02*
X161163906Y-93823280D01*
X161163906Y-93823280D02*
X161185335Y-93728042D01*
X161185335Y-93728042D02*
X161149621Y-93442328D01*
X161149621Y-93442328D02*
X161104383Y-93347090D01*
X161104383Y-93347090D02*
X161065097Y-93299471D01*
X161065097Y-93299471D02*
X160992478Y-93251852D01*
X160992478Y-93251852D02*
X160859145Y-93251852D01*
X160859145Y-93251852D02*
X160798430Y-93299471D01*
X160009145Y-93918519D02*
X159884145Y-92918519D01*
X159931764Y-93299471D02*
X159859145Y-93251852D01*
X159859145Y-93251852D02*
X159725812Y-93251852D01*
X159725812Y-93251852D02*
X159665098Y-93299471D01*
X159665098Y-93299471D02*
X159637717Y-93347090D01*
X159637717Y-93347090D02*
X159616288Y-93442328D01*
X159616288Y-93442328D02*
X159652002Y-93728042D01*
X159652002Y-93728042D02*
X159697240Y-93823280D01*
X159697240Y-93823280D02*
X159736526Y-93870900D01*
X159736526Y-93870900D02*
X159809145Y-93918519D01*
X159809145Y-93918519D02*
X159942479Y-93918519D01*
X159942479Y-93918519D02*
X160003193Y-93870900D01*
X159359146Y-93251852D02*
X159275812Y-93918519D01*
X159025812Y-93251852D02*
X159275812Y-93918519D01*
X159275812Y-93918519D02*
X159372241Y-94156614D01*
X159372241Y-94156614D02*
X159411527Y-94204233D01*
X159411527Y-94204233D02*
X159484146Y-94251852D01*
X158225813Y-93251852D02*
X158332956Y-94108995D01*
X158332956Y-94108995D02*
X158378194Y-94204233D01*
X158378194Y-94204233D02*
X158450813Y-94251852D01*
X158450813Y-94251852D02*
X158484146Y-94251852D01*
X158184146Y-92918519D02*
X158223432Y-92966138D01*
X158223432Y-92966138D02*
X158196051Y-93013757D01*
X158196051Y-93013757D02*
X158156765Y-92966138D01*
X158156765Y-92966138D02*
X158184146Y-92918519D01*
X158184146Y-92918519D02*
X158196051Y-93013757D01*
X157592480Y-93251852D02*
X157675813Y-93918519D01*
X157892480Y-93251852D02*
X157957956Y-93775661D01*
X157957956Y-93775661D02*
X157936528Y-93870900D01*
X157936528Y-93870900D02*
X157875813Y-93918519D01*
X157875813Y-93918519D02*
X157775813Y-93918519D01*
X157775813Y-93918519D02*
X157703194Y-93870900D01*
X157703194Y-93870900D02*
X157663908Y-93823280D01*
X157369861Y-93870900D02*
X157309147Y-93918519D01*
X157309147Y-93918519D02*
X157175814Y-93918519D01*
X157175814Y-93918519D02*
X157103195Y-93870900D01*
X157103195Y-93870900D02*
X157057956Y-93775661D01*
X157057956Y-93775661D02*
X157052004Y-93728042D01*
X157052004Y-93728042D02*
X157073433Y-93632804D01*
X157073433Y-93632804D02*
X157134147Y-93585185D01*
X157134147Y-93585185D02*
X157234147Y-93585185D01*
X157234147Y-93585185D02*
X157294861Y-93537566D01*
X157294861Y-93537566D02*
X157316290Y-93442328D01*
X157316290Y-93442328D02*
X157310337Y-93394709D01*
X157310337Y-93394709D02*
X157265099Y-93299471D01*
X157265099Y-93299471D02*
X157192480Y-93251852D01*
X157192480Y-93251852D02*
X157092480Y-93251852D01*
X157092480Y-93251852D02*
X157031766Y-93299471D01*
X156792480Y-93251852D02*
X156525813Y-93251852D01*
X156650813Y-92918519D02*
X156757956Y-93775661D01*
X156757956Y-93775661D02*
X156736528Y-93870900D01*
X156736528Y-93870900D02*
X156675813Y-93918519D01*
X156675813Y-93918519D02*
X156609147Y-93918519D01*
X156375813Y-93918519D02*
X156292480Y-93251852D01*
X156250813Y-92918519D02*
X156290099Y-92966138D01*
X156290099Y-92966138D02*
X156262718Y-93013757D01*
X156262718Y-93013757D02*
X156223432Y-92966138D01*
X156223432Y-92966138D02*
X156250813Y-92918519D01*
X156250813Y-92918519D02*
X156262718Y-93013757D01*
X155959147Y-93251852D02*
X156042480Y-93918519D01*
X155971052Y-93347090D02*
X155931766Y-93299471D01*
X155931766Y-93299471D02*
X155859147Y-93251852D01*
X155859147Y-93251852D02*
X155759147Y-93251852D01*
X155759147Y-93251852D02*
X155698433Y-93299471D01*
X155698433Y-93299471D02*
X155677004Y-93394709D01*
X155677004Y-93394709D02*
X155742480Y-93918519D01*
X154775814Y-93918519D02*
X154836529Y-93870900D01*
X154836529Y-93870900D02*
X154863909Y-93823280D01*
X154863909Y-93823280D02*
X154885338Y-93728042D01*
X154885338Y-93728042D02*
X154849624Y-93442328D01*
X154849624Y-93442328D02*
X154804386Y-93347090D01*
X154804386Y-93347090D02*
X154765100Y-93299471D01*
X154765100Y-93299471D02*
X154692481Y-93251852D01*
X154692481Y-93251852D02*
X154592481Y-93251852D01*
X154592481Y-93251852D02*
X154531767Y-93299471D01*
X154531767Y-93299471D02*
X154504386Y-93347090D01*
X154504386Y-93347090D02*
X154482957Y-93442328D01*
X154482957Y-93442328D02*
X154518671Y-93728042D01*
X154518671Y-93728042D02*
X154563909Y-93823280D01*
X154563909Y-93823280D02*
X154603195Y-93870900D01*
X154603195Y-93870900D02*
X154675814Y-93918519D01*
X154675814Y-93918519D02*
X154775814Y-93918519D01*
X154242481Y-93918519D02*
X154117481Y-92918519D01*
X153942481Y-93918519D02*
X153877005Y-93394709D01*
X153877005Y-93394709D02*
X153898434Y-93299471D01*
X153898434Y-93299471D02*
X153959148Y-93251852D01*
X153959148Y-93251852D02*
X154059148Y-93251852D01*
X154059148Y-93251852D02*
X154131767Y-93299471D01*
X154131767Y-93299471D02*
X154171053Y-93347090D01*
X153092482Y-93251852D02*
X152825815Y-93251852D01*
X153075815Y-93918519D02*
X152968672Y-93061376D01*
X152968672Y-93061376D02*
X152923434Y-92966138D01*
X152923434Y-92966138D02*
X152850815Y-92918519D01*
X152850815Y-92918519D02*
X152784149Y-92918519D01*
X152575815Y-93918519D02*
X152636530Y-93870900D01*
X152636530Y-93870900D02*
X152663910Y-93823280D01*
X152663910Y-93823280D02*
X152685339Y-93728042D01*
X152685339Y-93728042D02*
X152649625Y-93442328D01*
X152649625Y-93442328D02*
X152604387Y-93347090D01*
X152604387Y-93347090D02*
X152565101Y-93299471D01*
X152565101Y-93299471D02*
X152492482Y-93251852D01*
X152492482Y-93251852D02*
X152392482Y-93251852D01*
X152392482Y-93251852D02*
X152331768Y-93299471D01*
X152331768Y-93299471D02*
X152304387Y-93347090D01*
X152304387Y-93347090D02*
X152282958Y-93442328D01*
X152282958Y-93442328D02*
X152318672Y-93728042D01*
X152318672Y-93728042D02*
X152363910Y-93823280D01*
X152363910Y-93823280D02*
X152403196Y-93870900D01*
X152403196Y-93870900D02*
X152475815Y-93918519D01*
X152475815Y-93918519D02*
X152575815Y-93918519D01*
X152042482Y-93918519D02*
X151959149Y-93251852D01*
X151982958Y-93442328D02*
X151937720Y-93347090D01*
X151937720Y-93347090D02*
X151898435Y-93299471D01*
X151898435Y-93299471D02*
X151825816Y-93251852D01*
X151825816Y-93251852D02*
X151759149Y-93251852D01*
X150775816Y-93918519D02*
X150650816Y-92918519D01*
X150769864Y-93870900D02*
X150842483Y-93918519D01*
X150842483Y-93918519D02*
X150975816Y-93918519D01*
X150975816Y-93918519D02*
X151036531Y-93870900D01*
X151036531Y-93870900D02*
X151063911Y-93823280D01*
X151063911Y-93823280D02*
X151085340Y-93728042D01*
X151085340Y-93728042D02*
X151049626Y-93442328D01*
X151049626Y-93442328D02*
X151004388Y-93347090D01*
X151004388Y-93347090D02*
X150965102Y-93299471D01*
X150965102Y-93299471D02*
X150892483Y-93251852D01*
X150892483Y-93251852D02*
X150759150Y-93251852D01*
X150759150Y-93251852D02*
X150698435Y-93299471D01*
X150442483Y-93918519D02*
X150317483Y-92918519D01*
X150365102Y-93299471D02*
X150292483Y-93251852D01*
X150292483Y-93251852D02*
X150159150Y-93251852D01*
X150159150Y-93251852D02*
X150098436Y-93299471D01*
X150098436Y-93299471D02*
X150071055Y-93347090D01*
X150071055Y-93347090D02*
X150049626Y-93442328D01*
X150049626Y-93442328D02*
X150085340Y-93728042D01*
X150085340Y-93728042D02*
X150130578Y-93823280D01*
X150130578Y-93823280D02*
X150169864Y-93870900D01*
X150169864Y-93870900D02*
X150242483Y-93918519D01*
X150242483Y-93918519D02*
X150375817Y-93918519D01*
X150375817Y-93918519D02*
X150436531Y-93870900D01*
X149825817Y-93251852D02*
X149559150Y-93251852D01*
X149809150Y-93918519D02*
X149702007Y-93061376D01*
X149702007Y-93061376D02*
X149656769Y-92966138D01*
X149656769Y-92966138D02*
X149584150Y-92918519D01*
X149584150Y-92918519D02*
X149517484Y-92918519D01*
X148382960Y-93442328D02*
X148410341Y-93394709D01*
X148410341Y-93394709D02*
X148471055Y-93347090D01*
X148471055Y-93347090D02*
X148537722Y-93347090D01*
X148537722Y-93347090D02*
X148610341Y-93394709D01*
X148610341Y-93394709D02*
X148649627Y-93442328D01*
X148649627Y-93442328D02*
X148694865Y-93537566D01*
X148694865Y-93537566D02*
X148706770Y-93632804D01*
X148706770Y-93632804D02*
X148685341Y-93728042D01*
X148685341Y-93728042D02*
X148657960Y-93775661D01*
X148657960Y-93775661D02*
X148597246Y-93823280D01*
X148597246Y-93823280D02*
X148530579Y-93823280D01*
X148530579Y-93823280D02*
X148457960Y-93775661D01*
X148457960Y-93775661D02*
X148418674Y-93728042D01*
X148371055Y-93347090D02*
X148418674Y-93728042D01*
X148418674Y-93728042D02*
X148391293Y-93775661D01*
X148391293Y-93775661D02*
X148357960Y-93775661D01*
X148357960Y-93775661D02*
X148285341Y-93728042D01*
X148285341Y-93728042D02*
X148240103Y-93632804D01*
X148240103Y-93632804D02*
X148210341Y-93394709D01*
X148210341Y-93394709D02*
X148259151Y-93251852D01*
X148259151Y-93251852D02*
X148347246Y-93156614D01*
X148347246Y-93156614D02*
X148474627Y-93108995D01*
X148474627Y-93108995D02*
X148613912Y-93156614D01*
X148613912Y-93156614D02*
X148725817Y-93251852D01*
X148725817Y-93251852D02*
X148810341Y-93394709D01*
X148810341Y-93394709D02*
X148867484Y-93585185D01*
X148867484Y-93585185D02*
X148857960Y-93775661D01*
X148857960Y-93775661D02*
X148809151Y-93918519D01*
X148809151Y-93918519D02*
X148721055Y-94013757D01*
X148721055Y-94013757D02*
X148593674Y-94061376D01*
X148593674Y-94061376D02*
X148454389Y-94013757D01*
X148454389Y-94013757D02*
X148342484Y-93918519D01*
X147059151Y-93251852D02*
X147142484Y-93918519D01*
X147359151Y-93251852D02*
X147424627Y-93775661D01*
X147424627Y-93775661D02*
X147403199Y-93870900D01*
X147403199Y-93870900D02*
X147342484Y-93918519D01*
X147342484Y-93918519D02*
X147242484Y-93918519D01*
X147242484Y-93918519D02*
X147169865Y-93870900D01*
X147169865Y-93870900D02*
X147130579Y-93823280D01*
X146503199Y-93870900D02*
X146575818Y-93918519D01*
X146575818Y-93918519D02*
X146709151Y-93918519D01*
X146709151Y-93918519D02*
X146769866Y-93870900D01*
X146769866Y-93870900D02*
X146797246Y-93823280D01*
X146797246Y-93823280D02*
X146818675Y-93728042D01*
X146818675Y-93728042D02*
X146782961Y-93442328D01*
X146782961Y-93442328D02*
X146737723Y-93347090D01*
X146737723Y-93347090D02*
X146698437Y-93299471D01*
X146698437Y-93299471D02*
X146625818Y-93251852D01*
X146625818Y-93251852D02*
X146492485Y-93251852D01*
X146492485Y-93251852D02*
X146431770Y-93299471D01*
X146109151Y-93918519D02*
X146169866Y-93870900D01*
X146169866Y-93870900D02*
X146191294Y-93775661D01*
X146191294Y-93775661D02*
X146084151Y-92918519D01*
X145542484Y-93918519D02*
X145477008Y-93394709D01*
X145477008Y-93394709D02*
X145498437Y-93299471D01*
X145498437Y-93299471D02*
X145559151Y-93251852D01*
X145559151Y-93251852D02*
X145692484Y-93251852D01*
X145692484Y-93251852D02*
X145765103Y-93299471D01*
X145536532Y-93870900D02*
X145609151Y-93918519D01*
X145609151Y-93918519D02*
X145775818Y-93918519D01*
X145775818Y-93918519D02*
X145836532Y-93870900D01*
X145836532Y-93870900D02*
X145857960Y-93775661D01*
X145857960Y-93775661D02*
X145846056Y-93680423D01*
X145846056Y-93680423D02*
X145800818Y-93585185D01*
X145800818Y-93585185D02*
X145728199Y-93537566D01*
X145728199Y-93537566D02*
X145561532Y-93537566D01*
X145561532Y-93537566D02*
X145488913Y-93489947D01*
D10*
X160642884Y-85720339D02*
X160709551Y-85672720D01*
X160709551Y-85672720D02*
X160742884Y-85625100D01*
X160742884Y-85625100D02*
X160776217Y-85529862D01*
X160776217Y-85529862D02*
X160776217Y-85244148D01*
X160776217Y-85244148D02*
X160742884Y-85148910D01*
X160742884Y-85148910D02*
X160709551Y-85101291D01*
X160709551Y-85101291D02*
X160642884Y-85053672D01*
X160642884Y-85053672D02*
X160542884Y-85053672D01*
X160542884Y-85053672D02*
X160476217Y-85101291D01*
X160476217Y-85101291D02*
X160442884Y-85148910D01*
X160442884Y-85148910D02*
X160409551Y-85244148D01*
X160409551Y-85244148D02*
X160409551Y-85529862D01*
X160409551Y-85529862D02*
X160442884Y-85625100D01*
X160442884Y-85625100D02*
X160476217Y-85672720D01*
X160476217Y-85672720D02*
X160542884Y-85720339D01*
X160542884Y-85720339D02*
X160642884Y-85720339D01*
X160109551Y-85720339D02*
X160109551Y-84720339D01*
X159809551Y-85720339D02*
X159809551Y-85196529D01*
X159809551Y-85196529D02*
X159842884Y-85101291D01*
X159842884Y-85101291D02*
X159909551Y-85053672D01*
X159909551Y-85053672D02*
X160009551Y-85053672D01*
X160009551Y-85053672D02*
X160076218Y-85101291D01*
X160076218Y-85101291D02*
X160109551Y-85148910D01*
X159476218Y-85625100D02*
X159442885Y-85672720D01*
X159442885Y-85672720D02*
X159476218Y-85720339D01*
X159476218Y-85720339D02*
X159509551Y-85672720D01*
X159509551Y-85672720D02*
X159476218Y-85625100D01*
X159476218Y-85625100D02*
X159476218Y-85720339D01*
X159476218Y-85339386D02*
X159509551Y-84767958D01*
X159509551Y-84767958D02*
X159476218Y-84720339D01*
X159476218Y-84720339D02*
X159442885Y-84767958D01*
X159442885Y-84767958D02*
X159476218Y-85339386D01*
X159476218Y-85339386D02*
X159476218Y-84720339D01*
X158609552Y-85720339D02*
X158609552Y-84720339D01*
X158309552Y-85720339D02*
X158309552Y-85196529D01*
X158309552Y-85196529D02*
X158342885Y-85101291D01*
X158342885Y-85101291D02*
X158409552Y-85053672D01*
X158409552Y-85053672D02*
X158509552Y-85053672D01*
X158509552Y-85053672D02*
X158576219Y-85101291D01*
X158576219Y-85101291D02*
X158609552Y-85148910D01*
X157709552Y-85672720D02*
X157776219Y-85720339D01*
X157776219Y-85720339D02*
X157909552Y-85720339D01*
X157909552Y-85720339D02*
X157976219Y-85672720D01*
X157976219Y-85672720D02*
X158009552Y-85577481D01*
X158009552Y-85577481D02*
X158009552Y-85196529D01*
X158009552Y-85196529D02*
X157976219Y-85101291D01*
X157976219Y-85101291D02*
X157909552Y-85053672D01*
X157909552Y-85053672D02*
X157776219Y-85053672D01*
X157776219Y-85053672D02*
X157709552Y-85101291D01*
X157709552Y-85101291D02*
X157676219Y-85196529D01*
X157676219Y-85196529D02*
X157676219Y-85291767D01*
X157676219Y-85291767D02*
X158009552Y-85387005D01*
X157442886Y-85053672D02*
X157276219Y-85720339D01*
X157109552Y-85053672D02*
X157276219Y-85720339D01*
X157276219Y-85720339D02*
X157342886Y-85958434D01*
X157342886Y-85958434D02*
X157376219Y-86006053D01*
X157376219Y-86006053D02*
X157442886Y-86053672D01*
X156376220Y-85053672D02*
X156242886Y-85720339D01*
X156242886Y-85720339D02*
X156109553Y-85244148D01*
X156109553Y-85244148D02*
X155976220Y-85720339D01*
X155976220Y-85720339D02*
X155842886Y-85053672D01*
X155276220Y-85720339D02*
X155276220Y-85196529D01*
X155276220Y-85196529D02*
X155309553Y-85101291D01*
X155309553Y-85101291D02*
X155376220Y-85053672D01*
X155376220Y-85053672D02*
X155509553Y-85053672D01*
X155509553Y-85053672D02*
X155576220Y-85101291D01*
X155276220Y-85672720D02*
X155342887Y-85720339D01*
X155342887Y-85720339D02*
X155509553Y-85720339D01*
X155509553Y-85720339D02*
X155576220Y-85672720D01*
X155576220Y-85672720D02*
X155609553Y-85577481D01*
X155609553Y-85577481D02*
X155609553Y-85482243D01*
X155609553Y-85482243D02*
X155576220Y-85387005D01*
X155576220Y-85387005D02*
X155509553Y-85339386D01*
X155509553Y-85339386D02*
X155342887Y-85339386D01*
X155342887Y-85339386D02*
X155276220Y-85291767D01*
X154942887Y-85053672D02*
X154942887Y-85720339D01*
X154942887Y-85148910D02*
X154909554Y-85101291D01*
X154909554Y-85101291D02*
X154842887Y-85053672D01*
X154842887Y-85053672D02*
X154742887Y-85053672D01*
X154742887Y-85053672D02*
X154676220Y-85101291D01*
X154676220Y-85101291D02*
X154642887Y-85196529D01*
X154642887Y-85196529D02*
X154642887Y-85720339D01*
X154309554Y-85720339D02*
X154309554Y-85053672D01*
X154309554Y-84720339D02*
X154342887Y-84767958D01*
X154342887Y-84767958D02*
X154309554Y-84815577D01*
X154309554Y-84815577D02*
X154276221Y-84767958D01*
X154276221Y-84767958D02*
X154309554Y-84720339D01*
X154309554Y-84720339D02*
X154309554Y-84815577D01*
X153709554Y-85672720D02*
X153776221Y-85720339D01*
X153776221Y-85720339D02*
X153909554Y-85720339D01*
X153909554Y-85720339D02*
X153976221Y-85672720D01*
X153976221Y-85672720D02*
X154009554Y-85577481D01*
X154009554Y-85577481D02*
X154009554Y-85196529D01*
X154009554Y-85196529D02*
X153976221Y-85101291D01*
X153976221Y-85101291D02*
X153909554Y-85053672D01*
X153909554Y-85053672D02*
X153776221Y-85053672D01*
X153776221Y-85053672D02*
X153709554Y-85101291D01*
X153709554Y-85101291D02*
X153676221Y-85196529D01*
X153676221Y-85196529D02*
X153676221Y-85291767D01*
X153676221Y-85291767D02*
X154009554Y-85387005D01*
X153276221Y-85720339D02*
X153342888Y-85672720D01*
X153342888Y-85672720D02*
X153376221Y-85577481D01*
X153376221Y-85577481D02*
X153376221Y-84720339D01*
X160592884Y-88770339D02*
X160592884Y-88103672D01*
X160592884Y-88294148D02*
X160559551Y-88198910D01*
X160559551Y-88198910D02*
X160526217Y-88151291D01*
X160526217Y-88151291D02*
X160459551Y-88103672D01*
X160459551Y-88103672D02*
X160392884Y-88103672D01*
X160159551Y-88770339D02*
X160159551Y-88103672D01*
X160159551Y-87770339D02*
X160192884Y-87817958D01*
X160192884Y-87817958D02*
X160159551Y-87865577D01*
X160159551Y-87865577D02*
X160126218Y-87817958D01*
X160126218Y-87817958D02*
X160159551Y-87770339D01*
X160159551Y-87770339D02*
X160159551Y-87865577D01*
X159526218Y-88103672D02*
X159526218Y-88913196D01*
X159526218Y-88913196D02*
X159559551Y-89008434D01*
X159559551Y-89008434D02*
X159592885Y-89056053D01*
X159592885Y-89056053D02*
X159659551Y-89103672D01*
X159659551Y-89103672D02*
X159759551Y-89103672D01*
X159759551Y-89103672D02*
X159826218Y-89056053D01*
X159526218Y-88722720D02*
X159592885Y-88770339D01*
X159592885Y-88770339D02*
X159726218Y-88770339D01*
X159726218Y-88770339D02*
X159792885Y-88722720D01*
X159792885Y-88722720D02*
X159826218Y-88675100D01*
X159826218Y-88675100D02*
X159859551Y-88579862D01*
X159859551Y-88579862D02*
X159859551Y-88294148D01*
X159859551Y-88294148D02*
X159826218Y-88198910D01*
X159826218Y-88198910D02*
X159792885Y-88151291D01*
X159792885Y-88151291D02*
X159726218Y-88103672D01*
X159726218Y-88103672D02*
X159592885Y-88103672D01*
X159592885Y-88103672D02*
X159526218Y-88151291D01*
X159192885Y-88770339D02*
X159192885Y-87770339D01*
X158892885Y-88770339D02*
X158892885Y-88246529D01*
X158892885Y-88246529D02*
X158926218Y-88151291D01*
X158926218Y-88151291D02*
X158992885Y-88103672D01*
X158992885Y-88103672D02*
X159092885Y-88103672D01*
X159092885Y-88103672D02*
X159159552Y-88151291D01*
X159159552Y-88151291D02*
X159192885Y-88198910D01*
X158659552Y-88103672D02*
X158392885Y-88103672D01*
X158559552Y-87770339D02*
X158559552Y-88627481D01*
X158559552Y-88627481D02*
X158526219Y-88722720D01*
X158526219Y-88722720D02*
X158459552Y-88770339D01*
X158459552Y-88770339D02*
X158392885Y-88770339D01*
X157726219Y-88103672D02*
X157459552Y-88103672D01*
X157626219Y-87770339D02*
X157626219Y-88627481D01*
X157626219Y-88627481D02*
X157592886Y-88722720D01*
X157592886Y-88722720D02*
X157526219Y-88770339D01*
X157526219Y-88770339D02*
X157459552Y-88770339D01*
X157292886Y-88103672D02*
X157159552Y-88770339D01*
X157159552Y-88770339D02*
X157026219Y-88294148D01*
X157026219Y-88294148D02*
X156892886Y-88770339D01*
X156892886Y-88770339D02*
X156759552Y-88103672D01*
X156492886Y-88770339D02*
X156492886Y-88103672D01*
X156492886Y-87770339D02*
X156526219Y-87817958D01*
X156526219Y-87817958D02*
X156492886Y-87865577D01*
X156492886Y-87865577D02*
X156459553Y-87817958D01*
X156459553Y-87817958D02*
X156492886Y-87770339D01*
X156492886Y-87770339D02*
X156492886Y-87865577D01*
X155859553Y-88722720D02*
X155926220Y-88770339D01*
X155926220Y-88770339D02*
X156059553Y-88770339D01*
X156059553Y-88770339D02*
X156126220Y-88722720D01*
X156126220Y-88722720D02*
X156159553Y-88675100D01*
X156159553Y-88675100D02*
X156192886Y-88579862D01*
X156192886Y-88579862D02*
X156192886Y-88294148D01*
X156192886Y-88294148D02*
X156159553Y-88198910D01*
X156159553Y-88198910D02*
X156126220Y-88151291D01*
X156126220Y-88151291D02*
X156059553Y-88103672D01*
X156059553Y-88103672D02*
X155926220Y-88103672D01*
X155926220Y-88103672D02*
X155859553Y-88151291D01*
X155292886Y-88722720D02*
X155359553Y-88770339D01*
X155359553Y-88770339D02*
X155492886Y-88770339D01*
X155492886Y-88770339D02*
X155559553Y-88722720D01*
X155559553Y-88722720D02*
X155592886Y-88627481D01*
X155592886Y-88627481D02*
X155592886Y-88246529D01*
X155592886Y-88246529D02*
X155559553Y-88151291D01*
X155559553Y-88151291D02*
X155492886Y-88103672D01*
X155492886Y-88103672D02*
X155359553Y-88103672D01*
X155359553Y-88103672D02*
X155292886Y-88151291D01*
X155292886Y-88151291D02*
X155259553Y-88246529D01*
X155259553Y-88246529D02*
X155259553Y-88341767D01*
X155259553Y-88341767D02*
X155592886Y-88437005D01*
X154126220Y-88770339D02*
X154126220Y-88246529D01*
X154126220Y-88246529D02*
X154159553Y-88151291D01*
X154159553Y-88151291D02*
X154226220Y-88103672D01*
X154226220Y-88103672D02*
X154359553Y-88103672D01*
X154359553Y-88103672D02*
X154426220Y-88151291D01*
X154126220Y-88722720D02*
X154192887Y-88770339D01*
X154192887Y-88770339D02*
X154359553Y-88770339D01*
X154359553Y-88770339D02*
X154426220Y-88722720D01*
X154426220Y-88722720D02*
X154459553Y-88627481D01*
X154459553Y-88627481D02*
X154459553Y-88532243D01*
X154459553Y-88532243D02*
X154426220Y-88437005D01*
X154426220Y-88437005D02*
X154359553Y-88389386D01*
X154359553Y-88389386D02*
X154192887Y-88389386D01*
X154192887Y-88389386D02*
X154126220Y-88341767D01*
X152959554Y-88770339D02*
X152959554Y-87770339D01*
X152959554Y-88722720D02*
X153026221Y-88770339D01*
X153026221Y-88770339D02*
X153159554Y-88770339D01*
X153159554Y-88770339D02*
X153226221Y-88722720D01*
X153226221Y-88722720D02*
X153259554Y-88675100D01*
X153259554Y-88675100D02*
X153292887Y-88579862D01*
X153292887Y-88579862D02*
X153292887Y-88294148D01*
X153292887Y-88294148D02*
X153259554Y-88198910D01*
X153259554Y-88198910D02*
X153226221Y-88151291D01*
X153226221Y-88151291D02*
X153159554Y-88103672D01*
X153159554Y-88103672D02*
X153026221Y-88103672D01*
X153026221Y-88103672D02*
X152959554Y-88151291D01*
X152326221Y-88770339D02*
X152326221Y-88246529D01*
X152326221Y-88246529D02*
X152359554Y-88151291D01*
X152359554Y-88151291D02*
X152426221Y-88103672D01*
X152426221Y-88103672D02*
X152559554Y-88103672D01*
X152559554Y-88103672D02*
X152626221Y-88151291D01*
X152326221Y-88722720D02*
X152392888Y-88770339D01*
X152392888Y-88770339D02*
X152559554Y-88770339D01*
X152559554Y-88770339D02*
X152626221Y-88722720D01*
X152626221Y-88722720D02*
X152659554Y-88627481D01*
X152659554Y-88627481D02*
X152659554Y-88532243D01*
X152659554Y-88532243D02*
X152626221Y-88437005D01*
X152626221Y-88437005D02*
X152559554Y-88389386D01*
X152559554Y-88389386D02*
X152392888Y-88389386D01*
X152392888Y-88389386D02*
X152326221Y-88341767D01*
X152059555Y-88103672D02*
X151892888Y-88770339D01*
X151726221Y-88103672D02*
X151892888Y-88770339D01*
X151892888Y-88770339D02*
X151959555Y-89008434D01*
X151959555Y-89008434D02*
X151992888Y-89056053D01*
X151992888Y-89056053D02*
X152059555Y-89103672D01*
M02*
